<ttFont>
    <TTGlyph name=".notdef" xMin="193" yMin="0" xMax="1034" yMax="1462">
      <contour>
        <pt x="193" y="1462" on="1"/>
        <pt x="1034" y="1462" on="1"/>
        <pt x="1034" y="0" on="1"/>
        <pt x="193" y="0" on="1"/>
      </contour>
      <contour>
        <pt x="297" y="104" on="1"/>
        <pt x="930" y="104" on="1"/>
        <pt x="930" y="1358" on="1"/>
        <pt x="297" y="1358" on="1"/>
      </contour>
    </TTGlyph>
    <TTGlyph name="uni10A0" xMin="125" yMin="-20" xMax="1475" yMax="1462">
      <contour>
        <pt x="125" y="715" on="1"/>
        <pt x="125" y="916" on="0"/>
        <pt x="298" y="1216" on="0"/>
        <pt x="459" y="1303" on="1"/>
        <pt x="125" y="1303" on="1"/>
        <pt x="125" y="1462" on="1"/>
        <pt x="1423" y="1462" on="1"/>
        <pt x="1423" y="1303" on="1"/>
        <pt x="915" y="1303" on="1"/>
        <pt x="617" y="1303" on="0"/>
        <pt x="319" y="1007" on="0"/>
        <pt x="319" y="717" on="1"/>
        <pt x="319" y="436" on="0"/>
        <pt x="568" y="139" on="0"/>
        <pt x="801" y="139" on="1"/>
        <pt x="1036" y="139" on="0"/>
        <pt x="1280" y="439" on="0"/>
        <pt x="1280" y="733" on="1"/>
        <pt x="1475" y="733" on="1"/>
        <pt x="1475" y="382" on="0"/>
        <pt x="1120" y="-20" on="0"/>
        <pt x="801" y="-20" on="1"/>
        <pt x="478" y="-20" on="0"/>
        <pt x="125" y="366" on="0"/>
      </contour>
    </TTGlyph>
    <TTGlyph name="uni10A1" xMin="117" yMin="0" xMax="1192" yMax="1462">
      <contour>
        <pt x="117" y="963" on="1"/>
        <pt x="117" y="1220" on="0"/>
        <pt x="268" y="1462" on="1"/>
        <pt x="483" y="1462" on="1"/>
        <pt x="410" y="1378" on="0"/>
        <pt x="311" y="1101" on="0"/>
        <pt x="311" y="961" on="1"/>
        <pt x="311" y="790" on="0"/>
        <pt x="460" y="600" on="0"/>
        <pt x="616" y="600" on="1"/>
        <pt x="818" y="600" on="0"/>
        <pt x="1008" y="807" on="0"/>
        <pt x="1008" y="1038" on="1"/>
        <pt x="1008" y="1462" on="1"/>
        <pt x="1192" y="1462" on="1"/>
        <pt x="1192" y="0" on="1"/>
        <pt x="1006" y="0" on="1"/>
        <pt x="1006" y="496" on="1"/>
        <pt x="1006" y="522" on="0"/>
        <pt x="1016" y="639" on="1"/>
        <pt x="1006" y="639" on="1"/>
        <pt x="946" y="549" on="0"/>
        <pt x="718" y="440" on="0"/>
        <pt x="588" y="440" on="1"/>
        <pt x="363" y="440" on="0"/>
        <pt x="117" y="713" on="0"/>
      </contour>
    </TTGlyph>
    <TTGlyph name="uni10A2" xMin="82" yMin="-236" xMax="1505" yMax="1483">
      <contour>
        <pt x="938" y="946" on="1"/>
        <pt x="938" y="1135" on="0"/>
        <pt x="769" y="1323" on="0"/>
        <pt x="606" y="1323" on="1"/>
        <pt x="440" y="1323" on="0"/>
        <pt x="266" y="1133" on="0"/>
        <pt x="266" y="948" on="1"/>
        <pt x="266" y="922" on="1"/>
        <pt x="82" y="922" on="1"/>
        <pt x="82" y="942" on="1"/>
        <pt x="82" y="1199" on="0"/>
        <pt x="357" y="1483" on="0"/>
        <pt x="608" y="1483" on="1"/>
        <pt x="859" y="1483" on="0"/>
        <pt x="1122" y="1204" on="0"/>
        <pt x="1122" y="946" on="1"/>
        <pt x="1122" y="160" on="1"/>
        <pt x="1505" y="160" on="1"/>
        <pt x="1505" y="-236" on="1"/>
        <pt x="1329" y="-236" on="1"/>
        <pt x="1329" y="0" on="1"/>
        <pt x="938" y="0" on="1"/>
      </contour>
    </TTGlyph>
    <TTGlyph name="uni10A3" xMin="125" yMin="-20" xMax="1438" yMax="1462">
      <contour>
        <pt x="1243" y="578" on="1"/>
        <pt x="1243" y="789" on="0"/>
        <pt x="1003" y="1016" on="0"/>
        <pt x="780" y="1016" on="1"/>
        <pt x="559" y="1016" on="0"/>
        <pt x="319" y="792" on="0"/>
        <pt x="319" y="578" on="1"/>
        <pt x="319" y="365" on="0"/>
        <pt x="557" y="141" on="0"/>
        <pt x="778" y="141" on="1"/>
        <pt x="1001" y="141" on="0"/>
        <pt x="1243" y="364" on="0"/>
      </contour>
      <contour>
        <pt x="874" y="1171" on="1"/>
        <pt x="1142" y="1149" on="0"/>
        <pt x="1438" y="834" on="0"/>
        <pt x="1438" y="575" on="1"/>
        <pt x="1438" y="296" on="0"/>
        <pt x="1092" y="-20" on="0"/>
        <pt x="778" y="-20" on="1"/>
        <pt x="473" y="-20" on="0"/>
        <pt x="125" y="300" on="0"/>
        <pt x="125" y="575" on="1"/>
        <pt x="125" y="831" on="0"/>
        <pt x="427" y="1148" on="0"/>
        <pt x="690" y="1171" on="1"/>
        <pt x="690" y="1300" on="1"/>
        <pt x="193" y="1300" on="1"/>
        <pt x="193" y="1462" on="1"/>
        <pt x="1370" y="1462" on="1"/>
        <pt x="1370" y="1300" on="1"/>
        <pt x="874" y="1300" on="1"/>
      </contour>
    </TTGlyph>
    <TTGlyph name="uni10A4" xMin="82" yMin="0" xMax="1122" yMax="1483">
      <contour>
        <pt x="938" y="946" on="1"/>
        <pt x="938" y="1135" on="0"/>
        <pt x="767" y="1323" on="0"/>
        <pt x="606" y="1323" on="1"/>
        <pt x="440" y="1323" on="0"/>
        <pt x="266" y="1133" on="0"/>
        <pt x="266" y="948" on="1"/>
        <pt x="266" y="922" on="1"/>
        <pt x="82" y="922" on="1"/>
        <pt x="82" y="942" on="1"/>
        <pt x="82" y="1199" on="0"/>
        <pt x="357" y="1483" on="0"/>
        <pt x="608" y="1483" on="1"/>
        <pt x="855" y="1483" on="0"/>
        <pt x="1122" y="1205" on="0"/>
        <pt x="1122" y="946" on="1"/>
        <pt x="1122" y="0" on="1"/>
        <pt x="938" y="0" on="1"/>
      </contour>
    </TTGlyph>
    <TTGlyph name="uni10A5" xMin="82" yMin="0" xMax="1505" yMax="1483">
      <contour>
        <pt x="1122" y="0" on="1"/>
        <pt x="938" y="0" on="1"/>
        <pt x="938" y="946" on="1"/>
        <pt x="938" y="1323" on="0"/>
        <pt x="606" y="1323" on="1"/>
        <pt x="440" y="1323" on="0"/>
        <pt x="266" y="1133" on="0"/>
        <pt x="266" y="948" on="1"/>
        <pt x="266" y="922" on="1"/>
        <pt x="82" y="922" on="1"/>
        <pt x="82" y="942" on="1"/>
        <pt x="82" y="1199" on="0"/>
        <pt x="357" y="1483" on="0"/>
        <pt x="606" y="1483" on="1"/>
        <pt x="854" y="1483" on="0"/>
        <pt x="1122" y="1204" on="0"/>
        <pt x="1122" y="946" on="1"/>
        <pt x="1122" y="854" on="1"/>
        <pt x="1505" y="854" on="1"/>
        <pt x="1505" y="459" on="1"/>
        <pt x="1329" y="459" on="1"/>
        <pt x="1329" y="694" on="1"/>
        <pt x="1122" y="694" on="1"/>
      </contour>
    </TTGlyph>
    <TTGlyph name="uni10A6" xMin="20" yMin="-20" xMax="1409" yMax="1462">
      <contour>
        <pt x="850" y="139" on="1"/>
        <pt x="1024" y="139" on="0"/>
        <pt x="1219" y="355" on="0"/>
        <pt x="1219" y="551" on="1"/>
        <pt x="1219" y="745" on="0"/>
        <pt x="1036" y="958" on="0"/>
        <pt x="872" y="958" on="1"/>
        <pt x="694" y="958" on="0"/>
        <pt x="502" y="737" on="0"/>
        <pt x="502" y="547" on="1"/>
        <pt x="502" y="356" on="0"/>
        <pt x="685" y="139" on="0"/>
      </contour>
      <contour>
        <pt x="20" y="1303" on="1"/>
        <pt x="20" y="1462" on="1"/>
        <pt x="502" y="1462" on="1"/>
        <pt x="502" y="1085" on="1"/>
        <pt x="502" y="1059" on="0"/>
        <pt x="492" y="909" on="1"/>
        <pt x="504" y="909" on="1"/>
        <pt x="583" y="1023" on="0"/>
        <pt x="770" y="1118" on="0"/>
        <pt x="901" y="1118" on="1"/>
        <pt x="1056" y="1118" on="0"/>
        <pt x="1286" y="976" on="0"/>
        <pt x="1409" y="718" on="0"/>
        <pt x="1409" y="551" on="1"/>
        <pt x="1409" y="379" on="0"/>
        <pt x="1277" y="120" on="0"/>
        <pt x="1025" y="-20" on="0"/>
        <pt x="852" y="-20" on="1"/>
        <pt x="601" y="-20" on="0"/>
        <pt x="317" y="285" on="0"/>
        <pt x="317" y="547" on="1"/>
        <pt x="317" y="1303" on="1"/>
      </contour>
    </TTGlyph>
    <TTGlyph name="uni10A7" xMin="125" yMin="0" xMax="1679" yMax="1462">
      <contour>
        <pt x="1296" y="0" on="1"/>
        <pt x="846" y="0" on="1"/>
        <pt x="502" y="0" on="0"/>
        <pt x="125" y="379" on="0"/>
        <pt x="125" y="717" on="1"/>
        <pt x="125" y="1079" on="0"/>
        <pt x="520" y="1462" on="0"/>
        <pt x="889" y="1462" on="1"/>
        <pt x="1296" y="1462" on="1"/>
        <pt x="1296" y="854" on="1"/>
        <pt x="1679" y="854" on="1"/>
        <pt x="1679" y="459" on="1"/>
        <pt x="1503" y="459" on="1"/>
        <pt x="1503" y="694" on="1"/>
        <pt x="1296" y="694" on="1"/>
      </contour>
      <contour>
        <pt x="319" y="723" on="1"/>
        <pt x="319" y="443" on="0"/>
        <pt x="597" y="158" on="0"/>
        <pt x="872" y="158" on="1"/>
        <pt x="1112" y="158" on="1"/>
        <pt x="1112" y="1305" on="1"/>
        <pt x="913" y="1305" on="1"/>
        <pt x="617" y="1305" on="0"/>
        <pt x="319" y="1012" on="0"/>
      </contour>
    </TTGlyph>
    <TTGlyph name="uni10A8" xMin="20" yMin="0" xMax="797" yMax="1462">
      <contour>
        <pt x="797" y="0" on="1"/>
        <pt x="612" y="0" on="1"/>
        <pt x="612" y="1303" on="1"/>
        <pt x="20" y="1303" on="1"/>
        <pt x="20" y="1462" on="1"/>
        <pt x="797" y="1462" on="1"/>
      </contour>
    </TTGlyph>
    <TTGlyph name="uni10A9" xMin="164" yMin="0" xMax="1255" yMax="1462">
      <contour>
        <pt x="348" y="741" on="1"/>
        <pt x="348" y="565" on="0"/>
        <pt x="532" y="365" on="0"/>
        <pt x="698" y="365" on="1"/>
        <pt x="875" y="365" on="0"/>
        <pt x="1071" y="566" on="0"/>
        <pt x="1071" y="741" on="1"/>
        <pt x="1071" y="920" on="0"/>
        <pt x="886" y="1118" on="0"/>
        <pt x="721" y="1118" on="1"/>
        <pt x="544" y="1118" on="0"/>
        <pt x="348" y="917" on="0"/>
      </contour>
      <contour>
        <pt x="164" y="1462" on="1"/>
        <pt x="348" y="1462" on="1"/>
        <pt x="348" y="1245" on="1"/>
        <pt x="348" y="1219" on="0"/>
        <pt x="338" y="1069" on="1"/>
        <pt x="350" y="1069" on="1"/>
        <pt x="429" y="1183" on="0"/>
        <pt x="617" y="1278" on="0"/>
        <pt x="748" y="1278" on="1"/>
        <pt x="903" y="1278" on="0"/>
        <pt x="1134" y="1143" on="0"/>
        <pt x="1255" y="897" on="0"/>
        <pt x="1255" y="741" on="1"/>
        <pt x="1255" y="0" on="1"/>
        <pt x="1071" y="0" on="1"/>
        <pt x="1071" y="238" on="1"/>
        <pt x="1071" y="264" on="0"/>
        <pt x="1081" y="414" on="1"/>
        <pt x="1069" y="414" on="1"/>
        <pt x="990" y="300" on="0"/>
        <pt x="802" y="205" on="0"/>
        <pt x="672" y="205" on="1"/>
        <pt x="517" y="205" on="0"/>
        <pt x="286" y="339" on="0"/>
        <pt x="164" y="582" on="0"/>
        <pt x="164" y="741" on="1"/>
      </contour>
    </TTGlyph>
    <TTGlyph name="uni10AA" xMin="41" yMin="-20" xMax="1516" yMax="1462">
      <contour>
        <pt x="956" y="139" on="1"/>
        <pt x="1130" y="139" on="0"/>
        <pt x="1325" y="355" on="0"/>
        <pt x="1325" y="551" on="1"/>
        <pt x="1325" y="745" on="0"/>
        <pt x="1143" y="958" on="0"/>
        <pt x="979" y="958" on="1"/>
        <pt x="802" y="958" on="0"/>
        <pt x="608" y="739" on="0"/>
        <pt x="608" y="547" on="1"/>
        <pt x="608" y="356" on="0"/>
        <pt x="790" y="139" on="0"/>
      </contour>
      <contour>
        <pt x="608" y="1085" on="1"/>
        <pt x="608" y="1059" on="0"/>
        <pt x="598" y="909" on="1"/>
        <pt x="610" y="909" on="1"/>
        <pt x="689" y="1023" on="0"/>
        <pt x="877" y="1118" on="0"/>
        <pt x="1008" y="1118" on="1"/>
        <pt x="1163" y="1118" on="0"/>
        <pt x="1393" y="976" on="0"/>
        <pt x="1516" y="715" on="0"/>
        <pt x="1516" y="551" on="1"/>
        <pt x="1516" y="379" on="0"/>
        <pt x="1384" y="121" on="0"/>
        <pt x="1132" y="-20" on="0"/>
        <pt x="958" y="-20" on="1"/>
        <pt x="709" y="-20" on="0"/>
        <pt x="424" y="284" on="0"/>
        <pt x="424" y="547" on="1"/>
        <pt x="424" y="1303" on="1"/>
        <pt x="217" y="1303" on="1"/>
        <pt x="217" y="1067" on="1"/>
        <pt x="41" y="1067" on="1"/>
        <pt x="41" y="1462" on="1"/>
        <pt x="608" y="1462" on="1"/>
      </contour>
    </TTGlyph>
    <TTGlyph name="uni10AB" xMin="113" yMin="-20" xMax="1483" yMax="1462">
      <contour>
        <pt x="221" y="1303" on="1"/>
        <pt x="221" y="1462" on="1"/>
        <pt x="1100" y="1462" on="1"/>
        <pt x="1100" y="1018" on="1"/>
        <pt x="1483" y="1018" on="1"/>
        <pt x="1483" y="623" on="1"/>
        <pt x="1307" y="623" on="1"/>
        <pt x="1307" y="858" on="1"/>
        <pt x="1100" y="858" on="1"/>
        <pt x="1100" y="569" on="1"/>
        <pt x="1100" y="294" on="0"/>
        <pt x="844" y="-20" on="0"/>
        <pt x="612" y="-20" on="1"/>
        <pt x="379" y="-20" on="0"/>
        <pt x="113" y="259" on="0"/>
        <pt x="113" y="498" on="1"/>
        <pt x="113" y="653" on="0"/>
        <pt x="236" y="889" on="0"/>
        <pt x="470" y="1018" on="0"/>
        <pt x="631" y="1018" on="1"/>
        <pt x="915" y="1018" on="1"/>
        <pt x="915" y="1303" on="1"/>
      </contour>
      <contour>
        <pt x="621" y="858" on="1"/>
        <pt x="466" y="858" on="0"/>
        <pt x="295" y="667" on="0"/>
        <pt x="295" y="498" on="1"/>
        <pt x="295" y="327" on="0"/>
        <pt x="456" y="139" on="0"/>
        <pt x="602" y="139" on="1"/>
        <pt x="759" y="139" on="0"/>
        <pt x="915" y="359" on="0"/>
        <pt x="915" y="557" on="1"/>
        <pt x="915" y="858" on="1"/>
      </contour>
    </TTGlyph>
    <TTGlyph name="uni10AC" xMin="201" yMin="0" xMax="1284" yMax="1462">
      <contour>
        <pt x="201" y="1462" on="1"/>
        <pt x="1206" y="1462" on="1"/>
        <pt x="1206" y="1303" on="1"/>
        <pt x="385" y="1303" on="1"/>
        <pt x="385" y="967" on="1"/>
        <pt x="385" y="941" on="0"/>
        <pt x="375" y="791" on="1"/>
        <pt x="387" y="791" on="1"/>
        <pt x="461" y="898" on="0"/>
        <pt x="665" y="999" on="0"/>
        <pt x="801" y="999" on="1"/>
        <pt x="1034" y="999" on="0"/>
        <pt x="1284" y="733" on="0"/>
        <pt x="1284" y="469" on="1"/>
        <pt x="1284" y="0" on="1"/>
        <pt x="1100" y="0" on="1"/>
        <pt x="1100" y="471" on="1"/>
        <pt x="1100" y="658" on="0"/>
        <pt x="933" y="840" on="0"/>
        <pt x="766" y="840" on="1"/>
        <pt x="587" y="840" on="0"/>
        <pt x="385" y="631" on="0"/>
        <pt x="385" y="451" on="1"/>
        <pt x="385" y="0" on="1"/>
        <pt x="201" y="0" on="1"/>
      </contour>
    </TTGlyph>
    <TTGlyph name="uni10AD" xMin="125" yMin="-348" xMax="1475" yMax="1485">
      <contour>
        <pt x="1475" y="733" on="1"/>
        <pt x="1475" y="334" on="0"/>
        <pt x="1251" y="133" on="1"/>
        <pt x="1214" y="101" on="0"/>
        <pt x="1180" y="29" on="0"/>
        <pt x="1180" y="-35" on="1"/>
        <pt x="1180" y="-106" on="0"/>
        <pt x="1260" y="-188" on="0"/>
        <pt x="1337" y="-188" on="1"/>
        <pt x="1395" y="-188" on="0"/>
        <pt x="1423" y="-178" on="1"/>
        <pt x="1423" y="-340" on="1"/>
        <pt x="1375" y="-348" on="0"/>
        <pt x="1321" y="-348" on="1"/>
        <pt x="1176" y="-348" on="0"/>
        <pt x="999" y="-195" on="0"/>
        <pt x="999" y="-70" on="1"/>
        <pt x="999" y="-41" on="0"/>
        <pt x="1008" y="4" on="1"/>
        <pt x="903" y="-20" on="0"/>
        <pt x="801" y="-20" on="1"/>
        <pt x="478" y="-20" on="0"/>
        <pt x="125" y="375" on="0"/>
        <pt x="125" y="735" on="1"/>
        <pt x="125" y="1092" on="0"/>
        <pt x="476" y="1485" on="0"/>
        <pt x="803" y="1485" on="1"/>
        <pt x="1121" y="1485" on="0"/>
        <pt x="1475" y="1086" on="0"/>
      </contour>
      <contour>
        <pt x="319" y="733" on="1"/>
        <pt x="319" y="443" on="0"/>
        <pt x="565" y="139" on="0"/>
        <pt x="801" y="139" on="1"/>
        <pt x="1036" y="139" on="0"/>
        <pt x="1280" y="439" on="0"/>
        <pt x="1280" y="733" on="1"/>
        <pt x="1280" y="1026" on="0"/>
        <pt x="1038" y="1323" on="0"/>
        <pt x="803" y="1323" on="1"/>
        <pt x="565" y="1323" on="0"/>
        <pt x="319" y="1022" on="0"/>
      </contour>
    </TTGlyph>
    <TTGlyph name="uni10AE" xMin="41" yMin="-20" xMax="1475" yMax="1462">
      <contour>
        <pt x="348" y="1303" on="1"/>
        <pt x="41" y="1303" on="1"/>
        <pt x="41" y="1462" on="1"/>
        <pt x="530" y="1462" on="1"/>
        <pt x="530" y="516" on="1"/>
        <pt x="530" y="336" on="0"/>
        <pt x="724" y="139" on="0"/>
        <pt x="907" y="139" on="1"/>
        <pt x="1099" y="139" on="0"/>
        <pt x="1290" y="335" on="0"/>
        <pt x="1290" y="514" on="1"/>
        <pt x="1290" y="1462" on="1"/>
        <pt x="1475" y="1462" on="1"/>
        <pt x="1475" y="520" on="1"/>
        <pt x="1475" y="268" on="0"/>
        <pt x="1183" y="-20" on="0"/>
        <pt x="918" y="-20" on="1"/>
        <pt x="650" y="-20" on="0"/>
        <pt x="348" y="265" on="0"/>
        <pt x="348" y="516" on="1"/>
      </contour>
    </TTGlyph>
    <TTGlyph name="uni10AF" xMin="41" yMin="0" xMax="1313" yMax="1462">
      <contour>
        <pt x="238" y="963" on="1"/>
        <pt x="238" y="1130" on="0"/>
        <pt x="307" y="1303" on="1"/>
        <pt x="41" y="1303" on="1"/>
        <pt x="41" y="1462" on="1"/>
        <pt x="604" y="1462" on="1"/>
        <pt x="531" y="1378" on="0"/>
        <pt x="432" y="1101" on="0"/>
        <pt x="432" y="961" on="1"/>
        <pt x="432" y="600" on="0"/>
        <pt x="745" y="600" on="1"/>
        <pt x="942" y="600" on="0"/>
        <pt x="1128" y="809" on="0"/>
        <pt x="1128" y="1038" on="1"/>
        <pt x="1128" y="1462" on="1"/>
        <pt x="1313" y="1462" on="1"/>
        <pt x="1313" y="0" on="1"/>
        <pt x="1126" y="0" on="1"/>
        <pt x="1126" y="496" on="1"/>
        <pt x="1126" y="538" on="0"/>
        <pt x="1134" y="604" on="0"/>
        <pt x="1137" y="639" on="1"/>
        <pt x="1126" y="639" on="1"/>
        <pt x="1066" y="550" on="0"/>
        <pt x="840" y="440" on="0"/>
        <pt x="709" y="440" on="1"/>
        <pt x="484" y="440" on="0"/>
        <pt x="238" y="713" on="0"/>
      </contour>
    </TTGlyph>
    <TTGlyph name="uni10B0" xMin="82" yMin="-20" xMax="1505" yMax="1462">
      <contour>
        <pt x="1122" y="516" on="1"/>
        <pt x="1122" y="262" on="0"/>
        <pt x="853" y="-20" on="0"/>
        <pt x="608" y="-20" on="1"/>
        <pt x="357" y="-20" on="0"/>
        <pt x="82" y="264" on="0"/>
        <pt x="82" y="520" on="1"/>
        <pt x="82" y="541" on="1"/>
        <pt x="266" y="541" on="1"/>
        <pt x="266" y="514" on="1"/>
        <pt x="266" y="335" on="0"/>
        <pt x="436" y="139" on="0"/>
        <pt x="606" y="139" on="1"/>
        <pt x="938" y="139" on="0"/>
        <pt x="938" y="516" on="1"/>
        <pt x="938" y="1462" on="1"/>
        <pt x="1122" y="1462" on="1"/>
        <pt x="1122" y="854" on="1"/>
        <pt x="1505" y="854" on="1"/>
        <pt x="1505" y="459" on="1"/>
        <pt x="1329" y="459" on="1"/>
        <pt x="1329" y="694" on="1"/>
        <pt x="1122" y="694" on="1"/>
      </contour>
    </TTGlyph>
    <TTGlyph name="uni10B1" xMin="184" yMin="-20" xMax="1225" yMax="1462">
      <contour>
        <pt x="369" y="516" on="1"/>
        <pt x="369" y="139" on="0"/>
        <pt x="700" y="139" on="1"/>
        <pt x="871" y="139" on="0"/>
        <pt x="1040" y="335" on="0"/>
        <pt x="1040" y="514" on="1"/>
        <pt x="1040" y="541" on="1"/>
        <pt x="1225" y="541" on="1"/>
        <pt x="1225" y="520" on="1"/>
        <pt x="1225" y="267" on="0"/>
        <pt x="951" y="-20" on="0"/>
        <pt x="698" y="-20" on="1"/>
        <pt x="448" y="-20" on="0"/>
        <pt x="184" y="254" on="0"/>
        <pt x="184" y="516" on="1"/>
        <pt x="184" y="1462" on="1"/>
        <pt x="369" y="1462" on="1"/>
      </contour>
    </TTGlyph>
    <TTGlyph name="uni10B2" xMin="199" yMin="0" xMax="1135" yMax="1462">
      <contour>
        <pt x="1077" y="160" on="1"/>
        <pt x="1077" y="0" on="1"/>
        <pt x="199" y="0" on="1"/>
        <pt x="199" y="1462" on="1"/>
        <pt x="586" y="1462" on="1"/>
        <pt x="1135" y="1462" on="0"/>
        <pt x="1135" y="1032" on="1"/>
        <pt x="1135" y="808" on="0"/>
        <pt x="829" y="569" on="0"/>
        <pt x="551" y="569" on="1"/>
        <pt x="383" y="569" on="1"/>
        <pt x="383" y="160" on="1"/>
      </contour>
      <contour>
        <pt x="383" y="727" on="1"/>
        <pt x="530" y="727" on="1"/>
        <pt x="748" y="727" on="0"/>
        <pt x="944" y="868" on="0"/>
        <pt x="944" y="1024" on="1"/>
        <pt x="944" y="1165" on="0"/>
        <pt x="762" y="1305" on="0"/>
        <pt x="569" y="1305" on="1"/>
        <pt x="383" y="1305" on="1"/>
      </contour>
    </TTGlyph>
    <TTGlyph name="uni10B3" xMin="125" yMin="-348" xMax="1536" yMax="1485">
      <contour>
        <pt x="1475" y="733" on="1"/>
        <pt x="1475" y="447" on="0"/>
        <pt x="1352" y="254" on="1"/>
        <pt x="1438" y="223" on="0"/>
        <pt x="1536" y="75" on="0"/>
        <pt x="1536" y="-35" on="1"/>
        <pt x="1536" y="-176" on="0"/>
        <pt x="1352" y="-348" on="0"/>
        <pt x="1198" y="-348" on="1"/>
        <pt x="1163" y="-348" on="0"/>
        <pt x="1112" y="-340" on="1"/>
        <pt x="1112" y="-180" on="1"/>
        <pt x="1149" y="-188" on="0"/>
        <pt x="1198" y="-188" on="1"/>
        <pt x="1275" y="-188" on="0"/>
        <pt x="1356" y="-106" on="0"/>
        <pt x="1356" y="-35" on="1"/>
        <pt x="1356" y="24" on="0"/>
        <pt x="1294" y="107" on="0"/>
        <pt x="1235" y="121" on="1"/>
        <pt x="1061" y="-20" on="0"/>
        <pt x="801" y="-20" on="1"/>
        <pt x="478" y="-20" on="0"/>
        <pt x="125" y="375" on="0"/>
        <pt x="125" y="735" on="1"/>
        <pt x="125" y="1092" on="0"/>
        <pt x="476" y="1485" on="0"/>
        <pt x="803" y="1485" on="1"/>
        <pt x="1121" y="1485" on="0"/>
        <pt x="1475" y="1086" on="0"/>
      </contour>
      <contour>
        <pt x="319" y="733" on="1"/>
        <pt x="319" y="443" on="0"/>
        <pt x="565" y="139" on="0"/>
        <pt x="801" y="139" on="1"/>
        <pt x="1036" y="139" on="0"/>
        <pt x="1280" y="439" on="0"/>
        <pt x="1280" y="733" on="1"/>
        <pt x="1280" y="1026" on="0"/>
        <pt x="1038" y="1323" on="0"/>
        <pt x="803" y="1323" on="1"/>
        <pt x="565" y="1323" on="0"/>
        <pt x="319" y="1022" on="0"/>
      </contour>
    </TTGlyph>
    <TTGlyph name="uni10B4" xMin="104" yMin="0" xMax="1540" yMax="1483">
      <contour>
        <pt x="827" y="1483" on="1"/>
        <pt x="1178" y="1483" on="0"/>
        <pt x="1540" y="1198" on="0"/>
        <pt x="1540" y="918" on="1"/>
        <pt x="1540" y="748" on="0"/>
        <pt x="1385" y="494" on="0"/>
        <pt x="1106" y="365" on="0"/>
        <pt x="913" y="365" on="1"/>
        <pt x="913" y="0" on="1"/>
        <pt x="731" y="0" on="1"/>
        <pt x="731" y="365" on="1"/>
        <pt x="539" y="365" on="0"/>
        <pt x="261" y="494" on="0"/>
        <pt x="104" y="751" on="0"/>
        <pt x="104" y="918" on="1"/>
        <pt x="104" y="1192" on="0"/>
        <pt x="479" y="1483" on="0"/>
      </contour>
      <contour>
        <pt x="913" y="516" on="1"/>
        <pt x="1123" y="516" on="0"/>
        <pt x="1354" y="726" on="0"/>
        <pt x="1354" y="920" on="1"/>
        <pt x="1354" y="1111" on="0"/>
        <pt x="1125" y="1322" on="0"/>
        <pt x="913" y="1327" on="1"/>
      </contour>
      <contour>
        <pt x="731" y="1327" on="1"/>
        <pt x="520" y="1322" on="0"/>
        <pt x="291" y="1108" on="0"/>
        <pt x="291" y="920" on="1"/>
        <pt x="291" y="726" on="0"/>
        <pt x="519" y="516" on="0"/>
        <pt x="731" y="516" on="1"/>
      </contour>
    </TTGlyph>
    <TTGlyph name="uni10B5" xMin="41" yMin="0" xMax="1219" yMax="1462">
      <contour>
        <pt x="539" y="1053" on="1"/>
        <pt x="539" y="1462" on="1"/>
        <pt x="723" y="1462" on="1"/>
        <pt x="723" y="1053" on="1"/>
        <pt x="1219" y="1053" on="1"/>
        <pt x="1219" y="657" on="1"/>
        <pt x="1042" y="657" on="1"/>
        <pt x="1042" y="893" on="1"/>
        <pt x="723" y="893" on="1"/>
        <pt x="723" y="0" on="1"/>
        <pt x="539" y="0" on="1"/>
        <pt x="539" y="893" on="1"/>
        <pt x="41" y="893" on="1"/>
        <pt x="41" y="1288" on="1"/>
        <pt x="217" y="1288" on="1"/>
        <pt x="217" y="1053" on="1"/>
      </contour>
    </TTGlyph>
    <TTGlyph name="uni10B6" xMin="184" yMin="0" xMax="1311" yMax="1483">
      <contour>
        <pt x="184" y="0" on="1"/>
        <pt x="184" y="946" on="1"/>
        <pt x="184" y="1197" on="0"/>
        <pt x="487" y="1483" on="0"/>
        <pt x="754" y="1483" on="1"/>
        <pt x="1019" y="1483" on="0"/>
        <pt x="1311" y="1194" on="0"/>
        <pt x="1311" y="942" on="1"/>
        <pt x="1311" y="0" on="1"/>
        <pt x="1126" y="0" on="1"/>
        <pt x="1126" y="948" on="1"/>
        <pt x="1126" y="1130" on="0"/>
        <pt x="933" y="1323" on="0"/>
        <pt x="743" y="1323" on="1"/>
        <pt x="562" y="1323" on="0"/>
        <pt x="367" y="1129" on="0"/>
        <pt x="367" y="946" on="1"/>
        <pt x="367" y="0" on="1"/>
      </contour>
    </TTGlyph>
    <TTGlyph name="uni10B7" xMin="164" yMin="0" xMax="1247" yMax="1462">
      <contour>
        <pt x="1061" y="672" on="1"/>
        <pt x="919" y="463" on="0"/>
        <pt x="647" y="463" on="1"/>
        <pt x="414" y="463" on="0"/>
        <pt x="164" y="730" on="0"/>
        <pt x="164" y="993" on="1"/>
        <pt x="164" y="1462" on="1"/>
        <pt x="348" y="1462" on="1"/>
        <pt x="348" y="991" on="1"/>
        <pt x="348" y="800" on="0"/>
        <pt x="508" y="623" on="0"/>
        <pt x="682" y="623" on="1"/>
        <pt x="859" y="623" on="0"/>
        <pt x="1063" y="828" on="0"/>
        <pt x="1063" y="1012" on="1"/>
        <pt x="1063" y="1462" on="1"/>
        <pt x="1247" y="1462" on="1"/>
        <pt x="1247" y="0" on="1"/>
        <pt x="1063" y="0" on="1"/>
        <pt x="1063" y="496" on="1"/>
        <pt x="1063" y="522" on="0"/>
        <pt x="1073" y="672" on="1"/>
      </contour>
    </TTGlyph>
    <TTGlyph name="uni10B8" xMin="184" yMin="-20" xMax="1268" yMax="1462">
      <contour>
        <pt x="1268" y="516" on="1"/>
        <pt x="1268" y="263" on="0"/>
        <pt x="984" y="-20" on="0"/>
        <pt x="733" y="-20" on="1"/>
        <pt x="471" y="-20" on="0"/>
        <pt x="184" y="267" on="0"/>
        <pt x="184" y="520" on="1"/>
        <pt x="184" y="541" on="1"/>
        <pt x="369" y="541" on="1"/>
        <pt x="369" y="514" on="1"/>
        <pt x="369" y="335" on="0"/>
        <pt x="549" y="139" on="0"/>
        <pt x="731" y="139" on="1"/>
        <pt x="902" y="139" on="0"/>
        <pt x="1083" y="333" on="0"/>
        <pt x="1083" y="516" on="1"/>
        <pt x="1083" y="639" on="1"/>
        <pt x="1083" y="684" on="0"/>
        <pt x="1091" y="770" on="0"/>
        <pt x="1094" y="815" on="1"/>
        <pt x="1081" y="815" on="1"/>
        <pt x="1006" y="706" on="0"/>
        <pt x="802" y="606" on="0"/>
        <pt x="668" y="606" on="1"/>
        <pt x="439" y="606" on="0"/>
        <pt x="184" y="885" on="0"/>
        <pt x="184" y="1137" on="1"/>
        <pt x="184" y="1462" on="1"/>
        <pt x="369" y="1462" on="1"/>
        <pt x="369" y="1135" on="1"/>
        <pt x="369" y="766" on="0"/>
        <pt x="702" y="766" on="1"/>
        <pt x="881" y="766" on="0"/>
        <pt x="1083" y="975" on="0"/>
        <pt x="1083" y="1155" on="1"/>
        <pt x="1083" y="1462" on="1"/>
        <pt x="1268" y="1462" on="1"/>
      </contour>
    </TTGlyph>
    <TTGlyph name="uni10B9" xMin="201" yMin="0" xMax="1284" yMax="1462">
      <contour>
        <pt x="387" y="791" on="1"/>
        <pt x="461" y="898" on="0"/>
        <pt x="665" y="999" on="0"/>
        <pt x="801" y="999" on="1"/>
        <pt x="1035" y="999" on="0"/>
        <pt x="1284" y="726" on="0"/>
        <pt x="1284" y="469" on="1"/>
        <pt x="1284" y="0" on="1"/>
        <pt x="1100" y="0" on="1"/>
        <pt x="1100" y="471" on="1"/>
        <pt x="1100" y="661" on="0"/>
        <pt x="939" y="840" on="0"/>
        <pt x="766" y="840" on="1"/>
        <pt x="587" y="840" on="0"/>
        <pt x="385" y="631" on="0"/>
        <pt x="385" y="451" on="1"/>
        <pt x="385" y="0" on="1"/>
        <pt x="201" y="0" on="1"/>
        <pt x="201" y="1462" on="1"/>
        <pt x="385" y="1462" on="1"/>
        <pt x="385" y="967" on="1"/>
        <pt x="385" y="941" on="0"/>
        <pt x="375" y="791" on="1"/>
      </contour>
    </TTGlyph>
    <TTGlyph name="uni10BA" xMin="125" yMin="-20" xMax="1309" yMax="1483">
      <contour>
        <pt x="825" y="1321" on="1"/>
        <pt x="589" y="1321" on="0"/>
        <pt x="319" y="1005" on="0"/>
        <pt x="319" y="731" on="1"/>
        <pt x="319" y="456" on="0"/>
        <pt x="560" y="141" on="0"/>
        <pt x="768" y="141" on="1"/>
        <pt x="950" y="141" on="0"/>
        <pt x="1124" y="233" on="1"/>
        <pt x="1124" y="608" on="1"/>
        <pt x="1309" y="608" on="1"/>
        <pt x="1309" y="0" on="1"/>
        <pt x="1124" y="0" on="1"/>
        <pt x="1124" y="72" on="1"/>
        <pt x="951" y="-20" on="0"/>
        <pt x="739" y="-20" on="1"/>
        <pt x="451" y="-20" on="0"/>
        <pt x="125" y="382" on="0"/>
        <pt x="125" y="733" on="1"/>
        <pt x="125" y="959" on="0"/>
        <pt x="292" y="1299" on="0"/>
        <pt x="611" y="1483" on="0"/>
        <pt x="827" y="1483" on="1"/>
        <pt x="1059" y="1483" on="0"/>
        <pt x="1231" y="1397" on="1"/>
        <pt x="1157" y="1241" on="1"/>
        <pt x="982" y="1321" on="0"/>
      </contour>
    </TTGlyph>
    <TTGlyph name="uni10BB" xMin="113" yMin="-20" xMax="1483" yMax="1462">
      <contour>
        <pt x="1307" y="858" on="1"/>
        <pt x="1100" y="858" on="1"/>
        <pt x="1100" y="569" on="1"/>
        <pt x="1100" y="294" on="0"/>
        <pt x="844" y="-20" on="0"/>
        <pt x="612" y="-20" on="1"/>
        <pt x="379" y="-20" on="0"/>
        <pt x="113" y="259" on="0"/>
        <pt x="113" y="498" on="1"/>
        <pt x="113" y="743" on="0"/>
        <pt x="384" y="1018" on="0"/>
        <pt x="631" y="1018" on="1"/>
        <pt x="915" y="1018" on="1"/>
        <pt x="915" y="1462" on="1"/>
        <pt x="1100" y="1462" on="1"/>
        <pt x="1100" y="1018" on="1"/>
        <pt x="1483" y="1018" on="1"/>
        <pt x="1483" y="623" on="1"/>
        <pt x="1307" y="623" on="1"/>
      </contour>
      <contour>
        <pt x="637" y="858" on="1"/>
        <pt x="465" y="858" on="0"/>
        <pt x="295" y="682" on="0"/>
        <pt x="295" y="498" on="1"/>
        <pt x="295" y="327" on="0"/>
        <pt x="456" y="139" on="0"/>
        <pt x="602" y="139" on="1"/>
        <pt x="759" y="139" on="0"/>
        <pt x="915" y="359" on="0"/>
        <pt x="915" y="557" on="1"/>
        <pt x="915" y="858" on="1"/>
      </contour>
    </TTGlyph>
    <TTGlyph name="uni10BC" xMin="199" yMin="0" xMax="1135" yMax="1462">
      <contour>
        <pt x="1135" y="1047" on="1"/>
        <pt x="1135" y="831" on="0"/>
        <pt x="833" y="598" on="0"/>
        <pt x="551" y="598" on="1"/>
        <pt x="383" y="598" on="1"/>
        <pt x="383" y="426" on="1"/>
        <pt x="807" y="426" on="1"/>
        <pt x="807" y="61" on="1"/>
        <pt x="631" y="61" on="1"/>
        <pt x="631" y="268" on="1"/>
        <pt x="383" y="268" on="1"/>
        <pt x="383" y="0" on="1"/>
        <pt x="199" y="0" on="1"/>
        <pt x="199" y="1462" on="1"/>
        <pt x="586" y="1462" on="1"/>
        <pt x="1135" y="1462" on="0"/>
      </contour>
      <contour>
        <pt x="383" y="756" on="1"/>
        <pt x="530" y="756" on="1"/>
        <pt x="747" y="756" on="0"/>
        <pt x="944" y="890" on="0"/>
        <pt x="944" y="1038" on="1"/>
        <pt x="944" y="1172" on="0"/>
        <pt x="762" y="1305" on="0"/>
        <pt x="569" y="1305" on="1"/>
        <pt x="383" y="1305" on="1"/>
      </contour>
    </TTGlyph>
    <TTGlyph name="uni10BD" xMin="74" yMin="-20" xMax="1061" yMax="1483">
      <contour>
        <pt x="618" y="1321" on="1"/>
        <pt x="488" y="1321" on="0"/>
        <pt x="342" y="1208" on="0"/>
        <pt x="342" y="1108" on="1"/>
        <pt x="342" y="1036" on="0"/>
        <pt x="399" y="941" on="0"/>
        <pt x="526" y="863" on="0"/>
        <pt x="662" y="813" on="1"/>
        <pt x="825" y="753" on="0"/>
        <pt x="985" y="640" on="0"/>
        <pt x="1061" y="493" on="0"/>
        <pt x="1061" y="391" on="1"/>
        <pt x="1061" y="199" on="0"/>
        <pt x="786" y="-20" on="0"/>
        <pt x="543" y="-20" on="1"/>
        <pt x="322" y="-20" on="0"/>
        <pt x="74" y="185" on="0"/>
        <pt x="74" y="367" on="1"/>
        <pt x="74" y="428" on="0"/>
        <pt x="94" y="479" on="1"/>
        <pt x="283" y="479" on="1"/>
        <pt x="258" y="433" on="0"/>
        <pt x="258" y="381" on="1"/>
        <pt x="258" y="265" on="0"/>
        <pt x="402" y="139" on="0"/>
        <pt x="545" y="139" on="1"/>
        <pt x="709" y="139" on="0"/>
        <pt x="877" y="265" on="0"/>
        <pt x="877" y="375" on="1"/>
        <pt x="877" y="448" on="0"/>
        <pt x="817" y="541" on="0"/>
        <pt x="678" y="623" on="0"/>
        <pt x="532" y="676" on="1"/>
        <pt x="329" y="750" on="0"/>
        <pt x="156" y="951" on="0"/>
        <pt x="156" y="1110" on="1"/>
        <pt x="156" y="1281" on="0"/>
        <pt x="413" y="1483" on="0"/>
        <pt x="623" y="1483" on="1"/>
        <pt x="813" y="1483" on="0"/>
        <pt x="1026" y="1294" on="0"/>
        <pt x="1026" y="1130" on="1"/>
        <pt x="1022" y="1081" on="1"/>
        <pt x="838" y="1081" on="1"/>
        <pt x="842" y="1128" on="1"/>
        <pt x="842" y="1218" on="0"/>
        <pt x="721" y="1321" on="0"/>
      </contour>
    </TTGlyph>
    <TTGlyph name="uni10BE" xMin="201" yMin="0" xMax="1284" yMax="1462">
      <contour>
        <pt x="201" y="1462" on="1"/>
        <pt x="385" y="1462" on="1"/>
        <pt x="385" y="1012" on="1"/>
        <pt x="385" y="833" on="0"/>
        <pt x="586" y="623" on="0"/>
        <pt x="766" y="623" on="1"/>
        <pt x="937" y="623" on="0"/>
        <pt x="1100" y="801" on="0"/>
        <pt x="1100" y="991" on="1"/>
        <pt x="1100" y="1462" on="1"/>
        <pt x="1284" y="1462" on="1"/>
        <pt x="1284" y="993" on="1"/>
        <pt x="1284" y="731" on="0"/>
        <pt x="1027" y="463" on="0"/>
        <pt x="774" y="463" on="1"/>
        <pt x="643" y="463" on="0"/>
        <pt x="456" y="565" on="0"/>
        <pt x="387" y="672" on="1"/>
        <pt x="375" y="672" on="1"/>
        <pt x="385" y="522" on="0"/>
        <pt x="385" y="496" on="1"/>
        <pt x="385" y="160" on="1"/>
        <pt x="1206" y="160" on="1"/>
        <pt x="1206" y="0" on="1"/>
        <pt x="201" y="0" on="1"/>
      </contour>
    </TTGlyph>
    <TTGlyph name="uni10BF" xMin="31" yMin="0" xMax="1182" yMax="1462">
      <contour>
        <pt x="31" y="1462" on="1"/>
        <pt x="1182" y="1462" on="1"/>
        <pt x="1182" y="1321" on="1"/>
        <pt x="797" y="760" on="1"/>
        <pt x="1169" y="205" on="1"/>
        <pt x="965" y="205" on="1"/>
        <pt x="688" y="629" on="1"/>
        <pt x="268" y="0" on="1"/>
        <pt x="74" y="0" on="1"/>
        <pt x="586" y="756" on="1"/>
        <pt x="227" y="1303" on="1"/>
        <pt x="31" y="1303" on="1"/>
      </contour>
      <contour>
        <pt x="694" y="883" on="1"/>
        <pt x="979" y="1303" on="1"/>
        <pt x="428" y="1303" on="1"/>
      </contour>
    </TTGlyph>
    <TTGlyph name="uni10C0" xMin="41" yMin="-20" xMax="1464" yMax="1462">
      <contour>
        <pt x="424" y="1303" on="1"/>
        <pt x="217" y="1303" on="1"/>
        <pt x="217" y="1067" on="1"/>
        <pt x="41" y="1067" on="1"/>
        <pt x="41" y="1462" on="1"/>
        <pt x="608" y="1462" on="1"/>
        <pt x="608" y="516" on="1"/>
        <pt x="608" y="139" on="0"/>
        <pt x="940" y="139" on="1"/>
        <pt x="1110" y="139" on="0"/>
        <pt x="1280" y="335" on="0"/>
        <pt x="1280" y="514" on="1"/>
        <pt x="1280" y="541" on="1"/>
        <pt x="1464" y="541" on="1"/>
        <pt x="1464" y="520" on="1"/>
        <pt x="1464" y="267" on="0"/>
        <pt x="1190" y="-20" on="0"/>
        <pt x="938" y="-20" on="1"/>
        <pt x="689" y="-20" on="0"/>
        <pt x="424" y="258" on="0"/>
        <pt x="424" y="516" on="1"/>
      </contour>
    </TTGlyph>
    <TTGlyph name="uni10C1" xMin="199" yMin="0" xMax="1378" yMax="1462">
      <contour>
        <pt x="383" y="1090" on="1"/>
        <pt x="380" y="1016" on="1"/>
        <pt x="375" y="946" on="1"/>
        <pt x="385" y="946" on="1"/>
        <pt x="512" y="1118" on="0"/>
        <pt x="731" y="1118" on="1"/>
        <pt x="932" y="1118" on="0"/>
        <pt x="1145" y="890" on="0"/>
        <pt x="1145" y="676" on="1"/>
        <pt x="1378" y="676" on="1"/>
        <pt x="1378" y="516" on="1"/>
        <pt x="961" y="516" on="1"/>
        <pt x="961" y="680" on="1"/>
        <pt x="961" y="817" on="0"/>
        <pt x="841" y="958" on="0"/>
        <pt x="707" y="958" on="1"/>
        <pt x="383" y="958" on="0"/>
        <pt x="383" y="586" on="1"/>
        <pt x="383" y="0" on="1"/>
        <pt x="199" y="0" on="1"/>
        <pt x="199" y="1462" on="1"/>
        <pt x="383" y="1462" on="1"/>
      </contour>
    </TTGlyph>
    <TTGlyph name="uni10C2" xMin="121" yMin="-20" xMax="1169" yMax="1462">
      <contour>
        <pt x="199" y="1462" on="1"/>
        <pt x="375" y="1462" on="1"/>
        <pt x="375" y="1300" on="1"/>
        <pt x="498" y="1300" on="1"/>
        <pt x="822" y="1300" on="0"/>
        <pt x="1169" y="953" on="0"/>
        <pt x="1169" y="639" on="1"/>
        <pt x="1169" y="442" on="0"/>
        <pt x="1008" y="144" on="0"/>
        <pt x="702" y="-20" on="0"/>
        <pt x="498" y="-20" on="1"/>
        <pt x="385" y="-20" on="0"/>
        <pt x="208" y="6" on="0"/>
        <pt x="121" y="39" on="1"/>
        <pt x="121" y="199" on="1"/>
        <pt x="314" y="141" on="0"/>
        <pt x="469" y="141" on="1"/>
        <pt x="704" y="141" on="0"/>
        <pt x="975" y="409" on="0"/>
        <pt x="975" y="639" on="1"/>
        <pt x="975" y="877" on="0"/>
        <pt x="712" y="1139" on="0"/>
        <pt x="469" y="1139" on="1"/>
        <pt x="199" y="1139" on="1"/>
      </contour>
    </TTGlyph>
    <TTGlyph name="uni10C3" xMin="117" yMin="0" xMax="1192" yMax="1462">
      <contour>
        <pt x="117" y="895" on="1"/>
        <pt x="117" y="979" on="0"/>
        <pt x="170" y="1181" on="0"/>
        <pt x="211" y="1251" on="1"/>
        <pt x="406" y="1251" on="1"/>
        <pt x="363" y="1185" on="0"/>
        <pt x="311" y="995" on="0"/>
        <pt x="311" y="911" on="1"/>
        <pt x="311" y="752" on="0"/>
        <pt x="457" y="600" on="0"/>
        <pt x="606" y="600" on="1"/>
        <pt x="813" y="600" on="0"/>
        <pt x="1008" y="804" on="0"/>
        <pt x="1008" y="1038" on="1"/>
        <pt x="1008" y="1462" on="1"/>
        <pt x="1192" y="1462" on="1"/>
        <pt x="1192" y="0" on="1"/>
        <pt x="1006" y="0" on="1"/>
        <pt x="1006" y="496" on="1"/>
        <pt x="1006" y="522" on="0"/>
        <pt x="1016" y="639" on="1"/>
        <pt x="1006" y="639" on="1"/>
        <pt x="946" y="549" on="0"/>
        <pt x="718" y="440" on="0"/>
        <pt x="588" y="440" on="1"/>
        <pt x="353" y="440" on="0"/>
        <pt x="117" y="674" on="0"/>
      </contour>
    </TTGlyph>
    <TTGlyph name="uni10C4" xMin="154" yMin="0" xMax="1280" yMax="1462">
      <contour>
        <pt x="625" y="496" on="1"/>
        <pt x="398" y="520" on="0"/>
        <pt x="154" y="801" on="0"/>
        <pt x="154" y="1032" on="1"/>
        <pt x="154" y="1462" on="1"/>
        <pt x="338" y="1462" on="1"/>
        <pt x="338" y="1026" on="1"/>
        <pt x="338" y="847" on="0"/>
        <pt x="529" y="651" on="0"/>
        <pt x="721" y="651" on="1"/>
        <pt x="904" y="651" on="0"/>
        <pt x="1098" y="847" on="0"/>
        <pt x="1098" y="1028" on="1"/>
        <pt x="1098" y="1462" on="1"/>
        <pt x="1280" y="1462" on="1"/>
        <pt x="1280" y="1028" on="1"/>
        <pt x="1280" y="803" on="0"/>
        <pt x="1034" y="525" on="0"/>
        <pt x="809" y="498" on="1"/>
        <pt x="809" y="0" on="1"/>
        <pt x="625" y="0" on="1"/>
      </contour>
    </TTGlyph>
    <TTGlyph name="uni10C5" xMin="102" yMin="-20" xMax="1620" yMax="1483">
      <contour>
        <pt x="868" y="950" on="1"/>
        <pt x="1133" y="950" on="1"/>
        <pt x="1282" y="950" on="0"/>
        <pt x="1425" y="1040" on="0"/>
        <pt x="1425" y="1133" on="1"/>
        <pt x="1425" y="1224" on="0"/>
        <pt x="1287" y="1323" on="0"/>
        <pt x="1145" y="1323" on="1"/>
        <pt x="1009" y="1323" on="0"/>
        <pt x="868" y="1193" on="0"/>
        <pt x="868" y="1067" on="1"/>
      </contour>
      <contour>
        <pt x="684" y="1061" on="1"/>
        <pt x="684" y="1257" on="0"/>
        <pt x="935" y="1483" on="0"/>
        <pt x="1153" y="1483" on="1"/>
        <pt x="1374" y="1483" on="0"/>
        <pt x="1620" y="1298" on="0"/>
        <pt x="1620" y="1130" on="1"/>
        <pt x="1620" y="966" on="0"/>
        <pt x="1372" y="791" on="0"/>
        <pt x="1147" y="791" on="1"/>
        <pt x="868" y="791" on="1"/>
        <pt x="868" y="641" on="1"/>
        <pt x="1384" y="641" on="1"/>
        <pt x="1384" y="481" on="1"/>
        <pt x="868" y="481" on="1"/>
        <pt x="868" y="401" on="1"/>
        <pt x="868" y="206" on="0"/>
        <pt x="665" y="-20" on="0"/>
        <pt x="485" y="-20" on="1"/>
        <pt x="302" y="-20" on="0"/>
        <pt x="102" y="156" on="0"/>
        <pt x="102" y="315" on="1"/>
        <pt x="102" y="641" on="0"/>
        <pt x="522" y="641" on="1"/>
        <pt x="684" y="641" on="1"/>
      </contour>
      <contour>
        <pt x="684" y="481" on="1"/>
        <pt x="535" y="481" on="1"/>
        <pt x="411" y="481" on="0"/>
        <pt x="297" y="401" on="0"/>
        <pt x="297" y="313" on="1"/>
        <pt x="297" y="139" on="0"/>
        <pt x="492" y="139" on="1"/>
        <pt x="584" y="139" on="0"/>
        <pt x="684" y="275" on="0"/>
        <pt x="684" y="401" on="1"/>
      </contour>
    </TTGlyph>
    <TTGlyph name="uni10D0" xMin="86" yMin="-20" xMax="1085" yMax="1098">
      <contour>
        <pt x="672" y="1098" on="1"/>
        <pt x="672" y="1047" on="1"/>
        <pt x="672" y="983" on="0"/>
        <pt x="750" y="883" on="0"/>
        <pt x="846" y="815" on="1"/>
        <pt x="947" y="744" on="0"/>
        <pt x="1037" y="639" on="0"/>
        <pt x="1085" y="513" on="0"/>
        <pt x="1085" y="434" on="1"/>
        <pt x="1085" y="226" on="0"/>
        <pt x="812" y="-20" on="0"/>
        <pt x="582" y="-20" on="1"/>
        <pt x="350" y="-20" on="0"/>
        <pt x="86" y="209" on="0"/>
        <pt x="86" y="412" on="1"/>
        <pt x="86" y="490" on="0"/>
        <pt x="104" y="573" on="1"/>
        <pt x="295" y="573" on="1"/>
        <pt x="272" y="500" on="0"/>
        <pt x="272" y="410" on="1"/>
        <pt x="272" y="275" on="0"/>
        <pt x="428" y="131" on="0"/>
        <pt x="586" y="131" on="1"/>
        <pt x="731" y="131" on="0"/>
        <pt x="899" y="284" on="0"/>
        <pt x="899" y="424" on="1"/>
        <pt x="899" y="495" on="0"/>
        <pt x="812" y="628" on="0"/>
        <pt x="709" y="705" on="1"/>
        <pt x="584" y="797" on="0"/>
        <pt x="492" y="948" on="0"/>
        <pt x="492" y="1055" on="1"/>
        <pt x="492" y="1098" on="1"/>
      </contour>
    </TTGlyph>
    <TTGlyph name="uni10D1" xMin="113" yMin="-20" xMax="1128" yMax="1556">
      <contour>
        <pt x="1128" y="551" on="1"/>
        <pt x="1128" y="282" on="0"/>
        <pt x="856" y="-20" on="0"/>
        <pt x="616" y="-20" on="1"/>
        <pt x="467" y="-20" on="0"/>
        <pt x="237" y="119" on="0"/>
        <pt x="113" y="379" on="0"/>
        <pt x="113" y="551" on="1"/>
        <pt x="113" y="814" on="0"/>
        <pt x="373" y="1113" on="0"/>
        <pt x="612" y="1118" on="1"/>
        <pt x="643" y="1163" on="0"/>
        <pt x="643" y="1214" on="1"/>
        <pt x="643" y="1245" on="0"/>
        <pt x="610" y="1290" on="0"/>
        <pt x="571" y="1290" on="1"/>
        <pt x="454" y="1290" on="0"/>
        <pt x="350" y="1414" on="0"/>
        <pt x="350" y="1556" on="1"/>
        <pt x="510" y="1556" on="1"/>
        <pt x="510" y="1489" on="0"/>
        <pt x="552" y="1432" on="0"/>
        <pt x="610" y="1432" on="1"/>
        <pt x="700" y="1432" on="0"/>
        <pt x="803" y="1334" on="0"/>
        <pt x="803" y="1247" on="1"/>
        <pt x="803" y="1173" on="0"/>
        <pt x="760" y="1102" on="1"/>
        <pt x="935" y="1058" on="0"/>
        <pt x="1128" y="767" on="0"/>
      </contour>
      <contour>
        <pt x="299" y="551" on="1"/>
        <pt x="299" y="344" on="0"/>
        <pt x="462" y="129" on="0"/>
        <pt x="621" y="129" on="1"/>
        <pt x="778" y="129" on="0"/>
        <pt x="942" y="344" on="0"/>
        <pt x="942" y="551" on="1"/>
        <pt x="942" y="758" on="0"/>
        <pt x="777" y="967" on="0"/>
        <pt x="618" y="967" on="1"/>
        <pt x="299" y="967" on="0"/>
      </contour>
    </TTGlyph>
    <TTGlyph name="uni10D2" xMin="113" yMin="-492" xMax="1128" yMax="1118">
      <contour>
        <pt x="113" y="76" on="1"/>
        <pt x="113" y="344" on="0"/>
        <pt x="386" y="647" on="0"/>
        <pt x="625" y="647" on="1"/>
        <pt x="658" y="647" on="0"/>
        <pt x="725" y="639" on="1"/>
        <pt x="764" y="711" on="0"/>
        <pt x="764" y="795" on="1"/>
        <pt x="764" y="870" on="0"/>
        <pt x="687" y="967" on="0"/>
        <pt x="608" y="967" on="1"/>
        <pt x="530" y="967" on="0"/>
        <pt x="457" y="886" on="0"/>
        <pt x="457" y="821" on="1"/>
        <pt x="457" y="774" on="0"/>
        <pt x="465" y="731" on="1"/>
        <pt x="285" y="731" on="1"/>
        <pt x="276" y="773" on="0"/>
        <pt x="276" y="813" on="1"/>
        <pt x="276" y="963" on="0"/>
        <pt x="447" y="1118" on="0"/>
        <pt x="608" y="1118" on="1"/>
        <pt x="768" y="1118" on="0"/>
        <pt x="944" y="949" on="0"/>
        <pt x="944" y="791" on="1"/>
        <pt x="944" y="741" on="0"/>
        <pt x="914" y="627" on="0"/>
        <pt x="883" y="582" on="1"/>
        <pt x="1001" y="513" on="0"/>
        <pt x="1128" y="251" on="0"/>
        <pt x="1128" y="76" on="1"/>
        <pt x="1128" y="-191" on="0"/>
        <pt x="859" y="-492" on="0"/>
        <pt x="618" y="-492" on="1"/>
        <pt x="467" y="-492" on="0"/>
        <pt x="238" y="-357" on="0"/>
        <pt x="113" y="-98" on="0"/>
      </contour>
      <contour>
        <pt x="942" y="76" on="1"/>
        <pt x="942" y="283" on="0"/>
        <pt x="779" y="498" on="0"/>
        <pt x="621" y="498" on="1"/>
        <pt x="464" y="498" on="0"/>
        <pt x="299" y="284" on="0"/>
        <pt x="299" y="76" on="1"/>
        <pt x="299" y="-131" on="0"/>
        <pt x="464" y="-340" on="0"/>
        <pt x="623" y="-340" on="1"/>
        <pt x="942" y="-340" on="0"/>
      </contour>
    </TTGlyph>
    <TTGlyph name="uni10D3" xMin="115" yMin="-492" xMax="1626" yMax="1118">
      <contour>
        <pt x="961" y="561" on="1"/>
        <pt x="961" y="344" on="0"/>
        <pt x="1079" y="131" on="0"/>
        <pt x="1202" y="131" on="1"/>
        <pt x="1323" y="131" on="0"/>
        <pt x="1446" y="350" on="0"/>
        <pt x="1446" y="559" on="1"/>
        <pt x="1446" y="758" on="0"/>
        <pt x="1320" y="969" on="0"/>
        <pt x="1210" y="969" on="1"/>
        <pt x="1075" y="969" on="0"/>
        <pt x="961" y="784" on="0"/>
      </contour>
      <contour>
        <pt x="115" y="557" on="1"/>
        <pt x="115" y="821" on="0"/>
        <pt x="335" y="1118" on="0"/>
        <pt x="535" y="1118" on="1"/>
        <pt x="785" y="1118" on="0"/>
        <pt x="864" y="907" on="1"/>
        <pt x="874" y="907" on="1"/>
        <pt x="923" y="1017" on="0"/>
        <pt x="1080" y="1118" on="0"/>
        <pt x="1204" y="1118" on="1"/>
        <pt x="1403" y="1118" on="0"/>
        <pt x="1626" y="820" on="0"/>
        <pt x="1626" y="557" on="1"/>
        <pt x="1626" y="276" on="0"/>
        <pt x="1413" y="-20" on="0"/>
        <pt x="1206" y="-20" on="1"/>
        <pt x="994" y="-20" on="0"/>
        <pt x="780" y="275" on="0"/>
        <pt x="780" y="563" on="1"/>
        <pt x="780" y="643" on="1"/>
        <pt x="780" y="800" on="0"/>
        <pt x="671" y="969" on="0"/>
        <pt x="547" y="969" on="1"/>
        <pt x="427" y="969" on="0"/>
        <pt x="295" y="754" on="0"/>
        <pt x="295" y="557" on="1"/>
        <pt x="295" y="372" on="0"/>
        <pt x="384" y="138" on="0"/>
        <pt x="571" y="-29" on="0"/>
        <pt x="725" y="-78" on="1"/>
        <pt x="858" y="-121" on="0"/>
        <pt x="1033" y="-211" on="0"/>
        <pt x="1145" y="-317" on="0"/>
        <pt x="1198" y="-412" on="1"/>
        <pt x="1055" y="-492" on="1"/>
        <pt x="997" y="-376" on="0"/>
        <pt x="756" y="-238" on="0"/>
        <pt x="610" y="-238" on="1"/>
        <pt x="516" y="-238" on="0"/>
        <pt x="365" y="-278" on="0"/>
        <pt x="262" y="-332" on="1"/>
        <pt x="199" y="-186" on="1"/>
        <pt x="259" y="-157" on="0"/>
        <pt x="365" y="-121" on="0"/>
        <pt x="457" y="-102" on="1"/>
        <pt x="285" y="-2" on="0"/>
        <pt x="115" y="322" on="0"/>
      </contour>
    </TTGlyph>
    <TTGlyph name="uni10D4" xMin="86" yMin="-492" xMax="1092" yMax="1118">
      <contour>
        <pt x="584" y="-492" on="1"/>
        <pt x="337" y="-492" on="0"/>
        <pt x="86" y="-250" on="0"/>
        <pt x="86" y="-18" on="1"/>
        <pt x="86" y="82" on="0"/>
        <pt x="111" y="152" on="1"/>
        <pt x="295" y="152" on="1"/>
        <pt x="282" y="125" on="0"/>
        <pt x="266" y="25" on="0"/>
        <pt x="266" y="-16" on="1"/>
        <pt x="266" y="-179" on="0"/>
        <pt x="423" y="-340" on="0"/>
        <pt x="586" y="-340" on="1"/>
        <pt x="759" y="-340" on="0"/>
        <pt x="911" y="-114" on="0"/>
        <pt x="911" y="133" on="1"/>
        <pt x="911" y="498" on="1"/>
        <pt x="911" y="747" on="0"/>
        <pt x="759" y="967" on="0"/>
        <pt x="584" y="967" on="1"/>
        <pt x="459" y="967" on="0"/>
        <pt x="319" y="812" on="0"/>
        <pt x="319" y="676" on="1"/>
        <pt x="319" y="626" on="0"/>
        <pt x="324" y="598" on="1"/>
        <pt x="147" y="598" on="1"/>
        <pt x="141" y="640" on="0"/>
        <pt x="141" y="680" on="1"/>
        <pt x="141" y="806" on="0"/>
        <pt x="254" y="1009" on="0"/>
        <pt x="460" y="1118" on="0"/>
        <pt x="592" y="1118" on="1"/>
        <pt x="1092" y="1118" on="0"/>
        <pt x="1092" y="498" on="1"/>
        <pt x="1092" y="137" on="1"/>
        <pt x="1092" y="-179" on="0"/>
        <pt x="839" y="-492" on="0"/>
      </contour>
    </TTGlyph>
    <TTGlyph name="uni10D5" xMin="66" yMin="-492" xMax="1051" yMax="1118">
      <contour>
        <pt x="547" y="-340" on="1"/>
        <pt x="698" y="-340" on="0"/>
        <pt x="864" y="-161" on="0"/>
        <pt x="864" y="-2" on="1"/>
        <pt x="864" y="319" on="0"/>
        <pt x="475" y="319" on="1"/>
        <pt x="336" y="319" on="1"/>
        <pt x="336" y="471" on="1"/>
        <pt x="475" y="471" on="1"/>
        <pt x="638" y="471" on="0"/>
        <pt x="811" y="601" on="0"/>
        <pt x="811" y="723" on="1"/>
        <pt x="811" y="841" on="0"/>
        <pt x="679" y="969" on="0"/>
        <pt x="553" y="969" on="1"/>
        <pt x="301" y="969" on="0"/>
        <pt x="301" y="754" on="1"/>
        <pt x="305" y="709" on="1"/>
        <pt x="129" y="707" on="1"/>
        <pt x="123" y="749" on="0"/>
        <pt x="123" y="764" on="1"/>
        <pt x="123" y="927" on="0"/>
        <pt x="353" y="1118" on="0"/>
        <pt x="555" y="1118" on="1"/>
        <pt x="760" y="1118" on="0"/>
        <pt x="991" y="920" on="0"/>
        <pt x="991" y="748" on="1"/>
        <pt x="991" y="613" on="0"/>
        <pt x="862" y="444" on="0"/>
        <pt x="727" y="403" on="1"/>
        <pt x="880" y="364" on="0"/>
        <pt x="1051" y="152" on="0"/>
        <pt x="1051" y="2" on="1"/>
        <pt x="1051" y="-225" on="0"/>
        <pt x="773" y="-492" on="0"/>
        <pt x="539" y="-492" on="1"/>
        <pt x="309" y="-492" on="0"/>
        <pt x="66" y="-273" on="0"/>
        <pt x="66" y="-66" on="1"/>
        <pt x="66" y="3" on="0"/>
        <pt x="86" y="59" on="1"/>
        <pt x="270" y="59" on="1"/>
        <pt x="260" y="37" on="0"/>
        <pt x="246" y="-34" on="0"/>
        <pt x="246" y="-63" on="1"/>
        <pt x="246" y="-201" on="0"/>
        <pt x="400" y="-340" on="0"/>
      </contour>
    </TTGlyph>
    <TTGlyph name="uni10D6" xMin="-41" yMin="-20" xMax="1176" yMax="1567">
      <contour>
        <pt x="1176" y="551" on="1"/>
        <pt x="1176" y="282" on="0"/>
        <pt x="904" y="-20" on="0"/>
        <pt x="664" y="-20" on="1"/>
        <pt x="515" y="-20" on="0"/>
        <pt x="285" y="118" on="0"/>
        <pt x="160" y="377" on="0"/>
        <pt x="160" y="551" on="1"/>
        <pt x="160" y="735" on="0"/>
        <pt x="246" y="874" on="1"/>
        <pt x="109" y="889" on="0"/>
        <pt x="-41" y="1073" on="0"/>
        <pt x="-41" y="1225" on="1"/>
        <pt x="-41" y="1381" on="0"/>
        <pt x="140" y="1567" on="0"/>
        <pt x="297" y="1567" on="1"/>
        <pt x="450" y="1567" on="0"/>
        <pt x="635" y="1388" on="0"/>
        <pt x="635" y="1239" on="1"/>
        <pt x="635" y="1175" on="0"/>
        <pt x="614" y="1114" on="1"/>
        <pt x="648" y="1118" on="0"/>
        <pt x="686" y="1118" on="1"/>
        <pt x="831" y="1118" on="0"/>
        <pt x="1054" y="980" on="0"/>
        <pt x="1176" y="722" on="0"/>
      </contour>
      <contour>
        <pt x="346" y="551" on="1"/>
        <pt x="346" y="344" on="0"/>
        <pt x="509" y="129" on="0"/>
        <pt x="668" y="129" on="1"/>
        <pt x="825" y="129" on="0"/>
        <pt x="989" y="344" on="0"/>
        <pt x="989" y="551" on="1"/>
        <pt x="989" y="758" on="0"/>
        <pt x="823" y="967" on="0"/>
        <pt x="666" y="967" on="1"/>
        <pt x="504" y="967" on="0"/>
        <pt x="346" y="762" on="0"/>
      </contour>
      <contour>
        <pt x="297" y="1010" on="1"/>
        <pt x="376" y="1010" on="0"/>
        <pt x="463" y="1118" on="0"/>
        <pt x="463" y="1223" on="1"/>
        <pt x="463" y="1423" on="0"/>
        <pt x="297" y="1423" on="1"/>
        <pt x="131" y="1423" on="0"/>
        <pt x="131" y="1223" on="1"/>
        <pt x="131" y="1119" on="0"/>
        <pt x="217" y="1010" on="0"/>
      </contour>
    </TTGlyph>
    <TTGlyph name="uni10D7" xMin="115" yMin="-20" xMax="1626" yMax="1118">
      <contour>
        <pt x="780" y="561" on="1"/>
        <pt x="780" y="779" on="0"/>
        <pt x="675" y="969" on="0"/>
        <pt x="543" y="969" on="1"/>
        <pt x="424" y="969" on="0"/>
        <pt x="295" y="756" on="0"/>
        <pt x="295" y="559" on="1"/>
        <pt x="295" y="350" on="0"/>
        <pt x="418" y="131" on="0"/>
        <pt x="539" y="131" on="1"/>
        <pt x="663" y="131" on="0"/>
        <pt x="780" y="346" on="0"/>
      </contour>
      <contour>
        <pt x="961" y="563" on="1"/>
        <pt x="961" y="275" on="0"/>
        <pt x="747" y="-20" on="0"/>
        <pt x="535" y="-20" on="1"/>
        <pt x="327" y="-20" on="0"/>
        <pt x="115" y="274" on="0"/>
        <pt x="115" y="557" on="1"/>
        <pt x="115" y="819" on="0"/>
        <pt x="334" y="1118" on="0"/>
        <pt x="537" y="1118" on="1"/>
        <pt x="660" y="1118" on="0"/>
        <pt x="820" y="1020" on="0"/>
        <pt x="866" y="907" on="1"/>
        <pt x="877" y="907" on="1"/>
        <pt x="922" y="1017" on="0"/>
        <pt x="1083" y="1118" on="0"/>
        <pt x="1206" y="1118" on="1"/>
        <pt x="1405" y="1118" on="0"/>
        <pt x="1626" y="824" on="0"/>
        <pt x="1626" y="565" on="1"/>
        <pt x="1626" y="410" on="0"/>
        <pt x="1563" y="146" on="0"/>
        <pt x="1495" y="0" on="1"/>
        <pt x="1311" y="0" on="1"/>
        <pt x="1381" y="147" on="0"/>
        <pt x="1446" y="411" on="0"/>
        <pt x="1446" y="567" on="1"/>
        <pt x="1446" y="755" on="0"/>
        <pt x="1314" y="969" on="0"/>
        <pt x="1194" y="969" on="1"/>
        <pt x="1074" y="969" on="0"/>
        <pt x="961" y="807" on="0"/>
        <pt x="961" y="643" on="1"/>
      </contour>
    </TTGlyph>
    <TTGlyph name="uni10D8" xMin="113" yMin="0" xMax="1128" yMax="1118">
      <contour>
        <pt x="113" y="549" on="1"/>
        <pt x="113" y="817" on="0"/>
        <pt x="383" y="1118" on="0"/>
        <pt x="623" y="1118" on="1"/>
        <pt x="855" y="1118" on="0"/>
        <pt x="1128" y="813" on="0"/>
        <pt x="1128" y="551" on="1"/>
        <pt x="1128" y="395" on="0"/>
        <pt x="1045" y="95" on="0"/>
        <pt x="977" y="0" on="1"/>
        <pt x="784" y="0" on="1"/>
        <pt x="942" y="232" on="0"/>
        <pt x="942" y="549" on="1"/>
        <pt x="942" y="756" on="0"/>
        <pt x="776" y="967" on="0"/>
        <pt x="618" y="967" on="1"/>
        <pt x="461" y="967" on="0"/>
        <pt x="299" y="756" on="0"/>
        <pt x="299" y="549" on="1"/>
        <pt x="299" y="232" on="0"/>
        <pt x="457" y="0" on="1"/>
        <pt x="264" y="0" on="1"/>
        <pt x="199" y="91" on="0"/>
        <pt x="113" y="388" on="0"/>
      </contour>
    </TTGlyph>
    <TTGlyph name="uni10D9" xMin="25" yMin="-492" xMax="1010" yMax="1118">
      <contour>
        <pt x="432" y="1112" on="1"/>
        <pt x="483" y="1118" on="0"/>
        <pt x="514" y="1118" on="1"/>
        <pt x="722" y="1118" on="0"/>
        <pt x="961" y="917" on="0"/>
        <pt x="961" y="748" on="1"/>
        <pt x="961" y="608" on="0"/>
        <pt x="832" y="440" on="0"/>
        <pt x="700" y="399" on="1"/>
        <pt x="850" y="361" on="0"/>
        <pt x="1010" y="155" on="0"/>
        <pt x="1010" y="2" on="1"/>
        <pt x="1010" y="-225" on="0"/>
        <pt x="732" y="-492" on="0"/>
        <pt x="498" y="-492" on="1"/>
        <pt x="268" y="-492" on="0"/>
        <pt x="25" y="-273" on="0"/>
        <pt x="25" y="-66" on="1"/>
        <pt x="25" y="3" on="0"/>
        <pt x="45" y="59" on="1"/>
        <pt x="229" y="59" on="1"/>
        <pt x="219" y="37" on="0"/>
        <pt x="205" y="-34" on="0"/>
        <pt x="205" y="-63" on="1"/>
        <pt x="205" y="-201" on="0"/>
        <pt x="359" y="-340" on="0"/>
        <pt x="506" y="-340" on="1"/>
        <pt x="657" y="-340" on="0"/>
        <pt x="823" y="-161" on="0"/>
        <pt x="823" y="-2" on="1"/>
        <pt x="823" y="153" on="0"/>
        <pt x="629" y="319" on="0"/>
        <pt x="451" y="319" on="1"/>
        <pt x="432" y="319" on="1"/>
        <pt x="432" y="471" on="1"/>
        <pt x="453" y="471" on="1"/>
        <pt x="606" y="471" on="0"/>
        <pt x="780" y="605" on="0"/>
        <pt x="780" y="723" on="1"/>
        <pt x="780" y="838" on="0"/>
        <pt x="641" y="969" on="0"/>
        <pt x="512" y="969" on="1"/>
        <pt x="469" y="969" on="0"/>
        <pt x="432" y="963" on="1"/>
      </contour>
    </TTGlyph>
    <TTGlyph name="uni10DA" xMin="115" yMin="-492" xMax="2171" yMax="1118">
      <contour>
        <pt x="1524" y="-492" on="1"/>
        <pt x="1390" y="-345" on="0"/>
        <pt x="1061" y="-209" on="0"/>
        <pt x="866" y="-209" on="1"/>
        <pt x="738" y="-209" on="0"/>
        <pt x="518" y="-284" on="0"/>
        <pt x="449" y="-352" on="1"/>
        <pt x="348" y="-233" on="1"/>
        <pt x="448" y="-144" on="0"/>
        <pt x="625" y="-96" on="1"/>
        <pt x="115" y="127" on="0"/>
        <pt x="115" y="584" on="1"/>
        <pt x="115" y="847" on="0"/>
        <pt x="318" y="1118" on="0"/>
        <pt x="520" y="1118" on="1"/>
        <pt x="625" y="1118" on="0"/>
        <pt x="781" y="1021" on="0"/>
        <pt x="823" y="928" on="1"/>
        <pt x="834" y="928" on="1"/>
        <pt x="902" y="1118" on="0"/>
        <pt x="1143" y="1118" on="1"/>
        <pt x="1255" y="1118" on="0"/>
        <pt x="1417" y="1026" on="0"/>
        <pt x="1452" y="928" on="1"/>
        <pt x="1462" y="928" on="1"/>
        <pt x="1503" y="1019" on="0"/>
        <pt x="1660" y="1118" on="0"/>
        <pt x="1767" y="1118" on="1"/>
        <pt x="2171" y="1118" on="0"/>
        <pt x="2171" y="559" on="1"/>
        <pt x="2171" y="407" on="0"/>
        <pt x="2110" y="151" on="0"/>
        <pt x="2040" y="0" on="1"/>
        <pt x="1855" y="0" on="1"/>
        <pt x="1932" y="162" on="0"/>
        <pt x="1991" y="415" on="0"/>
        <pt x="1991" y="559" on="1"/>
        <pt x="1991" y="769" on="0"/>
        <pt x="1882" y="969" on="0"/>
        <pt x="1759" y="969" on="1"/>
        <pt x="1661" y="969" on="0"/>
        <pt x="1540" y="788" on="0"/>
        <pt x="1540" y="647" on="1"/>
        <pt x="1540" y="555" on="1"/>
        <pt x="1368" y="555" on="1"/>
        <pt x="1368" y="643" on="1"/>
        <pt x="1368" y="785" on="0"/>
        <pt x="1244" y="969" on="0"/>
        <pt x="1143" y="969" on="1"/>
        <pt x="1042" y="969" on="0"/>
        <pt x="918" y="784" on="0"/>
        <pt x="918" y="643" on="1"/>
        <pt x="918" y="555" on="1"/>
        <pt x="745" y="555" on="1"/>
        <pt x="745" y="647" on="1"/>
        <pt x="745" y="786" on="0"/>
        <pt x="626" y="969" on="0"/>
        <pt x="528" y="969" on="1"/>
        <pt x="410" y="969" on="0"/>
        <pt x="295" y="789" on="0"/>
        <pt x="295" y="594" on="1"/>
        <pt x="295" y="414" on="0"/>
        <pt x="467" y="161" on="0"/>
        <pt x="831" y="-49" on="0"/>
        <pt x="944" y="-57" on="1"/>
        <pt x="1165" y="-71" on="0"/>
        <pt x="1499" y="-223" on="0"/>
        <pt x="1636" y="-381" on="1"/>
      </contour>
    </TTGlyph>
    <TTGlyph name="uni10DB" xMin="111" yMin="-20" xMax="1116" yMax="1567">
      <contour>
        <pt x="606" y="129" on="1"/>
        <pt x="751" y="129" on="0"/>
        <pt x="918" y="356" on="0"/>
        <pt x="918" y="555" on="1"/>
        <pt x="918" y="967" on="0"/>
        <pt x="602" y="967" on="1"/>
        <pt x="454" y="967" on="0"/>
        <pt x="297" y="756" on="0"/>
        <pt x="297" y="551" on="1"/>
        <pt x="297" y="346" on="0"/>
        <pt x="451" y="129" on="0"/>
      </contour>
      <contour>
        <pt x="602" y="1415" on="1"/>
        <pt x="499" y="1415" on="0"/>
        <pt x="379" y="1319" on="0"/>
        <pt x="379" y="1235" on="1"/>
        <pt x="383" y="1198" on="1"/>
        <pt x="205" y="1196" on="1"/>
        <pt x="199" y="1232" on="0"/>
        <pt x="199" y="1247" on="1"/>
        <pt x="199" y="1335" on="0"/>
        <pt x="303" y="1483" on="0"/>
        <pt x="489" y="1567" on="0"/>
        <pt x="608" y="1567" on="1"/>
        <pt x="848" y="1567" on="0"/>
        <pt x="1116" y="1147" on="0"/>
        <pt x="1116" y="758" on="1"/>
        <pt x="1116" y="367" on="0"/>
        <pt x="857" y="-20" on="0"/>
        <pt x="590" y="-20" on="1"/>
        <pt x="365" y="-20" on="0"/>
        <pt x="111" y="279" on="0"/>
        <pt x="111" y="549" on="1"/>
        <pt x="111" y="818" on="0"/>
        <pt x="355" y="1116" on="0"/>
        <pt x="571" y="1116" on="1"/>
        <pt x="806" y="1116" on="0"/>
        <pt x="909" y="961" on="1"/>
        <pt x="920" y="961" on="1"/>
        <pt x="859" y="1415" on="0"/>
      </contour>
    </TTGlyph>
    <TTGlyph name="uni10DC" xMin="123" yMin="-20" xMax="1139" yMax="1556">
      <contour>
        <pt x="633" y="967" on="1"/>
        <pt x="475" y="967" on="0"/>
        <pt x="309" y="764" on="0"/>
        <pt x="309" y="569" on="1"/>
        <pt x="309" y="353" on="0"/>
        <pt x="473" y="129" on="0"/>
        <pt x="629" y="129" on="1"/>
        <pt x="789" y="129" on="0"/>
        <pt x="952" y="342" on="0"/>
        <pt x="952" y="551" on="1"/>
        <pt x="952" y="756" on="0"/>
        <pt x="791" y="967" on="0"/>
      </contour>
      <contour>
        <pt x="688" y="1405" on="1"/>
        <pt x="524" y="1405" on="0"/>
        <pt x="344" y="1195" on="0"/>
        <pt x="311" y="952" on="1"/>
        <pt x="322" y="952" on="1"/>
        <pt x="383" y="1038" on="0"/>
        <pt x="545" y="1116" on="0"/>
        <pt x="659" y="1116" on="1"/>
        <pt x="887" y="1116" on="0"/>
        <pt x="1139" y="818" on="0"/>
        <pt x="1139" y="549" on="1"/>
        <pt x="1139" y="273" on="0"/>
        <pt x="872" y="-20" on="0"/>
        <pt x="627" y="-20" on="1"/>
        <pt x="441" y="-20" on="0"/>
        <pt x="225" y="135" on="0"/>
        <pt x="123" y="461" on="0"/>
        <pt x="123" y="705" on="1"/>
        <pt x="123" y="1126" on="0"/>
        <pt x="396" y="1556" on="0"/>
        <pt x="664" y="1556" on="1"/>
        <pt x="1020" y="1556" on="1"/>
        <pt x="1020" y="1405" on="1"/>
      </contour>
    </TTGlyph>
    <TTGlyph name="uni10DD" xMin="115" yMin="0" xMax="1626" yMax="1118">
      <contour>
        <pt x="1206" y="1118" on="1"/>
        <pt x="1405" y="1118" on="0"/>
        <pt x="1626" y="824" on="0"/>
        <pt x="1626" y="565" on="1"/>
        <pt x="1626" y="410" on="0"/>
        <pt x="1563" y="146" on="0"/>
        <pt x="1495" y="0" on="1"/>
        <pt x="1311" y="0" on="1"/>
        <pt x="1381" y="147" on="0"/>
        <pt x="1446" y="411" on="0"/>
        <pt x="1446" y="567" on="1"/>
        <pt x="1446" y="765" on="0"/>
        <pt x="1311" y="969" on="0"/>
        <pt x="1194" y="969" on="1"/>
        <pt x="1081" y="969" on="0"/>
        <pt x="956" y="818" on="0"/>
        <pt x="956" y="680" on="1"/>
        <pt x="956" y="545" on="1"/>
        <pt x="784" y="545" on="1"/>
        <pt x="784" y="680" on="1"/>
        <pt x="784" y="819" on="0"/>
        <pt x="661" y="969" on="0"/>
        <pt x="543" y="969" on="1"/>
        <pt x="425" y="969" on="0"/>
        <pt x="295" y="765" on="0"/>
        <pt x="295" y="567" on="1"/>
        <pt x="295" y="404" on="0"/>
        <pt x="362" y="139" on="0"/>
        <pt x="430" y="0" on="1"/>
        <pt x="246" y="0" on="1"/>
        <pt x="177" y="143" on="0"/>
        <pt x="115" y="410" on="0"/>
        <pt x="115" y="565" on="1"/>
        <pt x="115" y="827" on="0"/>
        <pt x="340" y="1118" on="0"/>
        <pt x="537" y="1118" on="1"/>
        <pt x="663" y="1118" on="0"/>
        <pt x="824" y="1014" on="0"/>
        <pt x="866" y="907" on="1"/>
        <pt x="877" y="907" on="1"/>
        <pt x="922" y="1017" on="0"/>
        <pt x="1083" y="1118" on="0"/>
      </contour>
    </TTGlyph>
    <TTGlyph name="uni10DE" xMin="106" yMin="-20" xMax="1092" yMax="1567">
      <contour>
        <pt x="768" y="778" on="1"/>
        <pt x="924" y="742" on="0"/>
        <pt x="1092" y="551" on="0"/>
        <pt x="1092" y="420" on="1"/>
        <pt x="1092" y="221" on="0"/>
        <pt x="818" y="-20" on="0"/>
        <pt x="580" y="-20" on="1"/>
        <pt x="350" y="-20" on="0"/>
        <pt x="106" y="198" on="0"/>
        <pt x="106" y="406" on="1"/>
        <pt x="106" y="471" on="0"/>
        <pt x="127" y="530" on="1"/>
        <pt x="311" y="530" on="1"/>
        <pt x="302" y="511" on="0"/>
        <pt x="287" y="438" on="0"/>
        <pt x="287" y="408" on="1"/>
        <pt x="287" y="270" on="0"/>
        <pt x="441" y="131" on="0"/>
        <pt x="588" y="131" on="1"/>
        <pt x="740" y="131" on="0"/>
        <pt x="905" y="287" on="0"/>
        <pt x="905" y="420" on="1"/>
        <pt x="905" y="694" on="0"/>
        <pt x="516" y="694" on="1"/>
        <pt x="377" y="694" on="1"/>
        <pt x="377" y="846" on="1"/>
        <pt x="516" y="846" on="1"/>
        <pt x="679" y="846" on="0"/>
        <pt x="852" y="976" on="0"/>
        <pt x="852" y="1098" on="1"/>
        <pt x="852" y="1304" on="0"/>
        <pt x="639" y="1321" on="1"/>
        <pt x="585" y="1325" on="1"/>
        <pt x="390" y="1340" on="0"/>
        <pt x="272" y="1427" on="1"/>
        <pt x="358" y="1567" on="1"/>
        <pt x="403" y="1529" on="0"/>
        <pt x="511" y="1490" on="0"/>
        <pt x="588" y="1482" on="1"/>
        <pt x="698" y="1468" on="1"/>
        <pt x="858" y="1447" on="0"/>
        <pt x="1032" y="1273" on="0"/>
        <pt x="1032" y="1122" on="1"/>
        <pt x="1032" y="986" on="0"/>
        <pt x="903" y="819" on="0"/>
      </contour>
    </TTGlyph>
    <TTGlyph name="uni10DF" xMin="86" yMin="-492" xMax="1106" yMax="1098">
      <contour>
        <pt x="926" y="950" on="1"/>
        <pt x="612" y="868" on="1"/>
        <pt x="662" y="830" on="0"/>
        <pt x="717" y="716" on="0"/>
        <pt x="717" y="647" on="1"/>
        <pt x="717" y="509" on="0"/>
        <pt x="544" y="340" on="0"/>
        <pt x="399" y="340" on="1"/>
        <pt x="86" y="340" on="0"/>
        <pt x="86" y="655" on="1"/>
        <pt x="90" y="713" on="1"/>
        <pt x="258" y="713" on="1"/>
        <pt x="254" y="694" on="0"/>
        <pt x="254" y="653" on="1"/>
        <pt x="254" y="571" on="0"/>
        <pt x="330" y="479" on="0"/>
        <pt x="399" y="479" on="1"/>
        <pt x="469" y="479" on="0"/>
        <pt x="549" y="571" on="0"/>
        <pt x="549" y="653" on="1"/>
        <pt x="549" y="806" on="0"/>
        <pt x="403" y="827" on="1"/>
        <pt x="403" y="956" on="1"/>
        <pt x="940" y="1098" on="1"/>
        <pt x="1106" y="1098" on="1"/>
        <pt x="1106" y="27" on="1"/>
        <pt x="1106" y="-228" on="0"/>
        <pt x="854" y="-492" on="0"/>
        <pt x="608" y="-492" on="1"/>
        <pt x="383" y="-492" on="0"/>
        <pt x="137" y="-280" on="0"/>
        <pt x="137" y="-80" on="1"/>
        <pt x="137" y="-5" on="0"/>
        <pt x="158" y="68" on="1"/>
        <pt x="340" y="68" on="1"/>
        <pt x="317" y="-7" on="0"/>
        <pt x="317" y="-80" on="1"/>
        <pt x="317" y="-210" on="0"/>
        <pt x="469" y="-340" on="0"/>
        <pt x="612" y="-340" on="1"/>
        <pt x="782" y="-340" on="0"/>
        <pt x="926" y="-163" on="0"/>
        <pt x="926" y="33" on="1"/>
      </contour>
    </TTGlyph>
    <TTGlyph name="uni10E0" xMin="115" yMin="0" xMax="1626" yMax="1577">
      <contour>
        <pt x="432" y="1104" on="1"/>
        <pt x="476" y="1118" on="0"/>
        <pt x="537" y="1118" on="1"/>
        <pt x="785" y="1118" on="0"/>
        <pt x="866" y="907" on="1"/>
        <pt x="877" y="907" on="1"/>
        <pt x="922" y="1018" on="0"/>
        <pt x="1084" y="1118" on="0"/>
        <pt x="1206" y="1118" on="1"/>
        <pt x="1403" y="1118" on="0"/>
        <pt x="1626" y="824" on="0"/>
        <pt x="1626" y="565" on="1"/>
        <pt x="1626" y="410" on="0"/>
        <pt x="1563" y="146" on="0"/>
        <pt x="1495" y="0" on="1"/>
        <pt x="1311" y="0" on="1"/>
        <pt x="1381" y="147" on="0"/>
        <pt x="1446" y="411" on="0"/>
        <pt x="1446" y="567" on="1"/>
        <pt x="1446" y="759" on="0"/>
        <pt x="1315" y="969" on="0"/>
        <pt x="1194" y="969" on="1"/>
        <pt x="1081" y="969" on="0"/>
        <pt x="956" y="818" on="0"/>
        <pt x="956" y="680" on="1"/>
        <pt x="956" y="545" on="1"/>
        <pt x="784" y="545" on="1"/>
        <pt x="784" y="680" on="1"/>
        <pt x="784" y="819" on="0"/>
        <pt x="661" y="969" on="0"/>
        <pt x="543" y="969" on="1"/>
        <pt x="429" y="969" on="0"/>
        <pt x="295" y="769" on="0"/>
        <pt x="295" y="567" on="1"/>
        <pt x="295" y="404" on="0"/>
        <pt x="362" y="139" on="0"/>
        <pt x="430" y="0" on="1"/>
        <pt x="246" y="0" on="1"/>
        <pt x="174" y="150" on="0"/>
        <pt x="115" y="403" on="0"/>
        <pt x="115" y="549" on="1"/>
        <pt x="115" y="810" on="0"/>
        <pt x="250" y="1161" on="0"/>
        <pt x="517" y="1399" on="0"/>
        <pt x="937" y="1547" on="0"/>
        <pt x="1231" y="1577" on="1"/>
        <pt x="1251" y="1421" on="1"/>
        <pt x="976" y="1401" on="0"/>
        <pt x="556" y="1242" on="0"/>
        <pt x="432" y="1112" on="1"/>
      </contour>
    </TTGlyph>
    <TTGlyph name="uni10E1" xMin="162" yMin="-20" xMax="1145" yMax="1556">
      <contour>
        <pt x="1145" y="573" on="1"/>
        <pt x="1145" y="280" on="0"/>
        <pt x="884" y="-20" on="0"/>
        <pt x="629" y="-20" on="1"/>
        <pt x="162" y="-20" on="0"/>
        <pt x="162" y="498" on="1"/>
        <pt x="162" y="1556" on="1"/>
        <pt x="342" y="1556" on="1"/>
        <pt x="342" y="504" on="1"/>
        <pt x="342" y="127" on="0"/>
        <pt x="643" y="127" on="1"/>
        <pt x="963" y="127" on="0"/>
        <pt x="963" y="578" on="1"/>
        <pt x="963" y="843" on="0"/>
        <pt x="737" y="1098" on="1"/>
        <pt x="942" y="1098" on="1"/>
        <pt x="1032" y="1000" on="0"/>
        <pt x="1145" y="720" on="0"/>
      </contour>
    </TTGlyph>
    <TTGlyph name="uni10E2" xMin="113" yMin="-492" xMax="1460" yMax="1556">
      <contour>
        <pt x="1460" y="315" on="1"/>
        <pt x="1460" y="66" on="0"/>
        <pt x="1297" y="-299" on="0"/>
        <pt x="991" y="-492" on="0"/>
        <pt x="786" y="-492" on="1"/>
        <pt x="462" y="-492" on="0"/>
        <pt x="113" y="-69" on="0"/>
        <pt x="113" y="317" on="1"/>
        <pt x="113" y="539" on="0"/>
        <pt x="250" y="884" on="0"/>
        <pt x="514" y="1092" on="0"/>
        <pt x="696" y="1112" on="1"/>
        <pt x="696" y="1556" on="1"/>
        <pt x="877" y="1556" on="1"/>
        <pt x="877" y="1114" on="1"/>
        <pt x="1151" y="1085" on="0"/>
        <pt x="1460" y="667" on="0"/>
      </contour>
      <contour>
        <pt x="696" y="489" on="1"/>
        <pt x="696" y="958" on="1"/>
        <pt x="502" y="927" on="0"/>
        <pt x="299" y="595" on="0"/>
        <pt x="299" y="315" on="1"/>
        <pt x="299" y="-1" on="0"/>
        <pt x="551" y="-340" on="0"/>
        <pt x="786" y="-340" on="1"/>
        <pt x="1022" y="-340" on="0"/>
        <pt x="1274" y="-3" on="0"/>
        <pt x="1274" y="315" on="1"/>
        <pt x="1274" y="597" on="0"/>
        <pt x="1071" y="930" on="0"/>
        <pt x="877" y="961" on="1"/>
        <pt x="877" y="489" on="1"/>
      </contour>
    </TTGlyph>
    <TTGlyph name="uni10E3" xMin="31" yMin="-492" xMax="1071" yMax="1118">
      <contour>
        <pt x="219" y="1118" on="1"/>
        <pt x="418" y="1118" on="0"/>
        <pt x="477" y="928" on="1"/>
        <pt x="485" y="928" on="1"/>
        <pt x="556" y="1118" on="0"/>
        <pt x="750" y="1118" on="1"/>
        <pt x="900" y="1118" on="0"/>
        <pt x="1071" y="894" on="0"/>
        <pt x="1071" y="682" on="1"/>
        <pt x="1071" y="27" on="1"/>
        <pt x="1071" y="-227" on="0"/>
        <pt x="820" y="-492" on="0"/>
        <pt x="573" y="-492" on="1"/>
        <pt x="345" y="-492" on="0"/>
        <pt x="102" y="-232" on="0"/>
        <pt x="102" y="4" on="1"/>
        <pt x="102" y="111" on="0"/>
        <pt x="123" y="182" on="1"/>
        <pt x="305" y="182" on="1"/>
        <pt x="283" y="112" on="0"/>
        <pt x="283" y="4" on="1"/>
        <pt x="283" y="-167" on="0"/>
        <pt x="434" y="-340" on="0"/>
        <pt x="578" y="-340" on="1"/>
        <pt x="746" y="-340" on="0"/>
        <pt x="891" y="-166" on="0"/>
        <pt x="891" y="33" on="1"/>
        <pt x="891" y="682" on="1"/>
        <pt x="891" y="969" on="0"/>
        <pt x="729" y="969" on="1"/>
        <pt x="653" y="969" on="0"/>
        <pt x="565" y="817" on="0"/>
        <pt x="565" y="678" on="1"/>
        <pt x="565" y="627" on="1"/>
        <pt x="393" y="627" on="1"/>
        <pt x="393" y="674" on="1"/>
        <pt x="393" y="817" on="0"/>
        <pt x="306" y="969" on="0"/>
        <pt x="225" y="969" on="1"/>
        <pt x="187" y="969" on="0"/>
        <pt x="110" y="951" on="0"/>
        <pt x="92" y="940" on="1"/>
        <pt x="31" y="1075" on="1"/>
        <pt x="97" y="1118" on="0"/>
      </contour>
    </TTGlyph>
    <TTGlyph name="uni10E4" xMin="113" yMin="-492" xMax="1706" yMax="1118">
      <contour>
        <pt x="1016" y="649" on="1"/>
        <pt x="1016" y="427" on="0"/>
        <pt x="777" y="176" on="0"/>
        <pt x="563" y="176" on="1"/>
        <pt x="358" y="176" on="0"/>
        <pt x="113" y="432" on="0"/>
        <pt x="113" y="649" on="1"/>
        <pt x="113" y="870" on="0"/>
        <pt x="353" y="1118" on="0"/>
        <pt x="569" y="1118" on="1"/>
        <pt x="763" y="1118" on="0"/>
        <pt x="883" y="1006" on="1"/>
        <pt x="1009" y="1118" on="0"/>
        <pt x="1210" y="1118" on="1"/>
        <pt x="1417" y="1118" on="0"/>
        <pt x="1647" y="922" on="0"/>
        <pt x="1647" y="748" on="1"/>
        <pt x="1647" y="487" on="0"/>
        <pt x="1386" y="399" on="1"/>
        <pt x="1541" y="359" on="0"/>
        <pt x="1706" y="154" on="0"/>
        <pt x="1706" y="2" on="1"/>
        <pt x="1706" y="-234" on="0"/>
        <pt x="1397" y="-492" on="0"/>
        <pt x="1106" y="-492" on="1"/>
        <pt x="834" y="-492" on="0"/>
        <pt x="551" y="-285" on="0"/>
        <pt x="551" y="-88" on="1"/>
        <pt x="551" y="-22" on="0"/>
        <pt x="571" y="31" on="1"/>
        <pt x="756" y="31" on="1"/>
        <pt x="731" y="-19" on="0"/>
        <pt x="731" y="-84" on="1"/>
        <pt x="731" y="-211" on="0"/>
        <pt x="929" y="-340" on="0"/>
        <pt x="1116" y="-340" on="1"/>
        <pt x="1520" y="-340" on="0"/>
        <pt x="1520" y="-2" on="1"/>
        <pt x="1520" y="152" on="0"/>
        <pt x="1329" y="319" on="0"/>
        <pt x="1151" y="319" on="1"/>
        <pt x="1122" y="319" on="1"/>
        <pt x="1122" y="471" on="1"/>
        <pt x="1151" y="471" on="1"/>
        <pt x="1302" y="471" on="0"/>
        <pt x="1466" y="604" on="0"/>
        <pt x="1466" y="723" on="1"/>
        <pt x="1466" y="841" on="0"/>
        <pt x="1334" y="969" on="0"/>
        <pt x="1208" y="969" on="1"/>
        <pt x="1054" y="969" on="0"/>
        <pt x="967" y="889" on="1"/>
        <pt x="1016" y="780" on="0"/>
      </contour>
      <contour>
        <pt x="299" y="649" on="1"/>
        <pt x="299" y="488" on="0"/>
        <pt x="436" y="326" on="0"/>
        <pt x="567" y="326" on="1"/>
        <pt x="698" y="326" on="0"/>
        <pt x="836" y="487" on="0"/>
        <pt x="836" y="649" on="1"/>
        <pt x="836" y="967" on="0"/>
        <pt x="565" y="967" on="1"/>
        <pt x="299" y="967" on="0"/>
      </contour>
    </TTGlyph>
    <TTGlyph name="uni10E5" xMin="98" yMin="-492" xMax="1073" yMax="1556">
      <contour>
        <pt x="184" y="541" on="1"/>
        <pt x="164" y="623" on="0"/>
        <pt x="164" y="698" on="1"/>
        <pt x="164" y="900" on="0"/>
        <pt x="373" y="1118" on="0"/>
        <pt x="578" y="1118" on="1"/>
        <pt x="675" y="1118" on="0"/>
        <pt x="831" y="1052" on="0"/>
        <pt x="891" y="969" on="1"/>
        <pt x="903" y="969" on="1"/>
        <pt x="893" y="1033" on="0"/>
        <pt x="893" y="1122" on="1"/>
        <pt x="893" y="1556" on="1"/>
        <pt x="1073" y="1556" on="1"/>
        <pt x="1073" y="27" on="1"/>
        <pt x="1073" y="-227" on="0"/>
        <pt x="826" y="-492" on="0"/>
        <pt x="590" y="-492" on="1"/>
        <pt x="98" y="-492" on="0"/>
        <pt x="98" y="-80" on="1"/>
        <pt x="98" y="-5" on="0"/>
        <pt x="119" y="68" on="1"/>
        <pt x="301" y="68" on="1"/>
        <pt x="279" y="-3" on="0"/>
        <pt x="279" y="-80" on="1"/>
        <pt x="279" y="-340" on="0"/>
        <pt x="594" y="-340" on="1"/>
        <pt x="893" y="-340" on="0"/>
        <pt x="893" y="33" on="1"/>
        <pt x="893" y="631" on="1"/>
        <pt x="893" y="793" on="0"/>
        <pt x="732" y="969" on="0"/>
        <pt x="586" y="969" on="1"/>
        <pt x="471" y="969" on="0"/>
        <pt x="350" y="819" on="0"/>
        <pt x="350" y="676" on="1"/>
        <pt x="350" y="607" on="0"/>
        <pt x="367" y="541" on="1"/>
      </contour>
    </TTGlyph>
    <TTGlyph name="uni10E6" xMin="115" yMin="-492" xMax="1626" yMax="1118">
      <contour>
        <pt x="115" y="557" on="1"/>
        <pt x="115" y="824" on="0"/>
        <pt x="335" y="1118" on="0"/>
        <pt x="537" y="1118" on="1"/>
        <pt x="787" y="1118" on="0"/>
        <pt x="866" y="907" on="1"/>
        <pt x="877" y="907" on="1"/>
        <pt x="922" y="1017" on="0"/>
        <pt x="1083" y="1118" on="0"/>
        <pt x="1206" y="1118" on="1"/>
        <pt x="1402" y="1118" on="0"/>
        <pt x="1626" y="823" on="0"/>
        <pt x="1626" y="565" on="1"/>
        <pt x="1626" y="410" on="0"/>
        <pt x="1563" y="146" on="0"/>
        <pt x="1495" y="0" on="1"/>
        <pt x="1311" y="0" on="1"/>
        <pt x="1381" y="147" on="0"/>
        <pt x="1446" y="411" on="0"/>
        <pt x="1446" y="567" on="1"/>
        <pt x="1446" y="757" on="0"/>
        <pt x="1316" y="969" on="0"/>
        <pt x="1194" y="969" on="1"/>
        <pt x="1081" y="969" on="0"/>
        <pt x="956" y="818" on="0"/>
        <pt x="956" y="680" on="1"/>
        <pt x="956" y="545" on="1"/>
        <pt x="784" y="545" on="1"/>
        <pt x="784" y="680" on="1"/>
        <pt x="784" y="819" on="0"/>
        <pt x="661" y="969" on="0"/>
        <pt x="543" y="969" on="1"/>
        <pt x="423" y="969" on="0"/>
        <pt x="295" y="759" on="0"/>
        <pt x="295" y="557" on="1"/>
        <pt x="295" y="371" on="0"/>
        <pt x="385" y="137" on="0"/>
        <pt x="576" y="-29" on="0"/>
        <pt x="733" y="-80" on="1"/>
        <pt x="863" y="-122" on="0"/>
        <pt x="1033" y="-210" on="0"/>
        <pt x="1146" y="-319" on="0"/>
        <pt x="1198" y="-412" on="1"/>
        <pt x="1055" y="-492" on="1"/>
        <pt x="997" y="-376" on="0"/>
        <pt x="756" y="-238" on="0"/>
        <pt x="610" y="-238" on="1"/>
        <pt x="516" y="-238" on="0"/>
        <pt x="365" y="-278" on="0"/>
        <pt x="262" y="-332" on="1"/>
        <pt x="197" y="-186" on="1"/>
        <pt x="256" y="-157" on="0"/>
        <pt x="359" y="-123" on="0"/>
        <pt x="457" y="-102" on="1"/>
        <pt x="285" y="-2" on="0"/>
        <pt x="115" y="322" on="0"/>
      </contour>
    </TTGlyph>
    <TTGlyph name="uni10E7" xMin="113" yMin="-492" xMax="1087" yMax="1098">
      <contour>
        <pt x="1087" y="27" on="1"/>
        <pt x="1087" y="-228" on="0"/>
        <pt x="835" y="-492" on="0"/>
        <pt x="588" y="-492" on="1"/>
        <pt x="361" y="-492" on="0"/>
        <pt x="113" y="-274" on="0"/>
        <pt x="113" y="-80" on="1"/>
        <pt x="113" y="-1" on="0"/>
        <pt x="133" y="68" on="1"/>
        <pt x="315" y="68" on="1"/>
        <pt x="293" y="-3" on="0"/>
        <pt x="293" y="-80" on="1"/>
        <pt x="293" y="-210" on="0"/>
        <pt x="449" y="-340" on="0"/>
        <pt x="590" y="-340" on="1"/>
        <pt x="750" y="-340" on="0"/>
        <pt x="907" y="-156" on="0"/>
        <pt x="907" y="33" on="1"/>
        <pt x="907" y="285" on="1"/>
        <pt x="907" y="368" on="0"/>
        <pt x="918" y="438" on="1"/>
        <pt x="905" y="438" on="1"/>
        <pt x="853" y="354" on="0"/>
        <pt x="670" y="268" on="0"/>
        <pt x="563" y="268" on="1"/>
        <pt x="340" y="268" on="0"/>
        <pt x="113" y="487" on="0"/>
        <pt x="113" y="688" on="1"/>
        <pt x="113" y="805" on="0"/>
        <pt x="188" y="1027" on="0"/>
        <pt x="254" y="1098" on="1"/>
        <pt x="457" y="1098" on="1"/>
        <pt x="299" y="937" on="0"/>
        <pt x="299" y="711" on="1"/>
        <pt x="299" y="418" on="0"/>
        <pt x="586" y="418" on="1"/>
        <pt x="907" y="418" on="0"/>
        <pt x="907" y="735" on="1"/>
        <pt x="907" y="1098" on="1"/>
        <pt x="1087" y="1098" on="1"/>
      </contour>
    </TTGlyph>
    <TTGlyph name="uni10E8" xMin="100" yMin="-20" xMax="1116" yMax="1567">
      <contour>
        <pt x="606" y="129" on="1"/>
        <pt x="750" y="129" on="0"/>
        <pt x="918" y="327" on="0"/>
        <pt x="918" y="502" on="1"/>
        <pt x="918" y="862" on="0"/>
        <pt x="602" y="862" on="1"/>
        <pt x="453" y="862" on="0"/>
        <pt x="297" y="677" on="0"/>
        <pt x="297" y="498" on="1"/>
        <pt x="297" y="318" on="0"/>
        <pt x="451" y="129" on="0"/>
      </contour>
      <contour>
        <pt x="1116" y="758" on="1"/>
        <pt x="1116" y="367" on="0"/>
        <pt x="857" y="-20" on="0"/>
        <pt x="590" y="-20" on="1"/>
        <pt x="364" y="-20" on="0"/>
        <pt x="111" y="251" on="0"/>
        <pt x="111" y="496" on="1"/>
        <pt x="111" y="742" on="0"/>
        <pt x="357" y="1012" on="0"/>
        <pt x="571" y="1012" on="1"/>
        <pt x="701" y="1012" on="0"/>
        <pt x="873" y="925" on="0"/>
        <pt x="920" y="856" on="1"/>
        <pt x="930" y="856" on="1"/>
        <pt x="930" y="1057" on="0"/>
        <pt x="896" y="1306" on="0"/>
        <pt x="824" y="1417" on="0"/>
        <pt x="752" y="1417" on="1"/>
        <pt x="684" y="1417" on="0"/>
        <pt x="606" y="1264" on="0"/>
        <pt x="606" y="1126" on="1"/>
        <pt x="434" y="1126" on="1"/>
        <pt x="434" y="1270" on="0"/>
        <pt x="352" y="1417" on="0"/>
        <pt x="276" y="1417" on="1"/>
        <pt x="204" y="1417" on="0"/>
        <pt x="162" y="1389" on="1"/>
        <pt x="100" y="1524" on="1"/>
        <pt x="170" y="1567" on="0"/>
        <pt x="272" y="1567" on="1"/>
        <pt x="376" y="1567" on="0"/>
        <pt x="491" y="1486" on="0"/>
        <pt x="518" y="1397" on="1"/>
        <pt x="526" y="1397" on="1"/>
        <pt x="555" y="1478" on="0"/>
        <pt x="670" y="1567" on="0"/>
        <pt x="752" y="1567" on="1"/>
        <pt x="854" y="1567" on="0"/>
        <pt x="988" y="1471" on="0"/>
        <pt x="1073" y="1276" on="0"/>
        <pt x="1116" y="971" on="0"/>
      </contour>
    </TTGlyph>
    <TTGlyph name="uni10E9" xMin="174" yMin="0" xMax="1149" yMax="1567">
      <contour>
        <pt x="174" y="1139" on="1"/>
        <pt x="174" y="1348" on="0"/>
        <pt x="329" y="1567" on="0"/>
        <pt x="494" y="1567" on="1"/>
        <pt x="624" y="1567" on="0"/>
        <pt x="780" y="1426" on="0"/>
        <pt x="780" y="1313" on="1"/>
        <pt x="780" y="1168" on="0"/>
        <pt x="574" y="1022" on="0"/>
        <pt x="354" y="1022" on="1"/>
        <pt x="354" y="926" on="1"/>
        <pt x="354" y="836" on="0"/>
        <pt x="344" y="772" on="1"/>
        <pt x="356" y="772" on="1"/>
        <pt x="405" y="852" on="0"/>
        <pt x="585" y="942" on="0"/>
        <pt x="698" y="942" on="1"/>
        <pt x="921" y="942" on="0"/>
        <pt x="1149" y="694" on="0"/>
        <pt x="1149" y="465" on="1"/>
        <pt x="1149" y="331" on="0"/>
        <pt x="1064" y="79" on="0"/>
        <pt x="997" y="0" on="1"/>
        <pt x="805" y="0" on="1"/>
        <pt x="963" y="190" on="0"/>
        <pt x="963" y="451" on="1"/>
        <pt x="963" y="793" on="0"/>
        <pt x="676" y="793" on="1"/>
        <pt x="507" y="793" on="0"/>
        <pt x="354" y="619" on="0"/>
        <pt x="354" y="422" on="1"/>
        <pt x="354" y="0" on="1"/>
        <pt x="174" y="0" on="1"/>
      </contour>
      <contour>
        <pt x="496" y="1419" on="1"/>
        <pt x="420" y="1419" on="0"/>
        <pt x="356" y="1305" on="0"/>
        <pt x="354" y="1161" on="1"/>
        <pt x="487" y="1161" on="0"/>
        <pt x="612" y="1233" on="0"/>
        <pt x="612" y="1313" on="1"/>
        <pt x="612" y="1360" on="0"/>
        <pt x="551" y="1419" on="0"/>
      </contour>
    </TTGlyph>
    <TTGlyph name="uni10EA" xMin="123" yMin="-492" xMax="1223" yMax="1139">
      <contour>
        <pt x="1174" y="723" on="1"/>
        <pt x="1174" y="582" on="0"/>
        <pt x="1042" y="413" on="0"/>
        <pt x="913" y="375" on="1"/>
        <pt x="1062" y="337" on="0"/>
        <pt x="1223" y="140" on="0"/>
        <pt x="1223" y="-12" on="1"/>
        <pt x="1223" y="-234" on="0"/>
        <pt x="941" y="-492" on="0"/>
        <pt x="694" y="-492" on="1"/>
        <pt x="482" y="-492" on="0"/>
        <pt x="239" y="-337" on="0"/>
        <pt x="123" y="0" on="0"/>
        <pt x="123" y="283" on="1"/>
        <pt x="123" y="517" on="0"/>
        <pt x="225" y="967" on="0"/>
        <pt x="307" y="1098" on="1"/>
        <pt x="487" y="1098" on="1"/>
        <pt x="407" y="966" on="0"/>
        <pt x="303" y="516" on="0"/>
        <pt x="303" y="287" on="1"/>
        <pt x="303" y="45" on="0"/>
        <pt x="376" y="-222" on="0"/>
        <pt x="539" y="-340" on="0"/>
        <pt x="696" y="-340" on="1"/>
        <pt x="858" y="-340" on="0"/>
        <pt x="1036" y="-172" on="0"/>
        <pt x="1036" y="-14" on="1"/>
        <pt x="1036" y="134" on="0"/>
        <pt x="844" y="295" on="0"/>
        <pt x="664" y="295" on="1"/>
        <pt x="604" y="295" on="1"/>
        <pt x="604" y="446" on="1"/>
        <pt x="666" y="446" on="1"/>
        <pt x="819" y="446" on="0"/>
        <pt x="993" y="580" on="0"/>
        <pt x="993" y="698" on="1"/>
        <pt x="993" y="756" on="0"/>
        <pt x="960" y="828" on="0"/>
        <pt x="901" y="874" on="0"/>
        <pt x="819" y="901" on="0"/>
        <pt x="770" y="915" on="1"/>
        <pt x="724" y="928" on="0"/>
        <pt x="664" y="955" on="0"/>
        <pt x="625" y="982" on="0"/>
        <pt x="602" y="1008" on="1"/>
        <pt x="688" y="1139" on="1"/>
        <pt x="706" y="1116" on="0"/>
        <pt x="781" y="1080" on="0"/>
        <pt x="858" y="1057" on="1"/>
        <pt x="1030" y="1006" on="0"/>
        <pt x="1174" y="856" on="0"/>
      </contour>
    </TTGlyph>
    <TTGlyph name="uni10EB" xMin="113" yMin="-20" xMax="1085" yMax="1556">
      <contour>
        <pt x="600" y="129" on="1"/>
        <pt x="757" y="129" on="0"/>
        <pt x="905" y="337" on="0"/>
        <pt x="905" y="545" on="1"/>
        <pt x="905" y="555" on="1"/>
        <pt x="905" y="779" on="0"/>
        <pt x="761" y="967" on="0"/>
        <pt x="596" y="967" on="1"/>
        <pt x="450" y="967" on="0"/>
        <pt x="299" y="759" on="0"/>
        <pt x="299" y="551" on="1"/>
        <pt x="299" y="129" on="0"/>
      </contour>
      <contour>
        <pt x="1085" y="1556" on="1"/>
        <pt x="1085" y="551" on="1"/>
        <pt x="1085" y="-20" on="0"/>
        <pt x="584" y="-20" on="1"/>
        <pt x="356" y="-20" on="0"/>
        <pt x="113" y="272" on="0"/>
        <pt x="113" y="549" on="1"/>
        <pt x="113" y="818" on="0"/>
        <pt x="350" y="1116" on="0"/>
        <pt x="565" y="1116" on="1"/>
        <pt x="794" y="1116" on="0"/>
        <pt x="905" y="952" on="1"/>
        <pt x="915" y="952" on="1"/>
        <pt x="905" y="1065" on="0"/>
        <pt x="905" y="1178" on="1"/>
        <pt x="905" y="1556" on="1"/>
      </contour>
    </TTGlyph>
    <TTGlyph name="uni10EC" xMin="123" yMin="-20" xMax="1139" yMax="1567">
      <contour>
        <pt x="633" y="129" on="1"/>
        <pt x="788" y="129" on="0"/>
        <pt x="942" y="318" on="0"/>
        <pt x="942" y="498" on="1"/>
        <pt x="942" y="676" on="0"/>
        <pt x="786" y="862" on="0"/>
        <pt x="637" y="862" on="1"/>
        <pt x="322" y="862" on="0"/>
        <pt x="322" y="502" on="1"/>
        <pt x="322" y="329" on="0"/>
        <pt x="488" y="129" on="0"/>
      </contour>
      <contour>
        <pt x="123" y="758" on="1"/>
        <pt x="123" y="970" on="0"/>
        <pt x="166" y="1275" on="0"/>
        <pt x="250" y="1470" on="0"/>
        <pt x="384" y="1567" on="0"/>
        <pt x="487" y="1567" on="1"/>
        <pt x="569" y="1567" on="0"/>
        <pt x="684" y="1478" on="0"/>
        <pt x="713" y="1397" on="1"/>
        <pt x="721" y="1397" on="1"/>
        <pt x="748" y="1486" on="0"/>
        <pt x="862" y="1567" on="0"/>
        <pt x="967" y="1567" on="1"/>
        <pt x="1069" y="1567" on="0"/>
        <pt x="1139" y="1524" on="1"/>
        <pt x="1077" y="1389" on="1"/>
        <pt x="1035" y="1417" on="0"/>
        <pt x="963" y="1417" on="1"/>
        <pt x="887" y="1417" on="0"/>
        <pt x="805" y="1270" on="0"/>
        <pt x="805" y="1126" on="1"/>
        <pt x="633" y="1126" on="1"/>
        <pt x="633" y="1262" on="0"/>
        <pt x="556" y="1417" on="0"/>
        <pt x="487" y="1417" on="1"/>
        <pt x="415" y="1417" on="0"/>
        <pt x="343" y="1306" on="0"/>
        <pt x="309" y="1055" on="0"/>
        <pt x="309" y="856" on="1"/>
        <pt x="319" y="856" on="1"/>
        <pt x="366" y="925" on="0"/>
        <pt x="538" y="1012" on="0"/>
        <pt x="668" y="1012" on="1"/>
        <pt x="883" y="1012" on="0"/>
        <pt x="1128" y="741" on="0"/>
        <pt x="1128" y="496" on="1"/>
        <pt x="1128" y="251" on="0"/>
        <pt x="876" y="-20" on="0"/>
        <pt x="649" y="-20" on="1"/>
        <pt x="382" y="-20" on="0"/>
        <pt x="123" y="367" on="0"/>
      </contour>
    </TTGlyph>
    <TTGlyph name="uni10ED" xMin="86" yMin="-492" xMax="1085" yMax="1556">
      <contour>
        <pt x="594" y="467" on="1"/>
        <pt x="594" y="571" on="0"/>
        <pt x="606" y="623" on="1"/>
        <pt x="594" y="623" on="1"/>
        <pt x="530" y="559" on="0"/>
        <pt x="420" y="559" on="1"/>
        <pt x="290" y="559" on="0"/>
        <pt x="129" y="720" on="0"/>
        <pt x="129" y="842" on="1"/>
        <pt x="129" y="968" on="0"/>
        <pt x="289" y="1118" on="0"/>
        <pt x="420" y="1118" on="1"/>
        <pt x="531" y="1118" on="0"/>
        <pt x="594" y="1055" on="1"/>
        <pt x="606" y="1055" on="1"/>
        <pt x="594" y="1107" on="0"/>
        <pt x="594" y="1210" on="1"/>
        <pt x="594" y="1556" on="1"/>
        <pt x="774" y="1556" on="1"/>
        <pt x="774" y="913" on="1"/>
        <pt x="1051" y="913" on="1"/>
        <pt x="1051" y="762" on="1"/>
        <pt x="774" y="762" on="1"/>
        <pt x="774" y="465" on="1"/>
        <pt x="774" y="398" on="0"/>
        <pt x="817" y="324" on="0"/>
        <pt x="895" y="264" on="1"/>
        <pt x="1002" y="181" on="0"/>
        <pt x="1085" y="22" on="0"/>
        <pt x="1085" y="-84" on="1"/>
        <pt x="1085" y="-270" on="0"/>
        <pt x="811" y="-492" on="0"/>
        <pt x="582" y="-492" on="1"/>
        <pt x="350" y="-492" on="0"/>
        <pt x="86" y="-282" on="0"/>
        <pt x="86" y="-94" on="1"/>
        <pt x="86" y="-7" on="0"/>
        <pt x="104" y="68" on="1"/>
        <pt x="295" y="68" on="1"/>
        <pt x="272" y="-7" on="0"/>
        <pt x="272" y="-96" on="1"/>
        <pt x="272" y="-214" on="0"/>
        <pt x="428" y="-340" on="0"/>
        <pt x="586" y="-340" on="1"/>
        <pt x="726" y="-340" on="0"/>
        <pt x="899" y="-206" on="0"/>
        <pt x="899" y="-96" on="1"/>
        <pt x="899" y="-27" on="0"/>
        <pt x="833" y="82" on="0"/>
        <pt x="754" y="147" on="1"/>
        <pt x="662" y="223" on="0"/>
        <pt x="594" y="349" on="0"/>
        <pt x="594" y="442" on="1"/>
      </contour>
      <contour>
        <pt x="301" y="840" on="1"/>
        <pt x="301" y="773" on="0"/>
        <pt x="377" y="696" on="0"/>
        <pt x="446" y="696" on="1"/>
        <pt x="518" y="696" on="0"/>
        <pt x="594" y="773" on="0"/>
        <pt x="594" y="840" on="1"/>
        <pt x="594" y="906" on="0"/>
        <pt x="516" y="979" on="0"/>
        <pt x="446" y="979" on="1"/>
        <pt x="378" y="979" on="0"/>
        <pt x="301" y="906" on="0"/>
      </contour>
    </TTGlyph>
    <TTGlyph name="uni10EE" xMin="164" yMin="-20" xMax="1137" yMax="1556">
      <contour>
        <pt x="649" y="129" on="1"/>
        <pt x="800" y="129" on="0"/>
        <pt x="950" y="344" on="0"/>
        <pt x="950" y="551" on="1"/>
        <pt x="950" y="756" on="0"/>
        <pt x="799" y="967" on="0"/>
        <pt x="653" y="967" on="1"/>
        <pt x="490" y="967" on="0"/>
        <pt x="344" y="775" on="0"/>
        <pt x="344" y="555" on="1"/>
        <pt x="344" y="545" on="1"/>
        <pt x="344" y="331" on="0"/>
        <pt x="492" y="129" on="0"/>
      </contour>
      <contour>
        <pt x="344" y="1556" on="1"/>
        <pt x="344" y="1178" on="1"/>
        <pt x="344" y="1065" on="0"/>
        <pt x="334" y="952" on="1"/>
        <pt x="344" y="952" on="1"/>
        <pt x="455" y="1116" on="0"/>
        <pt x="684" y="1116" on="1"/>
        <pt x="899" y="1116" on="0"/>
        <pt x="1137" y="818" on="0"/>
        <pt x="1137" y="549" on="1"/>
        <pt x="1137" y="269" on="0"/>
        <pt x="885" y="-20" on="0"/>
        <pt x="647" y="-20" on="1"/>
        <pt x="406" y="-20" on="0"/>
        <pt x="164" y="259" on="0"/>
        <pt x="164" y="551" on="1"/>
        <pt x="164" y="1556" on="1"/>
      </contour>
    </TTGlyph>
    <TTGlyph name="uni10EF" xMin="86" yMin="-492" xMax="1085" yMax="1098">
      <contour>
        <pt x="961" y="473" on="1"/>
        <pt x="672" y="592" on="1"/>
        <pt x="672" y="465" on="1"/>
        <pt x="672" y="409" on="0"/>
        <pt x="748" y="325" on="0"/>
        <pt x="846" y="264" on="1"/>
        <pt x="942" y="203" on="0"/>
        <pt x="1035" y="105" on="0"/>
        <pt x="1085" y="-11" on="0"/>
        <pt x="1085" y="-84" on="1"/>
        <pt x="1085" y="-270" on="0"/>
        <pt x="811" y="-492" on="0"/>
        <pt x="582" y="-492" on="1"/>
        <pt x="350" y="-492" on="0"/>
        <pt x="86" y="-282" on="0"/>
        <pt x="86" y="-94" on="1"/>
        <pt x="86" y="-17" on="0"/>
        <pt x="104" y="68" on="1"/>
        <pt x="295" y="68" on="1"/>
        <pt x="272" y="-7" on="0"/>
        <pt x="272" y="-96" on="1"/>
        <pt x="272" y="-214" on="0"/>
        <pt x="428" y="-340" on="0"/>
        <pt x="586" y="-340" on="1"/>
        <pt x="726" y="-340" on="0"/>
        <pt x="899" y="-206" on="0"/>
        <pt x="899" y="-96" on="1"/>
        <pt x="899" y="-50" on="0"/>
        <pt x="862" y="26" on="0"/>
        <pt x="790" y="96" on="0"/>
        <pt x="709" y="147" on="1"/>
        <pt x="578" y="233" on="0"/>
        <pt x="492" y="354" on="0"/>
        <pt x="492" y="442" on="1"/>
        <pt x="492" y="666" on="1"/>
        <pt x="147" y="807" on="1"/>
        <pt x="207" y="940" on="1"/>
        <pt x="492" y="821" on="1"/>
        <pt x="492" y="1098" on="1"/>
        <pt x="672" y="1098" on="1"/>
        <pt x="672" y="748" on="1"/>
        <pt x="1016" y="604" on="1"/>
      </contour>
    </TTGlyph>
    <TTGlyph name="uni10F0" xMin="98" yMin="-20" xMax="1083" yMax="1577">
      <contour>
        <pt x="1034" y="1231" on="1"/>
        <pt x="1034" y="1126" on="0"/>
        <pt x="924" y="1016" on="0"/>
        <pt x="801" y="989" on="1"/>
        <pt x="1044" y="945" on="0"/>
        <pt x="1044" y="748" on="1"/>
        <pt x="1044" y="663" on="0"/>
        <pt x="931" y="543" on="0"/>
        <pt x="834" y="524" on="1"/>
        <pt x="924" y="508" on="0"/>
        <pt x="1033" y="450" on="0"/>
        <pt x="1083" y="364" on="0"/>
        <pt x="1083" y="289" on="1"/>
        <pt x="1083" y="148" on="0"/>
        <pt x="810" y="-20" on="0"/>
        <pt x="571" y="-20" on="1"/>
        <pt x="342" y="-20" on="0"/>
        <pt x="98" y="156" on="0"/>
        <pt x="98" y="326" on="1"/>
        <pt x="98" y="392" on="0"/>
        <pt x="119" y="451" on="1"/>
        <pt x="303" y="451" on="1"/>
        <pt x="294" y="431" on="0"/>
        <pt x="279" y="360" on="0"/>
        <pt x="279" y="328" on="1"/>
        <pt x="279" y="231" on="0"/>
        <pt x="433" y="131" on="0"/>
        <pt x="580" y="131" on="1"/>
        <pt x="739" y="131" on="0"/>
        <pt x="897" y="219" on="0"/>
        <pt x="897" y="291" on="1"/>
        <pt x="897" y="370" on="0"/>
        <pt x="725" y="440" on="0"/>
        <pt x="541" y="440" on="1"/>
        <pt x="494" y="440" on="1"/>
        <pt x="494" y="600" on="1"/>
        <pt x="541" y="600" on="1"/>
        <pt x="864" y="600" on="0"/>
        <pt x="864" y="745" on="1"/>
        <pt x="864" y="835" on="0"/>
        <pt x="721" y="905" on="0"/>
        <pt x="541" y="905" on="1"/>
        <pt x="494" y="905" on="1"/>
        <pt x="494" y="1057" on="1"/>
        <pt x="541" y="1057" on="1"/>
        <pt x="854" y="1057" on="0"/>
        <pt x="854" y="1219" on="1"/>
        <pt x="854" y="1283" on="0"/>
        <pt x="712" y="1341" on="0"/>
        <pt x="577" y="1344" on="1"/>
        <pt x="472" y="1345" on="0"/>
        <pt x="329" y="1390" on="0"/>
        <pt x="264" y="1438" on="1"/>
        <pt x="350" y="1577" on="1"/>
        <pt x="394" y="1540" on="0"/>
        <pt x="498" y="1501" on="0"/>
        <pt x="580" y="1497" on="1"/>
        <pt x="634" y="1494" on="1"/>
        <pt x="1034" y="1472" on="0"/>
      </contour>
    </TTGlyph>
    <TTGlyph name="uni10F1" xMin="164" yMin="-20" xMax="1221" yMax="1577">
      <contour>
        <pt x="709" y="-20" on="1"/>
        <pt x="424" y="-20" on="0"/>
        <pt x="164" y="228" on="0"/>
        <pt x="164" y="498" on="1"/>
        <pt x="164" y="1556" on="1"/>
        <pt x="344" y="1556" on="1"/>
        <pt x="344" y="516" on="1"/>
        <pt x="344" y="366" on="0"/>
        <pt x="414" y="202" on="0"/>
        <pt x="570" y="131" on="0"/>
        <pt x="717" y="131" on="1"/>
        <pt x="876" y="131" on="0"/>
        <pt x="1034" y="219" on="0"/>
        <pt x="1034" y="291" on="1"/>
        <pt x="1034" y="370" on="0"/>
        <pt x="862" y="440" on="0"/>
        <pt x="678" y="440" on="1"/>
        <pt x="631" y="440" on="1"/>
        <pt x="631" y="600" on="1"/>
        <pt x="678" y="600" on="1"/>
        <pt x="1001" y="600" on="0"/>
        <pt x="1001" y="745" on="1"/>
        <pt x="1001" y="835" on="0"/>
        <pt x="858" y="905" on="0"/>
        <pt x="678" y="905" on="1"/>
        <pt x="631" y="905" on="1"/>
        <pt x="631" y="1057" on="1"/>
        <pt x="678" y="1057" on="1"/>
        <pt x="991" y="1057" on="0"/>
        <pt x="991" y="1219" on="1"/>
        <pt x="991" y="1277" on="0"/>
        <pt x="914" y="1333" on="0"/>
        <pt x="834" y="1341" on="1"/>
        <pt x="731" y="1349" on="0"/>
        <pt x="621" y="1394" on="0"/>
        <pt x="575" y="1438" on="1"/>
        <pt x="662" y="1577" on="1"/>
        <pt x="693" y="1541" on="0"/>
        <pt x="777" y="1504" on="0"/>
        <pt x="841" y="1498" on="1"/>
        <pt x="915" y="1489" on="1"/>
        <pt x="1046" y="1469" on="0"/>
        <pt x="1171" y="1345" on="0"/>
        <pt x="1171" y="1231" on="1"/>
        <pt x="1171" y="1139" on="0"/>
        <pt x="1064" y="1015" on="0"/>
        <pt x="938" y="989" on="1"/>
        <pt x="1182" y="944" on="0"/>
        <pt x="1182" y="748" on="1"/>
        <pt x="1182" y="662" on="0"/>
        <pt x="1068" y="543" on="0"/>
        <pt x="971" y="524" on="1"/>
        <pt x="1097" y="503" on="0"/>
        <pt x="1221" y="389" on="0"/>
        <pt x="1221" y="289" on="1"/>
        <pt x="1221" y="149" on="0"/>
        <pt x="948" y="-20" on="0"/>
      </contour>
    </TTGlyph>
    <TTGlyph name="uni10F2" xMin="41" yMin="-178" xMax="1208" yMax="1116">
      <contour>
        <pt x="1137" y="633" on="1"/>
        <pt x="1137" y="481" on="0"/>
        <pt x="960" y="208" on="0"/>
        <pt x="793" y="96" on="1"/>
        <pt x="985" y="19" on="0"/>
        <pt x="1208" y="-20" on="1"/>
        <pt x="1165" y="-178" on="1"/>
        <pt x="864" y="-115" on="0"/>
        <pt x="625" y="0" on="1"/>
        <pt x="383" y="-116" on="0"/>
        <pt x="84" y="-178" on="1"/>
        <pt x="41" y="-20" on="1"/>
        <pt x="261" y="18" on="0"/>
        <pt x="457" y="96" on="1"/>
        <pt x="289" y="209" on="0"/>
        <pt x="113" y="482" on="0"/>
        <pt x="113" y="633" on="1"/>
        <pt x="113" y="857" on="0"/>
        <pt x="389" y="1116" on="0"/>
        <pt x="625" y="1116" on="1"/>
        <pt x="859" y="1116" on="0"/>
        <pt x="1137" y="856" on="0"/>
      </contour>
      <contour>
        <pt x="297" y="633" on="1"/>
        <pt x="297" y="506" on="0"/>
        <pt x="461" y="274" on="0"/>
        <pt x="625" y="178" on="1"/>
        <pt x="789" y="275" on="0"/>
        <pt x="952" y="507" on="0"/>
        <pt x="952" y="633" on="1"/>
        <pt x="952" y="796" on="0"/>
        <pt x="783" y="965" on="0"/>
        <pt x="625" y="965" on="1"/>
        <pt x="465" y="965" on="0"/>
        <pt x="297" y="796" on="0"/>
      </contour>
    </TTGlyph>
    <TTGlyph name="uni10F3" xMin="57" yMin="-492" xMax="1042" yMax="1098">
      <contour>
        <pt x="139" y="1098" on="1"/>
        <pt x="942" y="1098" on="1"/>
        <pt x="942" y="967" on="1"/>
        <pt x="942" y="844" on="0"/>
        <pt x="891" y="670" on="0"/>
        <pt x="794" y="550" on="0"/>
        <pt x="692" y="496" on="1"/>
        <pt x="860" y="449" on="0"/>
        <pt x="1042" y="212" on="0"/>
        <pt x="1042" y="39" on="1"/>
        <pt x="1042" y="-206" on="0"/>
        <pt x="766" y="-492" on="0"/>
        <pt x="530" y="-492" on="1"/>
        <pt x="301" y="-492" on="0"/>
        <pt x="57" y="-246" on="0"/>
        <pt x="57" y="-12" on="1"/>
        <pt x="57" y="62" on="0"/>
        <pt x="78" y="129" on="1"/>
        <pt x="262" y="129" on="1"/>
        <pt x="252" y="105" on="0"/>
        <pt x="238" y="20" on="0"/>
        <pt x="238" y="-14" on="1"/>
        <pt x="238" y="-176" on="0"/>
        <pt x="392" y="-340" on="0"/>
        <pt x="539" y="-340" on="1"/>
        <pt x="691" y="-340" on="0"/>
        <pt x="856" y="-139" on="0"/>
        <pt x="856" y="33" on="1"/>
        <pt x="856" y="206" on="0"/>
        <pt x="651" y="387" on="0"/>
        <pt x="455" y="387" on="1"/>
        <pt x="340" y="387" on="1"/>
        <pt x="340" y="539" on="1"/>
        <pt x="555" y="539" on="0"/>
        <pt x="762" y="736" on="0"/>
        <pt x="762" y="946" on="1"/>
        <pt x="319" y="946" on="1"/>
        <pt x="319" y="819" on="1"/>
        <pt x="139" y="819" on="1"/>
      </contour>
    </TTGlyph>
    <TTGlyph name="uni10F4" xMin="66" yMin="-492" xMax="1051" yMax="1567">
      <contour>
        <pt x="991" y="748" on="1"/>
        <pt x="991" y="613" on="0"/>
        <pt x="862" y="444" on="0"/>
        <pt x="727" y="403" on="1"/>
        <pt x="880" y="364" on="0"/>
        <pt x="1051" y="152" on="0"/>
        <pt x="1051" y="2" on="1"/>
        <pt x="1051" y="-225" on="0"/>
        <pt x="773" y="-492" on="0"/>
        <pt x="539" y="-492" on="1"/>
        <pt x="309" y="-492" on="0"/>
        <pt x="66" y="-273" on="0"/>
        <pt x="66" y="-66" on="1"/>
        <pt x="66" y="3" on="0"/>
        <pt x="86" y="59" on="1"/>
        <pt x="270" y="59" on="1"/>
        <pt x="260" y="37" on="0"/>
        <pt x="246" y="-34" on="0"/>
        <pt x="246" y="-63" on="1"/>
        <pt x="246" y="-201" on="0"/>
        <pt x="400" y="-340" on="0"/>
        <pt x="547" y="-340" on="1"/>
        <pt x="698" y="-340" on="0"/>
        <pt x="864" y="-161" on="0"/>
        <pt x="864" y="-2" on="1"/>
        <pt x="864" y="319" on="0"/>
        <pt x="475" y="319" on="1"/>
        <pt x="336" y="319" on="1"/>
        <pt x="336" y="471" on="1"/>
        <pt x="475" y="471" on="1"/>
        <pt x="638" y="471" on="0"/>
        <pt x="811" y="601" on="0"/>
        <pt x="811" y="723" on="1"/>
        <pt x="811" y="948" on="0"/>
        <pt x="584" y="969" on="1"/>
        <pt x="252" y="995" on="0"/>
        <pt x="252" y="1276" on="1"/>
        <pt x="252" y="1412" on="0"/>
        <pt x="437" y="1567" on="0"/>
        <pt x="592" y="1567" on="1"/>
        <pt x="746" y="1567" on="0"/>
        <pt x="883" y="1493" on="1"/>
        <pt x="821" y="1350" on="1"/>
        <pt x="697" y="1419" on="0"/>
        <pt x="594" y="1419" on="1"/>
        <pt x="510" y="1419" on="0"/>
        <pt x="424" y="1348" on="0"/>
        <pt x="424" y="1286" on="1"/>
        <pt x="424" y="1222" on="0"/>
        <pt x="459" y="1160" on="0"/>
        <pt x="538" y="1124" on="0"/>
        <pt x="606" y="1118" on="1"/>
        <pt x="791" y="1101" on="0"/>
        <pt x="991" y="912" on="0"/>
      </contour>
    </TTGlyph>
    <TTGlyph name="uni10F5" xMin="113" yMin="-20" xMax="1276" yMax="1567">
      <contour>
        <pt x="866" y="549" on="1"/>
        <pt x="549" y="549" on="1"/>
        <pt x="430" y="549" on="0"/>
        <pt x="299" y="446" on="0"/>
        <pt x="299" y="346" on="1"/>
        <pt x="299" y="247" on="0"/>
        <pt x="447" y="131" on="0"/>
        <pt x="588" y="131" on="1"/>
        <pt x="722" y="131" on="0"/>
        <pt x="866" y="295" on="0"/>
        <pt x="866" y="440" on="1"/>
      </contour>
      <contour>
        <pt x="1047" y="700" on="1"/>
        <pt x="1276" y="700" on="1"/>
        <pt x="1276" y="549" on="1"/>
        <pt x="1047" y="549" on="1"/>
        <pt x="1047" y="444" on="1"/>
        <pt x="1047" y="227" on="0"/>
        <pt x="802" y="-20" on="0"/>
        <pt x="580" y="-20" on="1"/>
        <pt x="359" y="-20" on="0"/>
        <pt x="113" y="173" on="0"/>
        <pt x="113" y="348" on="1"/>
        <pt x="113" y="516" on="0"/>
        <pt x="350" y="700" on="0"/>
        <pt x="569" y="700" on="1"/>
        <pt x="866" y="700" on="1"/>
        <pt x="866" y="891" on="1"/>
        <pt x="528" y="891" on="1"/>
        <pt x="339" y="891" on="0"/>
        <pt x="141" y="1063" on="0"/>
        <pt x="141" y="1221" on="1"/>
        <pt x="141" y="1381" on="0"/>
        <pt x="380" y="1567" on="0"/>
        <pt x="594" y="1567" on="1"/>
        <pt x="811" y="1567" on="0"/>
        <pt x="1047" y="1344" on="0"/>
        <pt x="1047" y="1118" on="1"/>
        <pt x="1047" y="1042" on="1"/>
        <pt x="1276" y="1042" on="1"/>
        <pt x="1276" y="891" on="1"/>
        <pt x="1047" y="891" on="1"/>
      </contour>
      <contour>
        <pt x="866" y="1118" on="1"/>
        <pt x="866" y="1257" on="0"/>
        <pt x="732" y="1415" on="0"/>
        <pt x="590" y="1415" on="1"/>
        <pt x="463" y="1415" on="0"/>
        <pt x="328" y="1318" on="0"/>
        <pt x="328" y="1223" on="1"/>
        <pt x="328" y="1042" on="0"/>
        <pt x="543" y="1042" on="1"/>
        <pt x="866" y="1042" on="1"/>
      </contour>
    </TTGlyph>
    <TTGlyph name="uni10F6" xMin="113" yMin="-492" xMax="1878" yMax="1118">
      <contour>
        <pt x="600" y="969" on="1"/>
        <pt x="299" y="969" on="0"/>
        <pt x="299" y="547" on="1"/>
        <pt x="299" y="338" on="0"/>
        <pt x="444" y="131" on="0"/>
        <pt x="596" y="131" on="1"/>
        <pt x="761" y="131" on="0"/>
        <pt x="905" y="320" on="0"/>
        <pt x="905" y="543" on="1"/>
        <pt x="905" y="969" on="0"/>
      </contour>
      <contour>
        <pt x="1386" y="969" on="1"/>
        <pt x="1242" y="969" on="0"/>
        <pt x="1083" y="745" on="0"/>
        <pt x="1083" y="543" on="1"/>
        <pt x="1083" y="320" on="0"/>
        <pt x="1232" y="129" on="0"/>
        <pt x="1401" y="129" on="1"/>
        <pt x="1540" y="129" on="0"/>
        <pt x="1692" y="350" on="0"/>
        <pt x="1692" y="555" on="1"/>
        <pt x="1692" y="759" on="0"/>
        <pt x="1537" y="969" on="0"/>
      </contour>
      <contour>
        <pt x="905" y="-80" on="1"/>
        <pt x="905" y="32" on="0"/>
        <pt x="915" y="145" on="1"/>
        <pt x="905" y="145" on="1"/>
        <pt x="798" y="-18" on="0"/>
        <pt x="565" y="-18" on="1"/>
        <pt x="350" y="-18" on="0"/>
        <pt x="113" y="280" on="0"/>
        <pt x="113" y="549" on="1"/>
        <pt x="113" y="825" on="0"/>
        <pt x="366" y="1118" on="0"/>
        <pt x="602" y="1118" on="1"/>
        <pt x="883" y="1118" on="0"/>
        <pt x="997" y="862" on="1"/>
        <pt x="1055" y="994" on="0"/>
        <pt x="1261" y="1118" on="0"/>
        <pt x="1393" y="1118" on="1"/>
        <pt x="1628" y="1118" on="0"/>
        <pt x="1878" y="828" on="0"/>
        <pt x="1878" y="551" on="1"/>
        <pt x="1878" y="282" on="0"/>
        <pt x="1641" y="-20" on="0"/>
        <pt x="1425" y="-20" on="1"/>
        <pt x="1203" y="-20" on="0"/>
        <pt x="1085" y="141" on="1"/>
        <pt x="1073" y="141" on="1"/>
        <pt x="1077" y="106" on="1"/>
        <pt x="1085" y="31" on="0"/>
        <pt x="1085" y="-74" on="1"/>
        <pt x="1085" y="-492" on="1"/>
        <pt x="905" y="-492" on="1"/>
      </contour>
    </TTGlyph>
    <TTGlyph name="uni10F7" xMin="49" yMin="-492" xMax="1059" yMax="1118">
      <contour>
        <pt x="872" y="-23" on="1"/>
        <pt x="872" y="8" on="0"/>
        <pt x="858" y="80" on="0"/>
        <pt x="848" y="100" on="1"/>
        <pt x="1038" y="100" on="1"/>
        <pt x="1059" y="41" on="0"/>
        <pt x="1059" y="-25" on="1"/>
        <pt x="1059" y="-240" on="0"/>
        <pt x="785" y="-492" on="0"/>
        <pt x="549" y="-492" on="1"/>
        <pt x="311" y="-492" on="0"/>
        <pt x="49" y="-257" on="0"/>
        <pt x="49" y="-43" on="1"/>
        <pt x="49" y="67" on="0"/>
        <pt x="138" y="233" on="0"/>
        <pt x="320" y="371" on="0"/>
        <pt x="522" y="461" on="1"/>
        <pt x="661" y="521" on="0"/>
        <pt x="776" y="658" on="0"/>
        <pt x="776" y="766" on="1"/>
        <pt x="776" y="857" on="0"/>
        <pt x="661" y="967" on="0"/>
        <pt x="555" y="967" on="1"/>
        <pt x="328" y="967" on="0"/>
        <pt x="328" y="754" on="1"/>
        <pt x="332" y="707" on="1"/>
        <pt x="154" y="707" on="1"/>
        <pt x="150" y="735" on="0"/>
        <pt x="150" y="764" on="1"/>
        <pt x="150" y="927" on="0"/>
        <pt x="368" y="1118" on="0"/>
        <pt x="555" y="1118" on="1"/>
        <pt x="742" y="1118" on="0"/>
        <pt x="961" y="927" on="0"/>
        <pt x="961" y="764" on="1"/>
        <pt x="961" y="608" on="0"/>
        <pt x="773" y="392" on="0"/>
        <pt x="575" y="307" on="1"/>
        <pt x="443" y="248" on="0"/>
        <pt x="299" y="149" on="0"/>
        <pt x="236" y="40" on="0"/>
        <pt x="236" y="-41" on="1"/>
        <pt x="236" y="-185" on="0"/>
        <pt x="395" y="-340" on="0"/>
        <pt x="549" y="-340" on="1"/>
        <pt x="700" y="-340" on="0"/>
        <pt x="872" y="-168" on="0"/>
      </contour>
    </TTGlyph>
    <TTGlyph name="uni10F8" xMin="174" yMin="-492" xMax="1149" yMax="1098">
      <contour>
        <pt x="174" y="1098" on="1"/>
        <pt x="354" y="1098" on="1"/>
        <pt x="354" y="735" on="1"/>
        <pt x="354" y="418" on="0"/>
        <pt x="676" y="418" on="1"/>
        <pt x="963" y="418" on="0"/>
        <pt x="963" y="711" on="1"/>
        <pt x="963" y="934" on="0"/>
        <pt x="805" y="1098" on="1"/>
        <pt x="1008" y="1098" on="1"/>
        <pt x="1070" y="1032" on="0"/>
        <pt x="1149" y="810" on="0"/>
        <pt x="1149" y="688" on="1"/>
        <pt x="1149" y="487" on="0"/>
        <pt x="921" y="268" on="0"/>
        <pt x="698" y="268" on="1"/>
        <pt x="591" y="268" on="0"/>
        <pt x="408" y="355" on="0"/>
        <pt x="356" y="438" on="1"/>
        <pt x="344" y="438" on="1"/>
        <pt x="354" y="374" on="0"/>
        <pt x="354" y="285" on="1"/>
        <pt x="354" y="33" on="1"/>
        <pt x="354" y="-156" on="0"/>
        <pt x="512" y="-340" on="0"/>
        <pt x="672" y="-340" on="1"/>
        <pt x="812" y="-340" on="0"/>
        <pt x="969" y="-210" on="0"/>
        <pt x="969" y="-80" on="1"/>
        <pt x="969" y="-1" on="0"/>
        <pt x="946" y="68" on="1"/>
        <pt x="1128" y="68" on="1"/>
        <pt x="1149" y="-5" on="0"/>
        <pt x="1149" y="-80" on="1"/>
        <pt x="1149" y="-275" on="0"/>
        <pt x="900" y="-492" on="0"/>
        <pt x="674" y="-492" on="1"/>
        <pt x="428" y="-492" on="0"/>
        <pt x="174" y="-230" on="0"/>
        <pt x="174" y="27" on="1"/>
      </contour>
    </TTGlyph>
    <TTGlyph name="uni10F9" xMin="113" yMin="-492" xMax="1128" yMax="1118">
      <contour>
        <pt x="1128" y="551" on="1"/>
        <pt x="1128" y="282" on="0"/>
        <pt x="856" y="-20" on="0"/>
        <pt x="616" y="-20" on="1"/>
        <pt x="583" y="-20" on="0"/>
        <pt x="516" y="-12" on="1"/>
        <pt x="477" y="-88" on="0"/>
        <pt x="477" y="-168" on="1"/>
        <pt x="477" y="-243" on="0"/>
        <pt x="554" y="-340" on="0"/>
        <pt x="633" y="-340" on="1"/>
        <pt x="711" y="-340" on="0"/>
        <pt x="784" y="-260" on="0"/>
        <pt x="784" y="-195" on="1"/>
        <pt x="784" y="-147" on="0"/>
        <pt x="776" y="-104" on="1"/>
        <pt x="956" y="-104" on="1"/>
        <pt x="965" y="-135" on="0"/>
        <pt x="965" y="-186" on="1"/>
        <pt x="965" y="-335" on="0"/>
        <pt x="795" y="-492" on="0"/>
        <pt x="633" y="-492" on="1"/>
        <pt x="472" y="-492" on="0"/>
        <pt x="297" y="-321" on="0"/>
        <pt x="297" y="-164" on="1"/>
        <pt x="297" y="-114" on="0"/>
        <pt x="327" y="0" on="0"/>
        <pt x="358" y="45" on="1"/>
        <pt x="246" y="111" on="0"/>
        <pt x="113" y="366" on="0"/>
        <pt x="113" y="551" on="1"/>
        <pt x="113" y="819" on="0"/>
        <pt x="381" y="1118" on="0"/>
        <pt x="623" y="1118" on="1"/>
        <pt x="855" y="1118" on="0"/>
        <pt x="1128" y="813" on="0"/>
      </contour>
      <contour>
        <pt x="299" y="551" on="1"/>
        <pt x="299" y="344" on="0"/>
        <pt x="462" y="129" on="0"/>
        <pt x="621" y="129" on="1"/>
        <pt x="778" y="129" on="0"/>
        <pt x="942" y="344" on="0"/>
        <pt x="942" y="551" on="1"/>
        <pt x="942" y="758" on="0"/>
        <pt x="777" y="967" on="0"/>
        <pt x="618" y="967" on="1"/>
        <pt x="299" y="967" on="0"/>
      </contour>
    </TTGlyph>
    <TTGlyph name="uni10FA" xMin="113" yMin="-244" xMax="1128" yMax="1118">
      <contour>
        <pt x="143" y="27" on="1"/>
        <pt x="239" y="81" on="0"/>
        <pt x="362" y="117" on="1"/>
        <pt x="243" y="185" on="0"/>
        <pt x="113" y="429" on="0"/>
        <pt x="113" y="588" on="1"/>
        <pt x="113" y="741" on="0"/>
        <pt x="239" y="984" on="0"/>
        <pt x="471" y="1118" on="0"/>
        <pt x="625" y="1118" on="1"/>
        <pt x="869" y="1118" on="0"/>
        <pt x="1128" y="873" on="0"/>
        <pt x="1128" y="641" on="1"/>
        <pt x="1128" y="554" on="0"/>
        <pt x="1108" y="492" on="1"/>
        <pt x="924" y="492" on="1"/>
        <pt x="934" y="516" on="0"/>
        <pt x="948" y="606" on="0"/>
        <pt x="948" y="645" on="1"/>
        <pt x="948" y="800" on="0"/>
        <pt x="777" y="967" on="0"/>
        <pt x="623" y="967" on="1"/>
        <pt x="474" y="967" on="0"/>
        <pt x="299" y="763" on="0"/>
        <pt x="299" y="586" on="1"/>
        <pt x="299" y="393" on="0"/>
        <pt x="489" y="166" on="0"/>
        <pt x="672" y="152" on="1"/>
        <pt x="824" y="139" on="0"/>
        <pt x="1051" y="-29" on="0"/>
        <pt x="1120" y="-172" on="1"/>
        <pt x="973" y="-244" on="1"/>
        <pt x="856" y="0" on="0"/>
        <pt x="602" y="0" on="1"/>
        <pt x="403" y="0" on="0"/>
        <pt x="207" y="-115" on="1"/>
      </contour>
    </TTGlyph>
    <TTGlyph name="uni10FB" xMin="147" yMin="-29" xMax="965" yMax="1126">
      <contour>
        <pt x="147" y="111" on="1"/>
        <pt x="147" y="177" on="0"/>
        <pt x="211" y="250" on="0"/>
        <pt x="274" y="250" on="1"/>
        <pt x="335" y="250" on="0"/>
        <pt x="401" y="178" on="0"/>
        <pt x="401" y="111" on="1"/>
        <pt x="401" y="44" on="0"/>
        <pt x="333" y="-29" on="0"/>
        <pt x="274" y="-29" on="1"/>
        <pt x="213" y="-29" on="0"/>
        <pt x="147" y="45" on="0"/>
      </contour>
      <contour>
        <pt x="147" y="987" on="1"/>
        <pt x="147" y="1126" on="0"/>
        <pt x="274" y="1126" on="1"/>
        <pt x="337" y="1126" on="0"/>
        <pt x="401" y="1054" on="0"/>
        <pt x="401" y="987" on="1"/>
        <pt x="401" y="921" on="0"/>
        <pt x="333" y="848" on="0"/>
        <pt x="274" y="848" on="1"/>
        <pt x="213" y="848" on="0"/>
        <pt x="147" y="922" on="0"/>
      </contour>
      <contour>
        <pt x="711" y="549" on="1"/>
        <pt x="711" y="619" on="0"/>
        <pt x="777" y="688" on="0"/>
        <pt x="838" y="688" on="1"/>
        <pt x="899" y="688" on="0"/>
        <pt x="965" y="616" on="0"/>
        <pt x="965" y="549" on="1"/>
        <pt x="965" y="483" on="0"/>
        <pt x="897" y="410" on="0"/>
        <pt x="838" y="410" on="1"/>
        <pt x="779" y="410" on="0"/>
        <pt x="711" y="480" on="0"/>
      </contour>
    </TTGlyph>
    <TTGlyph name="uni10FC" xMin="98" yMin="901" xMax="780" yMax="1868">
      <contour>
        <pt x="440" y="1485" on="1"/>
        <pt x="353" y="1485" on="0"/>
        <pt x="250" y="1375" on="0"/>
        <pt x="250" y="1262" on="1"/>
        <pt x="250" y="1146" on="0"/>
        <pt x="347" y="1020" on="0"/>
        <pt x="438" y="1020" on="1"/>
        <pt x="629" y="1020" on="0"/>
        <pt x="629" y="1251" on="1"/>
        <pt x="629" y="1371" on="0"/>
        <pt x="526" y="1485" on="0"/>
      </contour>
      <contour>
        <pt x="475" y="1749" on="1"/>
        <pt x="379" y="1749" on="0"/>
        <pt x="267" y="1636" on="0"/>
        <pt x="246" y="1513" on="1"/>
        <pt x="278" y="1552" on="0"/>
        <pt x="375" y="1599" on="0"/>
        <pt x="457" y="1599" on="1"/>
        <pt x="609" y="1599" on="0"/>
        <pt x="780" y="1418" on="0"/>
        <pt x="780" y="1249" on="1"/>
        <pt x="780" y="1080" on="0"/>
        <pt x="601" y="901" on="0"/>
        <pt x="436" y="901" on="1"/>
        <pt x="312" y="901" on="0"/>
        <pt x="171" y="992" on="0"/>
        <pt x="98" y="1186" on="0"/>
        <pt x="98" y="1341" on="1"/>
        <pt x="98" y="1598" on="0"/>
        <pt x="281" y="1868" on="0"/>
        <pt x="459" y="1868" on="1"/>
        <pt x="702" y="1868" on="1"/>
        <pt x="702" y="1749" on="1"/>
      </contour>
    </TTGlyph>
    <TTGlyph name="uni2D00" xMin="20" yMin="-23" xMax="1028" yMax="1098">
      <contour>
        <pt x="1028" y="1098" on="1"/>
        <pt x="1028" y="946" on="1"/>
        <pt x="557" y="946" on="1"/>
        <pt x="557" y="336" on="1"/>
        <pt x="557" y="219" on="0"/>
        <pt x="670" y="123" on="0"/>
        <pt x="807" y="123" on="1"/>
        <pt x="936" y="123" on="0"/>
        <pt x="1028" y="145" on="1"/>
        <pt x="1028" y="10" on="1"/>
        <pt x="986" y="-5" on="0"/>
        <pt x="852" y="-23" on="0"/>
        <pt x="793" y="-23" on="1"/>
        <pt x="570" y="-23" on="0"/>
        <pt x="377" y="141" on="0"/>
        <pt x="377" y="317" on="1"/>
        <pt x="377" y="946" on="1"/>
        <pt x="20" y="946" on="1"/>
        <pt x="20" y="1098" on="1"/>
      </contour>
    </TTGlyph>
    <TTGlyph name="uni2D01" xMin="162" yMin="-492" xMax="1204" yMax="1098">
      <contour>
        <pt x="924" y="166" on="1"/>
        <pt x="872" y="75" on="0"/>
        <pt x="679" y="-20" on="0"/>
        <pt x="561" y="-20" on="1"/>
        <pt x="363" y="-20" on="0"/>
        <pt x="162" y="170" on="0"/>
        <pt x="162" y="379" on="1"/>
        <pt x="162" y="1098" on="1"/>
        <pt x="344" y="1098" on="1"/>
        <pt x="344" y="391" on="1"/>
        <pt x="344" y="258" on="0"/>
        <pt x="463" y="129" on="0"/>
        <pt x="588" y="129" on="1"/>
        <pt x="757" y="129" on="0"/>
        <pt x="911" y="317" on="0"/>
        <pt x="911" y="526" on="1"/>
        <pt x="911" y="1098" on="1"/>
        <pt x="1092" y="1098" on="1"/>
        <pt x="1092" y="307" on="1"/>
        <pt x="1092" y="248" on="0"/>
        <pt x="1127" y="153" on="0"/>
        <pt x="1169" y="60" on="0"/>
        <pt x="1204" y="-39" on="0"/>
        <pt x="1204" y="-102" on="1"/>
        <pt x="1204" y="-287" on="0"/>
        <pt x="912" y="-492" on="0"/>
        <pt x="651" y="-492" on="1"/>
        <pt x="368" y="-492" on="0"/>
        <pt x="201" y="-422" on="1"/>
        <pt x="201" y="-254" on="1"/>
        <pt x="279" y="-294" on="0"/>
        <pt x="497" y="-340" on="0"/>
        <pt x="618" y="-340" on="1"/>
        <pt x="815" y="-340" on="0"/>
        <pt x="1024" y="-217" on="0"/>
        <pt x="1024" y="-102" on="1"/>
        <pt x="1024" y="-58" on="0"/>
        <pt x="1002" y="12" on="0"/>
        <pt x="972" y="73" on="0"/>
        <pt x="941" y="132" on="0"/>
        <pt x="932" y="166" on="1"/>
      </contour>
    </TTGlyph>
    <TTGlyph name="uni2D02" xMin="20" yMin="-492" xMax="1305" yMax="1118">
      <contour>
        <pt x="1192" y="307" on="1"/>
        <pt x="1192" y="248" on="0"/>
        <pt x="1227" y="159" on="0"/>
        <pt x="1270" y="74" on="0"/>
        <pt x="1305" y="-19" on="0"/>
        <pt x="1305" y="-82" on="1"/>
        <pt x="1305" y="-279" on="0"/>
        <pt x="1025" y="-492" on="0"/>
        <pt x="770" y="-492" on="1"/>
        <pt x="519" y="-492" on="0"/>
        <pt x="354" y="-422" on="1"/>
        <pt x="354" y="-254" on="1"/>
        <pt x="535" y="-340" on="0"/>
        <pt x="791" y="-340" on="1"/>
        <pt x="939" y="-340" on="0"/>
        <pt x="1124" y="-196" on="0"/>
        <pt x="1124" y="-82" on="1"/>
        <pt x="1124" y="-31" on="0"/>
        <pt x="1089" y="56" on="0"/>
        <pt x="1047" y="144" on="0"/>
        <pt x="1012" y="241" on="0"/>
        <pt x="1012" y="301" on="1"/>
        <pt x="1012" y="702" on="1"/>
        <pt x="1012" y="836" on="0"/>
        <pt x="895" y="967" on="0"/>
        <pt x="768" y="967" on="1"/>
        <pt x="599" y="967" on="0"/>
        <pt x="446" y="780" on="0"/>
        <pt x="446" y="569" on="1"/>
        <pt x="446" y="0" on="1"/>
        <pt x="266" y="0" on="1"/>
        <pt x="266" y="842" on="1"/>
        <pt x="266" y="901" on="0"/>
        <pt x="220" y="946" on="0"/>
        <pt x="166" y="946" on="1"/>
        <pt x="20" y="946" on="1"/>
        <pt x="20" y="1098" on="1"/>
        <pt x="205" y="1098" on="1"/>
        <pt x="319" y="1098" on="0"/>
        <pt x="427" y="1030" on="0"/>
        <pt x="438" y="948" on="1"/>
        <pt x="449" y="948" on="1"/>
        <pt x="501" y="1030" on="0"/>
        <pt x="684" y="1118" on="0"/>
        <pt x="795" y="1118" on="1"/>
        <pt x="997" y="1118" on="0"/>
        <pt x="1192" y="921" on="0"/>
        <pt x="1192" y="715" on="1"/>
      </contour>
    </TTGlyph>
    <TTGlyph name="uni2D03" xMin="113" yMin="-20" xMax="1128" yMax="1556">
      <contour>
        <pt x="170" y="1405" on="1"/>
        <pt x="170" y="1556" on="1"/>
        <pt x="1071" y="1556" on="1"/>
        <pt x="1071" y="1405" on="1"/>
        <pt x="692" y="1405" on="1"/>
        <pt x="692" y="1384" on="1"/>
        <pt x="692" y="1268" on="0"/>
        <pt x="718" y="1130" on="0"/>
        <pt x="775" y="1035" on="0"/>
        <pt x="866" y="965" on="1"/>
        <pt x="1003" y="860" on="0"/>
        <pt x="1128" y="623" on="0"/>
        <pt x="1128" y="483" on="1"/>
        <pt x="1128" y="247" on="0"/>
        <pt x="853" y="-20" on="0"/>
        <pt x="616" y="-20" on="1"/>
        <pt x="388" y="-20" on="0"/>
        <pt x="113" y="254" on="0"/>
        <pt x="113" y="492" on="1"/>
        <pt x="113" y="684" on="0"/>
        <pt x="352" y="963" on="0"/>
        <pt x="571" y="1034" on="1"/>
        <pt x="539" y="1097" on="0"/>
        <pt x="512" y="1262" on="0"/>
        <pt x="512" y="1384" on="1"/>
        <pt x="512" y="1405" on="1"/>
      </contour>
      <contour>
        <pt x="657" y="918" on="1"/>
        <pt x="301" y="807" on="0"/>
        <pt x="301" y="487" on="1"/>
        <pt x="301" y="328" on="0"/>
        <pt x="471" y="129" on="0"/>
        <pt x="616" y="129" on="1"/>
        <pt x="773" y="129" on="0"/>
        <pt x="942" y="303" on="0"/>
        <pt x="942" y="481" on="1"/>
        <pt x="942" y="685" on="0"/>
        <pt x="748" y="840" on="1"/>
        <pt x="692" y="883" on="0"/>
      </contour>
    </TTGlyph>
    <TTGlyph name="uni2D04" xMin="20" yMin="-492" xMax="1276" yMax="1118">
      <contour>
        <pt x="1192" y="-53" on="1"/>
        <pt x="1192" y="-181" on="0"/>
        <pt x="1238" y="-415" on="0"/>
        <pt x="1276" y="-492" on="1"/>
        <pt x="1092" y="-492" on="1"/>
        <pt x="1012" y="-324" on="0"/>
        <pt x="1012" y="-59" on="1"/>
        <pt x="1012" y="702" on="1"/>
        <pt x="1012" y="836" on="0"/>
        <pt x="895" y="967" on="0"/>
        <pt x="768" y="967" on="1"/>
        <pt x="599" y="967" on="0"/>
        <pt x="446" y="780" on="0"/>
        <pt x="446" y="569" on="1"/>
        <pt x="446" y="0" on="1"/>
        <pt x="266" y="0" on="1"/>
        <pt x="266" y="842" on="1"/>
        <pt x="266" y="901" on="0"/>
        <pt x="220" y="946" on="0"/>
        <pt x="166" y="946" on="1"/>
        <pt x="20" y="946" on="1"/>
        <pt x="20" y="1098" on="1"/>
        <pt x="205" y="1098" on="1"/>
        <pt x="319" y="1098" on="0"/>
        <pt x="427" y="1030" on="0"/>
        <pt x="438" y="948" on="1"/>
        <pt x="449" y="948" on="1"/>
        <pt x="501" y="1030" on="0"/>
        <pt x="684" y="1118" on="0"/>
        <pt x="795" y="1118" on="1"/>
        <pt x="997" y="1118" on="0"/>
        <pt x="1192" y="921" on="0"/>
        <pt x="1192" y="715" on="1"/>
      </contour>
    </TTGlyph>
    <TTGlyph name="uni2D05" xMin="-72" yMin="-492" xMax="1749" yMax="1118">
      <contour>
        <pt x="872" y="707" on="1"/>
        <pt x="872" y="837" on="0"/>
        <pt x="763" y="967" on="0"/>
        <pt x="647" y="967" on="1"/>
        <pt x="495" y="967" on="0"/>
        <pt x="354" y="781" on="0"/>
        <pt x="354" y="569" on="1"/>
        <pt x="354" y="0" on="1"/>
        <pt x="174" y="0" on="1"/>
        <pt x="174" y="842" on="1"/>
        <pt x="174" y="901" on="0"/>
        <pt x="128" y="946" on="0"/>
        <pt x="74" y="946" on="1"/>
        <pt x="-72" y="946" on="1"/>
        <pt x="-72" y="1098" on="1"/>
        <pt x="135" y="1098" on="1"/>
        <pt x="235" y="1098" on="0"/>
        <pt x="335" y="1028" on="0"/>
        <pt x="346" y="948" on="1"/>
        <pt x="356" y="948" on="1"/>
        <pt x="403" y="1028" on="0"/>
        <pt x="574" y="1118" on="0"/>
        <pt x="680" y="1118" on="1"/>
        <pt x="938" y="1118" on="0"/>
        <pt x="1016" y="934" on="1"/>
        <pt x="1026" y="934" on="1"/>
        <pt x="1079" y="1022" on="0"/>
        <pt x="1262" y="1118" on="0"/>
        <pt x="1378" y="1118" on="1"/>
        <pt x="1564" y="1118" on="0"/>
        <pt x="1749" y="926" on="0"/>
        <pt x="1749" y="715" on="1"/>
        <pt x="1749" y="0" on="1"/>
        <pt x="1569" y="0" on="1"/>
        <pt x="1569" y="707" on="1"/>
        <pt x="1569" y="837" on="0"/>
        <pt x="1462" y="967" on="0"/>
        <pt x="1348" y="967" on="1"/>
        <pt x="1195" y="967" on="0"/>
        <pt x="1051" y="789" on="0"/>
        <pt x="1051" y="606" on="1"/>
        <pt x="1051" y="-53" on="1"/>
        <pt x="1051" y="-172" on="0"/>
        <pt x="1096" y="-409" on="0"/>
        <pt x="1137" y="-492" on="1"/>
        <pt x="952" y="-492" on="1"/>
        <pt x="872" y="-320" on="0"/>
        <pt x="872" y="-59" on="1"/>
      </contour>
    </TTGlyph>
    <TTGlyph name="uni2D06" xMin="-61" yMin="-20" xMax="1157" yMax="1556">
      <contour>
        <pt x="-61" y="1556" on="1"/>
        <pt x="119" y="1556" on="1"/>
        <pt x="253" y="1556" on="0"/>
        <pt x="365" y="1458" on="0"/>
        <pt x="365" y="1329" on="1"/>
        <pt x="365" y="1178" on="1"/>
        <pt x="365" y="1077" on="0"/>
        <pt x="354" y="952" on="1"/>
        <pt x="365" y="952" on="1"/>
        <pt x="476" y="1116" on="0"/>
        <pt x="705" y="1116" on="1"/>
        <pt x="920" y="1116" on="0"/>
        <pt x="1157" y="818" on="0"/>
        <pt x="1157" y="549" on="1"/>
        <pt x="1157" y="270" on="0"/>
        <pt x="907" y="-20" on="0"/>
        <pt x="668" y="-20" on="1"/>
        <pt x="423" y="-20" on="0"/>
        <pt x="184" y="264" on="0"/>
        <pt x="184" y="551" on="1"/>
        <pt x="184" y="1300" on="1"/>
        <pt x="184" y="1359" on="0"/>
        <pt x="138" y="1405" on="0"/>
        <pt x="84" y="1405" on="1"/>
        <pt x="-61" y="1405" on="1"/>
      </contour>
      <contour>
        <pt x="670" y="129" on="1"/>
        <pt x="818" y="129" on="0"/>
        <pt x="971" y="341" on="0"/>
        <pt x="971" y="551" on="1"/>
        <pt x="971" y="757" on="0"/>
        <pt x="819" y="967" on="0"/>
        <pt x="674" y="967" on="1"/>
        <pt x="511" y="967" on="0"/>
        <pt x="365" y="775" on="0"/>
        <pt x="365" y="555" on="1"/>
        <pt x="365" y="545" on="1"/>
        <pt x="365" y="331" on="0"/>
        <pt x="513" y="129" on="0"/>
      </contour>
    </TTGlyph>
    <TTGlyph name="uni2D07" xMin="174" yMin="-20" xMax="1749" yMax="1118">
      <contour>
        <pt x="174" y="1098" on="1"/>
        <pt x="319" y="1098" on="1"/>
        <pt x="346" y="948" on="1"/>
        <pt x="356" y="948" on="1"/>
        <pt x="403" y="1028" on="0"/>
        <pt x="574" y="1118" on="0"/>
        <pt x="680" y="1118" on="1"/>
        <pt x="938" y="1118" on="0"/>
        <pt x="1016" y="934" on="1"/>
        <pt x="1026" y="934" on="1"/>
        <pt x="1079" y="1022" on="0"/>
        <pt x="1262" y="1118" on="0"/>
        <pt x="1378" y="1118" on="1"/>
        <pt x="1564" y="1118" on="0"/>
        <pt x="1749" y="926" on="0"/>
        <pt x="1749" y="715" on="1"/>
        <pt x="1749" y="0" on="1"/>
        <pt x="1571" y="0" on="1"/>
        <pt x="1571" y="707" on="1"/>
        <pt x="1571" y="967" on="0"/>
        <pt x="1348" y="967" on="1"/>
        <pt x="1195" y="967" on="0"/>
        <pt x="1051" y="789" on="0"/>
        <pt x="1051" y="606" on="1"/>
        <pt x="1051" y="0" on="1"/>
        <pt x="907" y="0" on="1"/>
        <pt x="879" y="145" on="1"/>
        <pt x="870" y="145" on="1"/>
        <pt x="825" y="68" on="0"/>
        <pt x="657" y="-20" on="0"/>
        <pt x="545" y="-20" on="1"/>
        <pt x="360" y="-20" on="0"/>
        <pt x="174" y="170" on="0"/>
        <pt x="174" y="379" on="1"/>
      </contour>
      <contour>
        <pt x="354" y="391" on="1"/>
        <pt x="354" y="258" on="0"/>
        <pt x="463" y="129" on="0"/>
        <pt x="578" y="129" on="1"/>
        <pt x="731" y="129" on="0"/>
        <pt x="872" y="317" on="0"/>
        <pt x="872" y="526" on="1"/>
        <pt x="872" y="707" on="1"/>
        <pt x="872" y="837" on="0"/>
        <pt x="763" y="967" on="0"/>
        <pt x="647" y="967" on="1"/>
        <pt x="495" y="967" on="0"/>
        <pt x="354" y="781" on="0"/>
        <pt x="354" y="569" on="1"/>
      </contour>
    </TTGlyph>
    <TTGlyph name="uni2D08" xMin="20" yMin="0" xMax="807" yMax="1098">
      <contour>
        <pt x="20" y="946" on="1"/>
        <pt x="20" y="1098" on="1"/>
        <pt x="438" y="1098" on="1"/>
        <pt x="807" y="1098" on="0"/>
        <pt x="807" y="745" on="1"/>
        <pt x="807" y="0" on="1"/>
        <pt x="627" y="0" on="1"/>
        <pt x="627" y="745" on="1"/>
        <pt x="627" y="946" on="0"/>
        <pt x="408" y="946" on="1"/>
      </contour>
    </TTGlyph>
    <TTGlyph name="uni2D09" xMin="166" yMin="-492" xMax="1176" yMax="1556">
      <contour>
        <pt x="1092" y="-53" on="1"/>
        <pt x="1092" y="-174" on="0"/>
        <pt x="1134" y="-405" on="0"/>
        <pt x="1176" y="-492" on="1"/>
        <pt x="991" y="-492" on="1"/>
        <pt x="911" y="-320" on="0"/>
        <pt x="911" y="-59" on="1"/>
        <pt x="911" y="-6" on="1"/>
        <pt x="911" y="49" on="0"/>
        <pt x="924" y="145" on="1"/>
        <pt x="909" y="145" on="1"/>
        <pt x="859" y="66" on="0"/>
        <pt x="681" y="-20" on="0"/>
        <pt x="563" y="-20" on="1"/>
        <pt x="365" y="-20" on="0"/>
        <pt x="166" y="170" on="0"/>
        <pt x="166" y="379" on="1"/>
        <pt x="166" y="1556" on="1"/>
        <pt x="346" y="1556" on="1"/>
        <pt x="346" y="1100" on="1"/>
        <pt x="346" y="1010" on="0"/>
        <pt x="336" y="946" on="1"/>
        <pt x="348" y="946" on="1"/>
        <pt x="397" y="1026" on="0"/>
        <pt x="577" y="1116" on="0"/>
        <pt x="690" y="1116" on="1"/>
        <pt x="889" y="1116" on="0"/>
        <pt x="1092" y="925" on="0"/>
        <pt x="1092" y="715" on="1"/>
      </contour>
      <contour>
        <pt x="911" y="702" on="1"/>
        <pt x="911" y="836" on="0"/>
        <pt x="795" y="967" on="0"/>
        <pt x="668" y="967" on="1"/>
        <pt x="501" y="967" on="0"/>
        <pt x="346" y="781" on="0"/>
        <pt x="346" y="567" on="1"/>
        <pt x="346" y="391" on="1"/>
        <pt x="346" y="258" on="0"/>
        <pt x="465" y="129" on="0"/>
        <pt x="590" y="129" on="1"/>
        <pt x="759" y="129" on="0"/>
        <pt x="911" y="317" on="0"/>
        <pt x="911" y="526" on="1"/>
      </contour>
    </TTGlyph>
    <TTGlyph name="uni2D0A" xMin="174" yMin="-20" xMax="1749" yMax="1118">
      <contour>
        <pt x="1569" y="707" on="1"/>
        <pt x="1569" y="837" on="0"/>
        <pt x="1462" y="967" on="0"/>
        <pt x="1348" y="967" on="1"/>
        <pt x="1195" y="967" on="0"/>
        <pt x="1051" y="789" on="0"/>
        <pt x="1051" y="606" on="1"/>
        <pt x="1051" y="391" on="1"/>
        <pt x="1051" y="258" on="0"/>
        <pt x="1159" y="129" on="0"/>
        <pt x="1274" y="129" on="1"/>
        <pt x="1427" y="129" on="0"/>
        <pt x="1569" y="316" on="0"/>
        <pt x="1569" y="526" on="1"/>
      </contour>
      <contour>
        <pt x="1606" y="0" on="1"/>
        <pt x="1577" y="145" on="1"/>
        <pt x="1569" y="145" on="1"/>
        <pt x="1521" y="65" on="0"/>
        <pt x="1352" y="-20" on="0"/>
        <pt x="1243" y="-20" on="1"/>
        <pt x="1058" y="-20" on="0"/>
        <pt x="872" y="170" on="0"/>
        <pt x="872" y="379" on="1"/>
        <pt x="872" y="707" on="1"/>
        <pt x="872" y="837" on="0"/>
        <pt x="763" y="967" on="0"/>
        <pt x="647" y="967" on="1"/>
        <pt x="495" y="967" on="0"/>
        <pt x="354" y="781" on="0"/>
        <pt x="354" y="569" on="1"/>
        <pt x="354" y="0" on="1"/>
        <pt x="174" y="0" on="1"/>
        <pt x="174" y="1098" on="1"/>
        <pt x="319" y="1098" on="1"/>
        <pt x="346" y="948" on="1"/>
        <pt x="356" y="948" on="1"/>
        <pt x="403" y="1028" on="0"/>
        <pt x="574" y="1118" on="0"/>
        <pt x="680" y="1118" on="1"/>
        <pt x="938" y="1118" on="0"/>
        <pt x="1016" y="934" on="1"/>
        <pt x="1026" y="934" on="1"/>
        <pt x="1079" y="1022" on="0"/>
        <pt x="1262" y="1118" on="0"/>
        <pt x="1378" y="1118" on="1"/>
        <pt x="1564" y="1118" on="0"/>
        <pt x="1749" y="926" on="0"/>
        <pt x="1749" y="715" on="1"/>
        <pt x="1749" y="0" on="1"/>
      </contour>
    </TTGlyph>
    <TTGlyph name="uni2D0B" xMin="113" yMin="-20" xMax="1280" yMax="1556">
      <contour>
        <pt x="600" y="129" on="1"/>
        <pt x="757" y="129" on="0"/>
        <pt x="905" y="332" on="0"/>
        <pt x="905" y="537" on="1"/>
        <pt x="905" y="946" on="1"/>
        <pt x="635" y="946" on="1"/>
        <pt x="504" y="946" on="0"/>
        <pt x="361" y="869" on="0"/>
        <pt x="299" y="700" on="0"/>
        <pt x="299" y="541" on="1"/>
        <pt x="299" y="129" on="0"/>
      </contour>
      <contour>
        <pt x="1280" y="1098" on="1"/>
        <pt x="1280" y="946" on="1"/>
        <pt x="1085" y="946" on="1"/>
        <pt x="1085" y="551" on="1"/>
        <pt x="1085" y="-20" on="0"/>
        <pt x="584" y="-20" on="1"/>
        <pt x="356" y="-20" on="0"/>
        <pt x="113" y="268" on="0"/>
        <pt x="113" y="539" on="1"/>
        <pt x="113" y="831" on="0"/>
        <pt x="361" y="1098" on="0"/>
        <pt x="633" y="1098" on="1"/>
        <pt x="905" y="1098" on="1"/>
        <pt x="905" y="1204" on="1"/>
        <pt x="905" y="1405" on="0"/>
        <pt x="686" y="1405" on="1"/>
        <pt x="299" y="1405" on="1"/>
        <pt x="299" y="1556" on="1"/>
        <pt x="717" y="1556" on="1"/>
        <pt x="1085" y="1556" on="0"/>
        <pt x="1085" y="1204" on="1"/>
        <pt x="1085" y="1098" on="1"/>
      </contour>
    </TTGlyph>
    <TTGlyph name="uni2D0C" xMin="174" yMin="0" xMax="1100" yMax="1556">
      <contour>
        <pt x="354" y="1100" on="1"/>
        <pt x="354" y="1010" on="0"/>
        <pt x="344" y="946" on="1"/>
        <pt x="356" y="946" on="1"/>
        <pt x="405" y="1026" on="0"/>
        <pt x="585" y="1116" on="0"/>
        <pt x="698" y="1116" on="1"/>
        <pt x="898" y="1116" on="0"/>
        <pt x="1100" y="925" on="0"/>
        <pt x="1100" y="715" on="1"/>
        <pt x="1100" y="0" on="1"/>
        <pt x="922" y="0" on="1"/>
        <pt x="922" y="702" on="1"/>
        <pt x="922" y="836" on="0"/>
        <pt x="803" y="967" on="0"/>
        <pt x="676" y="967" on="1"/>
        <pt x="509" y="967" on="0"/>
        <pt x="354" y="781" on="0"/>
        <pt x="354" y="567" on="1"/>
        <pt x="354" y="0" on="1"/>
        <pt x="174" y="0" on="1"/>
        <pt x="174" y="1118" on="1"/>
        <pt x="174" y="1346" on="0"/>
        <pt x="383" y="1556" on="0"/>
        <pt x="606" y="1556" on="1"/>
        <pt x="1061" y="1556" on="1"/>
        <pt x="1061" y="1405" on="1"/>
        <pt x="621" y="1405" on="1"/>
        <pt x="471" y="1405" on="0"/>
        <pt x="354" y="1283" on="0"/>
        <pt x="354" y="1139" on="1"/>
      </contour>
    </TTGlyph>
    <TTGlyph name="uni2D0D" xMin="166" yMin="-20" xMax="1741" yMax="1098">
      <contour>
        <pt x="344" y="1098" on="1"/>
        <pt x="344" y="391" on="1"/>
        <pt x="344" y="131" on="0"/>
        <pt x="567" y="131" on="1"/>
        <pt x="719" y="131" on="0"/>
        <pt x="864" y="306" on="0"/>
        <pt x="864" y="492" on="1"/>
        <pt x="864" y="1098" on="1"/>
        <pt x="1042" y="1098" on="1"/>
        <pt x="1042" y="391" on="1"/>
        <pt x="1042" y="261" on="0"/>
        <pt x="1152" y="131" on="0"/>
        <pt x="1268" y="131" on="1"/>
        <pt x="1420" y="131" on="0"/>
        <pt x="1561" y="318" on="0"/>
        <pt x="1561" y="528" on="1"/>
        <pt x="1561" y="1098" on="1"/>
        <pt x="1741" y="1098" on="1"/>
        <pt x="1741" y="0" on="1"/>
        <pt x="1595" y="0" on="1"/>
        <pt x="1569" y="150" on="1"/>
        <pt x="1559" y="150" on="1"/>
        <pt x="1509" y="67" on="0"/>
        <pt x="1339" y="-20" on="0"/>
        <pt x="1235" y="-20" on="1"/>
        <pt x="977" y="-20" on="0"/>
        <pt x="899" y="164" on="1"/>
        <pt x="889" y="164" on="1"/>
        <pt x="836" y="76" on="0"/>
        <pt x="653" y="-20" on="0"/>
        <pt x="537" y="-20" on="1"/>
        <pt x="351" y="-20" on="0"/>
        <pt x="166" y="171" on="0"/>
        <pt x="166" y="383" on="1"/>
        <pt x="166" y="1098" on="1"/>
      </contour>
    </TTGlyph>
    <TTGlyph name="uni2D0E" xMin="20" yMin="-20" xMax="1196" yMax="1098">
      <contour>
        <pt x="449" y="391" on="1"/>
        <pt x="449" y="258" on="0"/>
        <pt x="567" y="129" on="0"/>
        <pt x="692" y="129" on="1"/>
        <pt x="862" y="129" on="0"/>
        <pt x="1016" y="316" on="0"/>
        <pt x="1016" y="526" on="1"/>
        <pt x="1016" y="1098" on="1"/>
        <pt x="1196" y="1098" on="1"/>
        <pt x="1196" y="0" on="1"/>
        <pt x="1049" y="0" on="1"/>
        <pt x="1022" y="145" on="1"/>
        <pt x="1014" y="145" on="1"/>
        <pt x="965" y="68" on="0"/>
        <pt x="784" y="-20" on="0"/>
        <pt x="666" y="-20" on="1"/>
        <pt x="467" y="-20" on="0"/>
        <pt x="266" y="170" on="0"/>
        <pt x="266" y="379" on="1"/>
        <pt x="266" y="842" on="1"/>
        <pt x="266" y="901" on="0"/>
        <pt x="220" y="946" on="0"/>
        <pt x="166" y="946" on="1"/>
        <pt x="20" y="946" on="1"/>
        <pt x="20" y="1098" on="1"/>
        <pt x="203" y="1098" on="1"/>
        <pt x="338" y="1098" on="0"/>
        <pt x="449" y="998" on="0"/>
        <pt x="449" y="870" on="1"/>
      </contour>
    </TTGlyph>
    <TTGlyph name="uni2D0F" xMin="20" yMin="-492" xMax="1280" yMax="1098">
      <contour>
        <pt x="1196" y="-53" on="1"/>
        <pt x="1196" y="-181" on="0"/>
        <pt x="1242" y="-415" on="0"/>
        <pt x="1280" y="-492" on="1"/>
        <pt x="1096" y="-492" on="1"/>
        <pt x="1016" y="-324" on="0"/>
        <pt x="1016" y="-59" on="1"/>
        <pt x="1016" y="-6" on="1"/>
        <pt x="1016" y="56" on="0"/>
        <pt x="1028" y="145" on="1"/>
        <pt x="1014" y="145" on="1"/>
        <pt x="965" y="68" on="0"/>
        <pt x="784" y="-20" on="0"/>
        <pt x="666" y="-20" on="1"/>
        <pt x="467" y="-20" on="0"/>
        <pt x="266" y="170" on="0"/>
        <pt x="266" y="379" on="1"/>
        <pt x="266" y="842" on="1"/>
        <pt x="266" y="901" on="0"/>
        <pt x="220" y="946" on="0"/>
        <pt x="166" y="946" on="1"/>
        <pt x="20" y="946" on="1"/>
        <pt x="20" y="1098" on="1"/>
        <pt x="203" y="1098" on="1"/>
        <pt x="338" y="1098" on="0"/>
        <pt x="449" y="998" on="0"/>
        <pt x="449" y="870" on="1"/>
        <pt x="449" y="391" on="1"/>
        <pt x="449" y="258" on="0"/>
        <pt x="567" y="129" on="0"/>
        <pt x="692" y="129" on="1"/>
        <pt x="862" y="129" on="0"/>
        <pt x="1016" y="316" on="0"/>
        <pt x="1016" y="526" on="1"/>
        <pt x="1016" y="1098" on="1"/>
        <pt x="1196" y="1098" on="1"/>
      </contour>
    </TTGlyph>
    <TTGlyph name="uni2D10" xMin="164" yMin="-20" xMax="1745" yMax="1556">
      <contour>
        <pt x="899" y="0" on="1"/>
        <pt x="870" y="145" on="1"/>
        <pt x="862" y="145" on="1"/>
        <pt x="817" y="68" on="0"/>
        <pt x="649" y="-20" on="0"/>
        <pt x="537" y="-20" on="1"/>
        <pt x="352" y="-20" on="0"/>
        <pt x="164" y="170" on="0"/>
        <pt x="164" y="379" on="1"/>
        <pt x="164" y="1098" on="1"/>
        <pt x="344" y="1098" on="1"/>
        <pt x="344" y="391" on="1"/>
        <pt x="344" y="129" on="0"/>
        <pt x="569" y="129" on="1"/>
        <pt x="722" y="129" on="0"/>
        <pt x="864" y="316" on="0"/>
        <pt x="864" y="526" on="1"/>
        <pt x="864" y="1556" on="1"/>
        <pt x="1044" y="1556" on="1"/>
        <pt x="1044" y="1102" on="1"/>
        <pt x="1044" y="1012" on="0"/>
        <pt x="1034" y="948" on="1"/>
        <pt x="1047" y="948" on="1"/>
        <pt x="1093" y="1028" on="0"/>
        <pt x="1267" y="1118" on="0"/>
        <pt x="1374" y="1118" on="1"/>
        <pt x="1557" y="1118" on="0"/>
        <pt x="1745" y="926" on="0"/>
        <pt x="1745" y="715" on="1"/>
        <pt x="1745" y="0" on="1"/>
        <pt x="1565" y="0" on="1"/>
        <pt x="1565" y="702" on="1"/>
        <pt x="1565" y="836" on="0"/>
        <pt x="1457" y="967" on="0"/>
        <pt x="1341" y="967" on="1"/>
        <pt x="1187" y="967" on="0"/>
        <pt x="1044" y="776" on="0"/>
        <pt x="1044" y="569" on="1"/>
        <pt x="1044" y="0" on="1"/>
      </contour>
    </TTGlyph>
    <TTGlyph name="uni2D11" xMin="162" yMin="-20" xMax="1092" yMax="1556">
      <contour>
        <pt x="344" y="1556" on="1"/>
        <pt x="344" y="391" on="1"/>
        <pt x="344" y="258" on="0"/>
        <pt x="463" y="129" on="0"/>
        <pt x="588" y="129" on="1"/>
        <pt x="757" y="129" on="0"/>
        <pt x="911" y="317" on="0"/>
        <pt x="911" y="526" on="1"/>
        <pt x="911" y="1098" on="1"/>
        <pt x="1092" y="1098" on="1"/>
        <pt x="1092" y="0" on="1"/>
        <pt x="944" y="0" on="1"/>
        <pt x="918" y="145" on="1"/>
        <pt x="909" y="145" on="1"/>
        <pt x="860" y="66" on="0"/>
        <pt x="680" y="-20" on="0"/>
        <pt x="561" y="-20" on="1"/>
        <pt x="363" y="-20" on="0"/>
        <pt x="162" y="170" on="0"/>
        <pt x="162" y="379" on="1"/>
        <pt x="162" y="1556" on="1"/>
      </contour>
    </TTGlyph>
    <TTGlyph name="uni2D12" xMin="162" yMin="-492" xMax="1126" yMax="1118">
      <contour>
        <pt x="643" y="-342" on="1"/>
        <pt x="870" y="-342" on="0"/>
        <pt x="1049" y="-256" on="1"/>
        <pt x="1049" y="-422" on="1"/>
        <pt x="884" y="-492" on="0"/>
        <pt x="637" y="-492" on="1"/>
        <pt x="391" y="-492" on="0"/>
        <pt x="162" y="-251" on="0"/>
        <pt x="162" y="10" on="1"/>
        <pt x="162" y="530" on="1"/>
        <pt x="162" y="817" on="0"/>
        <pt x="413" y="1118" on="0"/>
        <pt x="651" y="1118" on="1"/>
        <pt x="870" y="1118" on="0"/>
        <pt x="1126" y="814" on="0"/>
        <pt x="1126" y="549" on="1"/>
        <pt x="1126" y="282" on="0"/>
        <pt x="880" y="-20" on="0"/>
        <pt x="662" y="-20" on="1"/>
        <pt x="463" y="-20" on="0"/>
        <pt x="344" y="139" on="1"/>
        <pt x="332" y="139" on="1"/>
        <pt x="335" y="98" on="1"/>
        <pt x="342" y="18" on="0"/>
        <pt x="342" y="-41" on="1"/>
        <pt x="342" y="-199" on="0"/>
        <pt x="491" y="-342" on="0"/>
      </contour>
      <contour>
        <pt x="647" y="129" on="1"/>
        <pt x="802" y="129" on="0"/>
        <pt x="942" y="341" on="0"/>
        <pt x="942" y="549" on="1"/>
        <pt x="942" y="759" on="0"/>
        <pt x="801" y="967" on="0"/>
        <pt x="643" y="967" on="1"/>
        <pt x="490" y="967" on="0"/>
        <pt x="342" y="765" on="0"/>
        <pt x="342" y="561" on="1"/>
        <pt x="342" y="326" on="0"/>
        <pt x="488" y="129" on="0"/>
      </contour>
    </TTGlyph>
    <TTGlyph name="uni2D13" xMin="166" yMin="-492" xMax="1825" yMax="1556">
      <contour>
        <pt x="1561" y="0" on="1"/>
        <pt x="1561" y="49" on="0"/>
        <pt x="1569" y="150" on="1"/>
        <pt x="1559" y="150" on="1"/>
        <pt x="1509" y="67" on="0"/>
        <pt x="1339" y="-20" on="0"/>
        <pt x="1235" y="-20" on="1"/>
        <pt x="977" y="-20" on="0"/>
        <pt x="899" y="164" on="1"/>
        <pt x="889" y="164" on="1"/>
        <pt x="836" y="76" on="0"/>
        <pt x="653" y="-20" on="0"/>
        <pt x="537" y="-20" on="1"/>
        <pt x="351" y="-20" on="0"/>
        <pt x="166" y="171" on="0"/>
        <pt x="166" y="383" on="1"/>
        <pt x="166" y="1098" on="1"/>
        <pt x="344" y="1098" on="1"/>
        <pt x="344" y="391" on="1"/>
        <pt x="344" y="131" on="0"/>
        <pt x="567" y="131" on="1"/>
        <pt x="719" y="131" on="0"/>
        <pt x="864" y="306" on="0"/>
        <pt x="864" y="492" on="1"/>
        <pt x="864" y="1098" on="1"/>
        <pt x="1042" y="1098" on="1"/>
        <pt x="1042" y="391" on="1"/>
        <pt x="1042" y="261" on="0"/>
        <pt x="1152" y="131" on="0"/>
        <pt x="1268" y="131" on="1"/>
        <pt x="1420" y="131" on="0"/>
        <pt x="1561" y="318" on="0"/>
        <pt x="1561" y="528" on="1"/>
        <pt x="1561" y="1556" on="1"/>
        <pt x="1741" y="1556" on="1"/>
        <pt x="1741" y="-53" on="1"/>
        <pt x="1741" y="-181" on="0"/>
        <pt x="1787" y="-415" on="0"/>
        <pt x="1825" y="-492" on="1"/>
        <pt x="1640" y="-492" on="1"/>
        <pt x="1561" y="-322" on="0"/>
        <pt x="1561" y="-59" on="1"/>
      </contour>
    </TTGlyph>
    <TTGlyph name="uni2D14" xMin="113" yMin="-492" xMax="1878" yMax="1118">
      <contour>
        <pt x="600" y="969" on="1"/>
        <pt x="299" y="969" on="0"/>
        <pt x="299" y="547" on="1"/>
        <pt x="299" y="338" on="0"/>
        <pt x="444" y="131" on="0"/>
        <pt x="596" y="131" on="1"/>
        <pt x="761" y="131" on="0"/>
        <pt x="905" y="320" on="0"/>
        <pt x="905" y="543" on="1"/>
        <pt x="905" y="969" on="0"/>
      </contour>
      <contour>
        <pt x="1386" y="969" on="1"/>
        <pt x="1242" y="969" on="0"/>
        <pt x="1083" y="745" on="0"/>
        <pt x="1083" y="543" on="1"/>
        <pt x="1083" y="320" on="0"/>
        <pt x="1232" y="129" on="0"/>
        <pt x="1401" y="129" on="1"/>
        <pt x="1540" y="129" on="0"/>
        <pt x="1692" y="350" on="0"/>
        <pt x="1692" y="555" on="1"/>
        <pt x="1692" y="759" on="0"/>
        <pt x="1537" y="969" on="0"/>
      </contour>
      <contour>
        <pt x="905" y="-80" on="1"/>
        <pt x="905" y="32" on="0"/>
        <pt x="915" y="145" on="1"/>
        <pt x="905" y="145" on="1"/>
        <pt x="798" y="-18" on="0"/>
        <pt x="565" y="-18" on="1"/>
        <pt x="350" y="-18" on="0"/>
        <pt x="113" y="280" on="0"/>
        <pt x="113" y="549" on="1"/>
        <pt x="113" y="825" on="0"/>
        <pt x="366" y="1118" on="0"/>
        <pt x="602" y="1118" on="1"/>
        <pt x="883" y="1118" on="0"/>
        <pt x="997" y="862" on="1"/>
        <pt x="1055" y="994" on="0"/>
        <pt x="1261" y="1118" on="0"/>
        <pt x="1393" y="1118" on="1"/>
        <pt x="1628" y="1118" on="0"/>
        <pt x="1878" y="828" on="0"/>
        <pt x="1878" y="551" on="1"/>
        <pt x="1878" y="282" on="0"/>
        <pt x="1641" y="-20" on="0"/>
        <pt x="1425" y="-20" on="1"/>
        <pt x="1203" y="-20" on="0"/>
        <pt x="1085" y="141" on="1"/>
        <pt x="1073" y="141" on="1"/>
        <pt x="1077" y="106" on="1"/>
        <pt x="1085" y="31" on="0"/>
        <pt x="1085" y="-74" on="1"/>
        <pt x="1085" y="-320" on="0"/>
        <pt x="1169" y="-492" on="1"/>
        <pt x="985" y="-492" on="1"/>
        <pt x="905" y="-320" on="0"/>
      </contour>
    </TTGlyph>
    <TTGlyph name="uni2D15" xMin="41" yMin="0" xMax="932" yMax="1556">
      <contour>
        <pt x="575" y="1556" on="1"/>
        <pt x="575" y="1098" on="1"/>
        <pt x="932" y="1098" on="1"/>
        <pt x="932" y="946" on="1"/>
        <pt x="575" y="946" on="1"/>
        <pt x="575" y="0" on="1"/>
        <pt x="395" y="0" on="1"/>
        <pt x="395" y="946" on="1"/>
        <pt x="41" y="946" on="1"/>
        <pt x="41" y="1098" on="1"/>
        <pt x="395" y="1098" on="1"/>
        <pt x="395" y="1556" on="1"/>
      </contour>
    </TTGlyph>
    <TTGlyph name="uni2D16" xMin="20" yMin="0" xMax="1192" yMax="1118">
      <contour>
        <pt x="449" y="948" on="1"/>
        <pt x="501" y="1030" on="0"/>
        <pt x="684" y="1118" on="0"/>
        <pt x="795" y="1118" on="1"/>
        <pt x="997" y="1118" on="0"/>
        <pt x="1192" y="921" on="0"/>
        <pt x="1192" y="715" on="1"/>
        <pt x="1192" y="0" on="1"/>
        <pt x="1014" y="0" on="1"/>
        <pt x="1014" y="702" on="1"/>
        <pt x="1014" y="836" on="0"/>
        <pt x="895" y="967" on="0"/>
        <pt x="768" y="967" on="1"/>
        <pt x="599" y="967" on="0"/>
        <pt x="446" y="780" on="0"/>
        <pt x="446" y="569" on="1"/>
        <pt x="446" y="0" on="1"/>
        <pt x="266" y="0" on="1"/>
        <pt x="266" y="842" on="1"/>
        <pt x="266" y="901" on="0"/>
        <pt x="220" y="946" on="0"/>
        <pt x="166" y="946" on="1"/>
        <pt x="20" y="946" on="1"/>
        <pt x="20" y="1098" on="1"/>
        <pt x="205" y="1098" on="1"/>
        <pt x="319" y="1098" on="0"/>
        <pt x="427" y="1030" on="0"/>
        <pt x="438" y="948" on="1"/>
      </contour>
    </TTGlyph>
    <TTGlyph name="uni2D17" xMin="162" yMin="-492" xMax="1176" yMax="1098">
      <contour>
        <pt x="1092" y="-53" on="1"/>
        <pt x="1092" y="-174" on="0"/>
        <pt x="1134" y="-405" on="0"/>
        <pt x="1176" y="-492" on="1"/>
        <pt x="991" y="-492" on="1"/>
        <pt x="911" y="-320" on="0"/>
        <pt x="911" y="-59" on="1"/>
        <pt x="911" y="-6" on="1"/>
        <pt x="911" y="49" on="0"/>
        <pt x="924" y="145" on="1"/>
        <pt x="909" y="145" on="1"/>
        <pt x="860" y="66" on="0"/>
        <pt x="680" y="-20" on="0"/>
        <pt x="561" y="-20" on="1"/>
        <pt x="363" y="-20" on="0"/>
        <pt x="162" y="170" on="0"/>
        <pt x="162" y="379" on="1"/>
        <pt x="162" y="1098" on="1"/>
        <pt x="344" y="1098" on="1"/>
        <pt x="344" y="391" on="1"/>
        <pt x="344" y="258" on="0"/>
        <pt x="463" y="129" on="0"/>
        <pt x="588" y="129" on="1"/>
        <pt x="757" y="129" on="0"/>
        <pt x="911" y="317" on="0"/>
        <pt x="911" y="526" on="1"/>
        <pt x="911" y="1098" on="1"/>
        <pt x="1092" y="1098" on="1"/>
      </contour>
    </TTGlyph>
    <TTGlyph name="uni2D18" xMin="162" yMin="-492" xMax="1092" yMax="1098">
      <contour>
        <pt x="1092" y="2" on="1"/>
        <pt x="1092" y="-249" on="0"/>
        <pt x="852" y="-492" on="0"/>
        <pt x="600" y="-492" on="1"/>
        <pt x="366" y="-492" on="0"/>
        <pt x="205" y="-422" on="1"/>
        <pt x="205" y="-256" on="1"/>
        <pt x="365" y="-342" on="0"/>
        <pt x="610" y="-342" on="1"/>
        <pt x="757" y="-342" on="0"/>
        <pt x="909" y="-184" on="0"/>
        <pt x="909" y="-40" on="1"/>
        <pt x="909" y="-33" on="1"/>
        <pt x="909" y="0" on="1"/>
        <pt x="909" y="62" on="0"/>
        <pt x="918" y="145" on="1"/>
        <pt x="909" y="145" on="1"/>
        <pt x="860" y="66" on="0"/>
        <pt x="680" y="-20" on="0"/>
        <pt x="561" y="-20" on="1"/>
        <pt x="363" y="-20" on="0"/>
        <pt x="162" y="170" on="0"/>
        <pt x="162" y="379" on="1"/>
        <pt x="162" y="1098" on="1"/>
        <pt x="344" y="1098" on="1"/>
        <pt x="344" y="391" on="1"/>
        <pt x="344" y="258" on="0"/>
        <pt x="463" y="129" on="0"/>
        <pt x="588" y="129" on="1"/>
        <pt x="757" y="129" on="0"/>
        <pt x="911" y="317" on="0"/>
        <pt x="911" y="526" on="1"/>
        <pt x="911" y="1098" on="1"/>
        <pt x="1092" y="1098" on="1"/>
      </contour>
    </TTGlyph>
    <TTGlyph name="uni2D19" xMin="174" yMin="-492" xMax="1100" yMax="1556">
      <contour>
        <pt x="174" y="1556" on="1"/>
        <pt x="354" y="1556" on="1"/>
        <pt x="354" y="1100" on="1"/>
        <pt x="354" y="1010" on="0"/>
        <pt x="344" y="946" on="1"/>
        <pt x="356" y="946" on="1"/>
        <pt x="405" y="1026" on="0"/>
        <pt x="585" y="1116" on="0"/>
        <pt x="698" y="1116" on="1"/>
        <pt x="898" y="1116" on="0"/>
        <pt x="1100" y="925" on="0"/>
        <pt x="1100" y="715" on="1"/>
        <pt x="1100" y="0" on="1"/>
        <pt x="922" y="0" on="1"/>
        <pt x="922" y="702" on="1"/>
        <pt x="922" y="836" on="0"/>
        <pt x="803" y="967" on="0"/>
        <pt x="676" y="967" on="1"/>
        <pt x="509" y="967" on="0"/>
        <pt x="354" y="781" on="0"/>
        <pt x="354" y="567" on="1"/>
        <pt x="354" y="-53" on="1"/>
        <pt x="354" y="-181" on="0"/>
        <pt x="400" y="-415" on="0"/>
        <pt x="438" y="-492" on="1"/>
        <pt x="254" y="-492" on="1"/>
        <pt x="174" y="-320" on="0"/>
        <pt x="174" y="-59" on="1"/>
      </contour>
    </TTGlyph>
    <TTGlyph name="uni2D1A" xMin="174" yMin="-492" xMax="1100" yMax="1118">
      <contour>
        <pt x="174" y="1098" on="1"/>
        <pt x="319" y="1098" on="1"/>
        <pt x="346" y="948" on="1"/>
        <pt x="356" y="948" on="1"/>
        <pt x="407" y="1029" on="0"/>
        <pt x="591" y="1118" on="0"/>
        <pt x="702" y="1118" on="1"/>
        <pt x="904" y="1118" on="0"/>
        <pt x="1100" y="922" on="0"/>
        <pt x="1100" y="715" on="1"/>
        <pt x="1100" y="0" on="1"/>
        <pt x="922" y="0" on="1"/>
        <pt x="922" y="702" on="1"/>
        <pt x="922" y="836" on="0"/>
        <pt x="803" y="967" on="0"/>
        <pt x="676" y="967" on="1"/>
        <pt x="507" y="967" on="0"/>
        <pt x="354" y="780" on="0"/>
        <pt x="354" y="569" on="1"/>
        <pt x="354" y="-41" on="1"/>
        <pt x="354" y="-196" on="0"/>
        <pt x="501" y="-342" on="0"/>
        <pt x="647" y="-342" on="1"/>
        <pt x="762" y="-342" on="0"/>
        <pt x="971" y="-296" on="0"/>
        <pt x="1044" y="-256" on="1"/>
        <pt x="1044" y="-422" on="1"/>
        <pt x="889" y="-492" on="0"/>
        <pt x="633" y="-492" on="1"/>
        <pt x="174" y="-492" on="0"/>
        <pt x="174" y="-18" on="1"/>
      </contour>
    </TTGlyph>
    <TTGlyph name="uni2D1B" xMin="113" yMin="-20" xMax="1737" yMax="1556">
      <contour>
        <pt x="893" y="0" on="1"/>
        <pt x="866" y="147" on="1"/>
        <pt x="858" y="147" on="1"/>
        <pt x="748" y="-20" on="0"/>
        <pt x="537" y="-20" on="1"/>
        <pt x="335" y="-20" on="0"/>
        <pt x="113" y="276" on="0"/>
        <pt x="113" y="547" on="1"/>
        <pt x="113" y="817" on="0"/>
        <pt x="337" y="1118" on="0"/>
        <pt x="539" y="1118" on="1"/>
        <pt x="744" y="1118" on="0"/>
        <pt x="858" y="956" on="1"/>
        <pt x="870" y="956" on="1"/>
        <pt x="866" y="984" on="0"/>
        <pt x="859" y="1085" on="0"/>
        <pt x="858" y="1118" on="1"/>
        <pt x="858" y="1556" on="1"/>
        <pt x="1038" y="1556" on="1"/>
        <pt x="1038" y="1100" on="1"/>
        <pt x="1038" y="1010" on="0"/>
        <pt x="1028" y="946" on="1"/>
        <pt x="1040" y="946" on="1"/>
        <pt x="1090" y="1031" on="0"/>
        <pt x="1261" y="1116" on="0"/>
        <pt x="1360" y="1116" on="1"/>
        <pt x="1547" y="1116" on="0"/>
        <pt x="1737" y="925" on="0"/>
        <pt x="1737" y="715" on="1"/>
        <pt x="1737" y="0" on="1"/>
        <pt x="1559" y="0" on="1"/>
        <pt x="1559" y="702" on="1"/>
        <pt x="1559" y="836" on="0"/>
        <pt x="1449" y="967" on="0"/>
        <pt x="1333" y="967" on="1"/>
        <pt x="1179" y="967" on="0"/>
        <pt x="1038" y="779" on="0"/>
        <pt x="1038" y="567" on="1"/>
        <pt x="1038" y="0" on="1"/>
      </contour>
      <contour>
        <pt x="569" y="129" on="1"/>
        <pt x="720" y="129" on="0"/>
        <pt x="860" y="308" on="0"/>
        <pt x="860" y="512" on="1"/>
        <pt x="860" y="545" on="1"/>
        <pt x="860" y="774" on="0"/>
        <pt x="719" y="969" on="0"/>
        <pt x="567" y="969" on="1"/>
        <pt x="438" y="969" on="0"/>
        <pt x="299" y="748" on="0"/>
        <pt x="299" y="543" on="1"/>
        <pt x="299" y="339" on="0"/>
        <pt x="437" y="129" on="0"/>
      </contour>
    </TTGlyph>
    <TTGlyph name="uni2D1C" xMin="174" yMin="-492" xMax="1749" yMax="1118">
      <contour>
        <pt x="174" y="1098" on="1"/>
        <pt x="319" y="1098" on="1"/>
        <pt x="346" y="948" on="1"/>
        <pt x="356" y="948" on="1"/>
        <pt x="403" y="1028" on="0"/>
        <pt x="574" y="1118" on="0"/>
        <pt x="680" y="1118" on="1"/>
        <pt x="938" y="1118" on="0"/>
        <pt x="1016" y="934" on="1"/>
        <pt x="1026" y="934" on="1"/>
        <pt x="1079" y="1022" on="0"/>
        <pt x="1262" y="1118" on="0"/>
        <pt x="1378" y="1118" on="1"/>
        <pt x="1564" y="1118" on="0"/>
        <pt x="1749" y="926" on="0"/>
        <pt x="1749" y="715" on="1"/>
        <pt x="1749" y="0" on="1"/>
        <pt x="1571" y="0" on="1"/>
        <pt x="1571" y="707" on="1"/>
        <pt x="1571" y="967" on="0"/>
        <pt x="1348" y="967" on="1"/>
        <pt x="1195" y="967" on="0"/>
        <pt x="1051" y="789" on="0"/>
        <pt x="1051" y="606" on="1"/>
        <pt x="1051" y="0" on="1"/>
        <pt x="872" y="0" on="1"/>
        <pt x="872" y="707" on="1"/>
        <pt x="872" y="837" on="0"/>
        <pt x="763" y="967" on="0"/>
        <pt x="647" y="967" on="1"/>
        <pt x="495" y="967" on="0"/>
        <pt x="354" y="781" on="0"/>
        <pt x="354" y="569" on="1"/>
        <pt x="354" y="-53" on="1"/>
        <pt x="354" y="-181" on="0"/>
        <pt x="400" y="-415" on="0"/>
        <pt x="438" y="-492" on="1"/>
        <pt x="254" y="-492" on="1"/>
        <pt x="174" y="-320" on="0"/>
        <pt x="174" y="-59" on="1"/>
      </contour>
    </TTGlyph>
    <TTGlyph name="uni2D1D" xMin="20" yMin="-492" xMax="1223" yMax="1118">
      <contour>
        <pt x="449" y="948" on="1"/>
        <pt x="501" y="1030" on="0"/>
        <pt x="684" y="1118" on="0"/>
        <pt x="795" y="1118" on="1"/>
        <pt x="997" y="1118" on="0"/>
        <pt x="1192" y="921" on="0"/>
        <pt x="1192" y="715" on="1"/>
        <pt x="1192" y="512" on="1"/>
        <pt x="1014" y="512" on="1"/>
        <pt x="1014" y="702" on="1"/>
        <pt x="1014" y="836" on="0"/>
        <pt x="895" y="967" on="0"/>
        <pt x="768" y="967" on="1"/>
        <pt x="599" y="967" on="0"/>
        <pt x="446" y="780" on="0"/>
        <pt x="446" y="569" on="1"/>
        <pt x="446" y="440" on="1"/>
        <pt x="653" y="440" on="1"/>
        <pt x="932" y="440" on="0"/>
        <pt x="1223" y="214" on="0"/>
        <pt x="1223" y="-14" on="1"/>
        <pt x="1223" y="-232" on="0"/>
        <pt x="945" y="-492" on="0"/>
        <pt x="694" y="-492" on="1"/>
        <pt x="459" y="-492" on="0"/>
        <pt x="207" y="-276" on="0"/>
        <pt x="207" y="-59" on="1"/>
        <pt x="207" y="28" on="0"/>
        <pt x="227" y="90" on="1"/>
        <pt x="412" y="90" on="1"/>
        <pt x="401" y="63" on="0"/>
        <pt x="387" y="-27" on="0"/>
        <pt x="387" y="-63" on="1"/>
        <pt x="387" y="-340" on="0"/>
        <pt x="702" y="-340" on="1"/>
        <pt x="863" y="-340" on="0"/>
        <pt x="1036" y="-172" on="0"/>
        <pt x="1036" y="-18" on="1"/>
        <pt x="1036" y="142" on="0"/>
        <pt x="843" y="289" on="0"/>
        <pt x="657" y="289" on="1"/>
        <pt x="266" y="289" on="1"/>
        <pt x="266" y="842" on="1"/>
        <pt x="266" y="901" on="0"/>
        <pt x="220" y="946" on="0"/>
        <pt x="166" y="946" on="1"/>
        <pt x="20" y="946" on="1"/>
        <pt x="20" y="1098" on="1"/>
        <pt x="205" y="1098" on="1"/>
        <pt x="319" y="1098" on="0"/>
        <pt x="427" y="1030" on="0"/>
        <pt x="438" y="948" on="1"/>
      </contour>
    </TTGlyph>
    <TTGlyph name="uni2D1E" xMin="174" yMin="-492" xMax="1100" yMax="1098">
      <contour>
        <pt x="647" y="-342" on="1"/>
        <pt x="758" y="-342" on="0"/>
        <pt x="966" y="-297" on="0"/>
        <pt x="1044" y="-256" on="1"/>
        <pt x="1044" y="-422" on="1"/>
        <pt x="889" y="-492" on="0"/>
        <pt x="633" y="-492" on="1"/>
        <pt x="174" y="-492" on="0"/>
        <pt x="174" y="-18" on="1"/>
        <pt x="174" y="1098" on="1"/>
        <pt x="354" y="1098" on="1"/>
        <pt x="354" y="528" on="1"/>
        <pt x="354" y="317" on="0"/>
        <pt x="508" y="131" on="0"/>
        <pt x="676" y="131" on="1"/>
        <pt x="803" y="131" on="0"/>
        <pt x="922" y="262" on="0"/>
        <pt x="922" y="395" on="1"/>
        <pt x="922" y="1098" on="1"/>
        <pt x="1100" y="1098" on="1"/>
        <pt x="1100" y="397" on="1"/>
        <pt x="1100" y="180" on="0"/>
        <pt x="906" y="-20" on="0"/>
        <pt x="702" y="-20" on="1"/>
        <pt x="590" y="-20" on="0"/>
        <pt x="406" y="70" on="0"/>
        <pt x="356" y="150" on="1"/>
        <pt x="344" y="150" on="1"/>
        <pt x="347" y="108" on="1"/>
        <pt x="354" y="22" on="0"/>
        <pt x="354" y="-37" on="1"/>
        <pt x="354" y="-197" on="0"/>
        <pt x="498" y="-342" on="0"/>
      </contour>
    </TTGlyph>
    <TTGlyph name="uni2D1F" xMin="-111" yMin="-489" xMax="1126" yMax="1098">
      <contour>
        <pt x="-27" y="958" on="1"/>
        <pt x="-27" y="1098" on="1"/>
        <pt x="1096" y="1098" on="1"/>
        <pt x="1096" y="963" on="1"/>
        <pt x="770" y="500" on="1"/>
        <pt x="1126" y="0" on="1"/>
        <pt x="922" y="0" on="1"/>
        <pt x="666" y="377" on="1"/>
        <pt x="92" y="-489" on="1"/>
        <pt x="-111" y="-489" on="1"/>
        <pt x="557" y="500" on="1"/>
        <pt x="315" y="844" on="1"/>
        <pt x="514" y="844" on="1"/>
        <pt x="666" y="623" on="1"/>
        <pt x="895" y="958" on="1"/>
      </contour>
    </TTGlyph>
    <TTGlyph name="uni2D20" xMin="20" yMin="-20" xMax="1847" yMax="1118">
      <contour>
        <pt x="1147" y="391" on="1"/>
        <pt x="1147" y="258" on="0"/>
        <pt x="1256" y="129" on="0"/>
        <pt x="1370" y="129" on="1"/>
        <pt x="1524" y="129" on="0"/>
        <pt x="1667" y="317" on="0"/>
        <pt x="1667" y="526" on="1"/>
        <pt x="1667" y="1098" on="1"/>
        <pt x="1847" y="1098" on="1"/>
        <pt x="1847" y="0" on="1"/>
        <pt x="1700" y="0" on="1"/>
        <pt x="1673" y="145" on="1"/>
        <pt x="1665" y="145" on="1"/>
        <pt x="1617" y="66" on="0"/>
        <pt x="1452" y="-20" on="0"/>
        <pt x="1339" y="-20" on="1"/>
        <pt x="1154" y="-20" on="0"/>
        <pt x="967" y="170" on="0"/>
        <pt x="967" y="379" on="1"/>
        <pt x="967" y="702" on="1"/>
        <pt x="967" y="836" on="0"/>
        <pt x="857" y="967" on="0"/>
        <pt x="741" y="967" on="1"/>
        <pt x="587" y="967" on="0"/>
        <pt x="446" y="780" on="0"/>
        <pt x="446" y="569" on="1"/>
        <pt x="446" y="0" on="1"/>
        <pt x="266" y="0" on="1"/>
        <pt x="266" y="842" on="1"/>
        <pt x="266" y="901" on="0"/>
        <pt x="220" y="946" on="0"/>
        <pt x="166" y="946" on="1"/>
        <pt x="20" y="946" on="1"/>
        <pt x="20" y="1098" on="1"/>
        <pt x="205" y="1098" on="1"/>
        <pt x="319" y="1098" on="0"/>
        <pt x="427" y="1030" on="0"/>
        <pt x="438" y="948" on="1"/>
        <pt x="449" y="948" on="1"/>
        <pt x="496" y="1028" on="0"/>
        <pt x="667" y="1118" on="0"/>
        <pt x="772" y="1118" on="1"/>
        <pt x="961" y="1118" on="0"/>
        <pt x="1147" y="921" on="0"/>
        <pt x="1147" y="715" on="1"/>
      </contour>
    </TTGlyph>
    <TTGlyph name="uni2D21" xMin="174" yMin="-492" xMax="1145" yMax="1556">
      <contour>
        <pt x="354" y="-53" on="1"/>
        <pt x="354" y="-181" on="0"/>
        <pt x="400" y="-415" on="0"/>
        <pt x="438" y="-492" on="1"/>
        <pt x="254" y="-492" on="1"/>
        <pt x="174" y="-320" on="0"/>
        <pt x="174" y="-59" on="1"/>
        <pt x="174" y="1556" on="1"/>
        <pt x="354" y="1556" on="1"/>
        <pt x="354" y="979" on="1"/>
        <pt x="365" y="979" on="1"/>
        <pt x="396" y="1046" on="0"/>
        <pt x="535" y="1118" on="0"/>
        <pt x="629" y="1118" on="1"/>
        <pt x="755" y="1118" on="0"/>
        <pt x="901" y="984" on="0"/>
        <pt x="901" y="866" on="1"/>
        <pt x="901" y="768" on="0"/>
        <pt x="962" y="696" on="0"/>
        <pt x="1042" y="696" on="1"/>
        <pt x="1145" y="696" on="1"/>
        <pt x="1145" y="545" on="1"/>
        <pt x="989" y="545" on="1"/>
        <pt x="865" y="545" on="0"/>
        <pt x="719" y="673" on="0"/>
        <pt x="719" y="778" on="1"/>
        <pt x="719" y="874" on="0"/>
        <pt x="644" y="967" on="0"/>
        <pt x="563" y="967" on="1"/>
        <pt x="463" y="967" on="0"/>
        <pt x="354" y="821" on="0"/>
        <pt x="354" y="684" on="1"/>
      </contour>
    </TTGlyph>
    <TTGlyph name="uni2D22" xMin="86" yMin="-20" xMax="1102" yMax="1098">
      <contour>
        <pt x="532" y="1098" on="1"/>
        <pt x="814" y="1098" on="0"/>
        <pt x="1102" y="825" on="0"/>
        <pt x="1102" y="553" on="1"/>
        <pt x="1102" y="286" on="0"/>
        <pt x="820" y="-20" on="0"/>
        <pt x="573" y="-20" on="1"/>
        <pt x="338" y="-20" on="0"/>
        <pt x="86" y="217" on="0"/>
        <pt x="86" y="457" on="1"/>
        <pt x="86" y="544" on="0"/>
        <pt x="106" y="606" on="1"/>
        <pt x="291" y="606" on="1"/>
        <pt x="280" y="579" on="0"/>
        <pt x="266" y="489" on="0"/>
        <pt x="266" y="453" on="1"/>
        <pt x="266" y="287" on="0"/>
        <pt x="420" y="131" on="0"/>
        <pt x="582" y="131" on="1"/>
        <pt x="742" y="131" on="0"/>
        <pt x="915" y="349" on="0"/>
        <pt x="915" y="549" on="1"/>
        <pt x="915" y="946" on="0"/>
        <pt x="537" y="946" on="1"/>
        <pt x="145" y="946" on="1"/>
        <pt x="145" y="1098" on="1"/>
      </contour>
    </TTGlyph>
    <TTGlyph name="uni2D23" xMin="162" yMin="-492" xMax="1176" yMax="1556">
      <contour>
        <pt x="1092" y="-53" on="1"/>
        <pt x="1092" y="-174" on="0"/>
        <pt x="1134" y="-405" on="0"/>
        <pt x="1176" y="-492" on="1"/>
        <pt x="991" y="-492" on="1"/>
        <pt x="911" y="-320" on="0"/>
        <pt x="911" y="-59" on="1"/>
        <pt x="911" y="-6" on="1"/>
        <pt x="911" y="49" on="0"/>
        <pt x="924" y="145" on="1"/>
        <pt x="909" y="145" on="1"/>
        <pt x="860" y="66" on="0"/>
        <pt x="680" y="-20" on="0"/>
        <pt x="561" y="-20" on="1"/>
        <pt x="363" y="-20" on="0"/>
        <pt x="162" y="170" on="0"/>
        <pt x="162" y="379" on="1"/>
        <pt x="162" y="1098" on="1"/>
        <pt x="344" y="1098" on="1"/>
        <pt x="344" y="391" on="1"/>
        <pt x="344" y="258" on="0"/>
        <pt x="463" y="129" on="0"/>
        <pt x="588" y="129" on="1"/>
        <pt x="757" y="129" on="0"/>
        <pt x="911" y="317" on="0"/>
        <pt x="911" y="526" on="1"/>
        <pt x="911" y="1556" on="1"/>
        <pt x="1092" y="1556" on="1"/>
      </contour>
    </TTGlyph>
    <TTGlyph name="uni2D24" xMin="162" yMin="-492" xMax="1051" yMax="1098">
      <contour>
        <pt x="162" y="395" on="1"/>
        <pt x="162" y="1098" on="1"/>
        <pt x="342" y="1098" on="1"/>
        <pt x="342" y="391" on="1"/>
        <pt x="342" y="266" on="0"/>
        <pt x="474" y="131" on="0"/>
        <pt x="608" y="131" on="1"/>
        <pt x="735" y="131" on="0"/>
        <pt x="870" y="265" on="0"/>
        <pt x="870" y="391" on="1"/>
        <pt x="870" y="1098" on="1"/>
        <pt x="1051" y="1098" on="1"/>
        <pt x="1051" y="391" on="1"/>
        <pt x="1051" y="223" on="0"/>
        <pt x="863" y="14" on="0"/>
        <pt x="696" y="-8" on="1"/>
        <pt x="696" y="-320" on="0"/>
        <pt x="780" y="-492" on="1"/>
        <pt x="596" y="-492" on="1"/>
        <pt x="516" y="-324" on="0"/>
        <pt x="516" y="-8" on="1"/>
        <pt x="347" y="11" on="0"/>
        <pt x="162" y="221" on="0"/>
      </contour>
    </TTGlyph>
    <TTGlyph name="uni2D25" xMin="113" yMin="-20" xMax="1737" yMax="1556">
      <contour>
        <pt x="858" y="547" on="1"/>
        <pt x="858" y="776" on="0"/>
        <pt x="720" y="969" on="0"/>
        <pt x="567" y="969" on="1"/>
        <pt x="438" y="969" on="0"/>
        <pt x="299" y="748" on="0"/>
        <pt x="299" y="543" on="1"/>
        <pt x="299" y="334" on="0"/>
        <pt x="436" y="129" on="0"/>
        <pt x="582" y="129" on="1"/>
        <pt x="858" y="129" on="0"/>
      </contour>
      <contour>
        <pt x="1038" y="1100" on="1"/>
        <pt x="1038" y="1010" on="0"/>
        <pt x="1028" y="946" on="1"/>
        <pt x="1040" y="946" on="1"/>
        <pt x="1090" y="1031" on="0"/>
        <pt x="1261" y="1116" on="0"/>
        <pt x="1360" y="1116" on="1"/>
        <pt x="1547" y="1116" on="0"/>
        <pt x="1737" y="925" on="0"/>
        <pt x="1737" y="715" on="1"/>
        <pt x="1737" y="0" on="1"/>
        <pt x="1559" y="0" on="1"/>
        <pt x="1559" y="702" on="1"/>
        <pt x="1559" y="836" on="0"/>
        <pt x="1449" y="967" on="0"/>
        <pt x="1333" y="967" on="1"/>
        <pt x="1179" y="967" on="0"/>
        <pt x="1038" y="779" on="0"/>
        <pt x="1038" y="567" on="1"/>
        <pt x="1038" y="549" on="1"/>
        <pt x="1038" y="281" on="0"/>
        <pt x="792" y="-20" on="0"/>
        <pt x="573" y="-20" on="1"/>
        <pt x="346" y="-20" on="0"/>
        <pt x="113" y="263" on="0"/>
        <pt x="113" y="547" on="1"/>
        <pt x="113" y="817" on="0"/>
        <pt x="337" y="1118" on="0"/>
        <pt x="539" y="1118" on="1"/>
        <pt x="742" y="1118" on="0"/>
        <pt x="856" y="956" on="1"/>
        <pt x="868" y="956" on="1"/>
        <pt x="866" y="972" on="0"/>
        <pt x="858" y="1091" on="0"/>
        <pt x="858" y="1118" on="1"/>
        <pt x="858" y="1344" on="0"/>
        <pt x="1067" y="1556" on="0"/>
        <pt x="1290" y="1556" on="1"/>
        <pt x="1683" y="1556" on="1"/>
        <pt x="1683" y="1405" on="1"/>
        <pt x="1305" y="1405" on="1"/>
        <pt x="1155" y="1405" on="0"/>
        <pt x="1038" y="1283" on="0"/>
        <pt x="1038" y="1139" on="1"/>
      </contour>
    </TTGlyph>
</ttFont>
